<?xml version="1.0" standalone="no"?>
<!DOCTYPE svg PUBLIC "-//W3C//DTD SVG 1.1//EN" "http://www.w3.org/Graphics/SVG/1.1/DTD/svg11.dtd" >
<svg xmlns="http://www.w3.org/2000/svg" xmlns:xlink="http://www.w3.org/1999/xlink" version="1.1">
<metadata>
Created by FontForge 20170731 at Wed Apr  6 21:20:01 2022
 By Aleksey,,,
Copyright 2007-2021 The Arizonia Project Authors (https://github.com/googlefonts/arizonia)
</metadata>
<defs>
<font id="Arizonia-Regular" horiz-adv-x="0" >
  <font-face 
    font-family="Arizonia"
    font-weight="400"
    font-stretch="normal"
    units-per-em="1000"
    panose-1="0 0 0 0 0 0 0 0 0 0"
    ascent="800"
    descent="-200"
    x-height="284"
    cap-height="650"
    bbox="-534 -354 1787 1012"
    underline-thickness="10"
    underline-position="-85"
    unicode-range="U+000D-FB02"
  />
<missing-glyph horiz-adv-x="437" 
d="M378 7h-320l-8 9v612h1l7 9h320l9 -9v-613zM71 618l148 -281l147 281h-295zM69 592v-540l141 270zM368 52v540l-141 -270zM72 25h293l-146 281z" />
    <glyph glyph-name="fi" unicode="fi" horiz-adv-x="497" 
d="M34 -89q-10 8 -21 23.5t-15 45.5q-1 4 -1 7.5v7.5q0 37 16.5 95t44.5 122q-5 -2 -7 0q-3 2 -8 12t-5 23q0 14 9.5 28t37.5 21q6 2 16 4q32 60 69 109.5t74 74.5q23 15 48 22.5t50 7.5q46 0 82.5 -24.5t44.5 -71.5v-2q3 -21 -16 -43t-42 -22q-14 0 -20.5 8t-6.5 20
q0 21 15 37q20 22 42 22q7 0 13 -3q-10 17 -27 24.5t-37 7.5q-39 0 -71 -20q-36 -23 -72 -63.5t-65 -80.5q27 -2 48.5 -9t31.5 -15q14 -10 21 -21q4 -7 4 -12q0 -6 -5 -6q-3 0 -9 3q-18 12 -56 12q-16 0 -35 -2.5t-40 -8.5l-13 -19q-30 -48 -53 -97.5t-36 -93t-13 -75.5
q0 -28 12 -43q3 -4 0 -5.5t-5 0.5zM292 -1q-41 0 -55.5 17.5t-14.5 39.5q0 18 6 34.5t10 23.5q6 10 17 23t24 28q-21 -17 -38.5 -33t-27.5 -24q-3 -3 -6 -3q-5 0 -5 5q0 8 11 17q25 20 52.5 47.5l52 52t40.5 32.5q11 6 21 8.5t17 2.5q11 0 16 -3.5t2 -7.5q-16 -17 -33 -43.5
t-31 -55.5t-22.5 -55t-8.5 -44q0 -25 20 -25q19 0 49.5 17.5t64 44.5t62.5 53q4 4 7 4q5 0 6 -4.5t-2 -6.5q-35 -31 -76.5 -65t-82.5 -57t-75 -23z" />
    <glyph glyph-name="fl" unicode="fl" horiz-adv-x="534" 
d="M34 -89q-10 8 -21 23.5t-15 45.5q-1 4 -1 7.5v7.5q0 37 16.5 95t44.5 122q-5 -2 -7 0q-3 2 -8 12t-5 23q0 14 9.5 28t37.5 21q6 2 16 4q32 60 69 109.5t74 74.5q23 15 48 22.5t50 7.5q44 0 79.5 -22t45.5 -66q8 12 15 24t13 22q3 6 6.5 15t3.5 16q0 10 -8 10q-5 0 -15 -5
q-5 -2 -10 -4.5t-10 -4.5q-4 -2 -6 -2q-8 0 1 9q16 12 40.5 23.5t50.5 19.5t44 8q23 0 32.5 -7.5t9.5 -19.5q0 -8 -3.5 -17t-9.5 -20q-11 -18 -32 -42.5t-46.5 -52t-49.5 -54t-40 -46.5q-4 -5 -19.5 -26t-35 -50.5t-39 -62t-32 -62t-12.5 -49.5q0 -27 26 -27q17 0 43 10
q25 9 52.5 27.5t54 39.5t47 40t30.5 29q6 6 10 6t4 -5t-5 -10q-16 -17 -43.5 -44t-61 -54.5t-69.5 -46t-71 -18.5q-40 0 -56 19.5t-16 45.5q0 25 9.5 53t21.5 53q-13 -14 -25 -25.5t-20 -16.5q-4 -3 -8 -3q-5 0 -5 5t6 9q23 18 50 48t51 62q23 29 57 77t64 95v1
q-7 27 -27.5 38t-44.5 11q-19 0 -37.5 -5.5t-32.5 -14.5q-36 -23 -72 -63.5t-65 -80.5q27 -2 48.5 -9t31.5 -15q14 -10 21 -21q4 -7 4 -12q0 -6 -5 -6q-3 0 -9 3q-18 12 -56 12q-16 0 -35 -2.5t-40 -8.5l-13 -19q-30 -48 -53 -97.5t-36 -93t-13 -75.5q0 -28 12 -43
q3 -4 0 -5.5t-5 0.5z" />
    <glyph glyph-name="f_f" unicode="ff" horiz-adv-x="478" 
d="M34 -89q-21 17 -29 39.5t-8 44.5q0 37 16.5 95t44.5 122q-2 -1 -4 -1q-5 0 -10.5 11.5t-5.5 24.5q0 14 9.5 28t37.5 21q6 2 16 4q32 60 69 109.5t74 74.5q23 16 48.5 23.5t50.5 7.5q30 0 59 -11t48 -32.5t19 -53.5v-1q0 -4 -3 -4t-5 5q-7 27 -27 38.5t-44 11.5
q-19 0 -38 -6t-33 -15q-36 -23 -72 -63.5t-65 -80.5q27 -2 48.5 -9t31.5 -15q14 -10 21 -21q4 -7 4 -12q0 -6 -5 -6q-3 0 -9 3q-18 12 -56 12q-16 0 -35 -2.5t-40 -8.5l-13 -19q-32 -47 -55 -96.5t-35 -93.5t-12 -76q0 -28 12 -43q3 -4 0 -5.5t-5 0.5zM273 -89
q-21 17 -29 39.5t-8 44.5q0 37 16.5 95t44.5 122q-2 -1 -4 -1q-5 0 -10.5 11.5t-5.5 24.5q0 14 9.5 28t37.5 21q6 2 16 4q32 60 69 109.5t74 74.5q23 16 48.5 23.5t50.5 7.5q30 0 59 -11t48 -32.5t19 -53.5v-1q0 -4 -3 -4t-5 5q-7 27 -27 38.5t-44 11.5q-19 0 -38 -6
t-33 -15q-36 -23 -72 -63.5t-65 -80.5q27 -2 48.5 -9t31.5 -15q14 -10 21 -21q4 -7 4 -12q0 -6 -5 -6q-3 0 -9 3q-18 12 -56 12q-16 0 -35 -2.5t-40 -8.5l-13 -19q-32 -47 -55 -96.5t-35 -93.5t-12 -76q0 -28 12 -43q3 -4 0 -5.5t-5 0.5z" />
    <glyph glyph-name="f_f_i" unicode="ffi" horiz-adv-x="736" 
d="M34 -89q-21 17 -29 39.5t-8 44.5q0 37 16.5 95t44.5 122q-2 -1 -4 -1q-5 0 -10.5 11.5t-5.5 24.5q0 14 9.5 28t37.5 21q6 2 16 4q32 60 69 109.5t74 74.5q23 16 48.5 23.5t50.5 7.5q30 0 59 -11t48 -32.5t19 -53.5v-1q0 -4 -3 -4t-5 5q-7 27 -27 38.5t-44 11.5
q-19 0 -38 -6t-33 -15q-36 -23 -72 -63.5t-65 -80.5q27 -2 48.5 -9t31.5 -15q14 -10 21 -21q4 -7 4 -12q0 -6 -5 -6q-3 0 -9 3q-18 12 -56 12q-16 0 -35 -2.5t-40 -8.5l-13 -19q-32 -47 -55 -96.5t-35 -93.5t-12 -76q0 -28 12 -43q3 -4 0 -5.5t-5 0.5zM273 -89
q-10 8 -21 23.5t-15 45.5q-1 4 -1 7.5v7.5q0 37 16.5 95t44.5 122q-5 -2 -7 0q-3 2 -8 12t-5 23q0 14 9.5 28t37.5 21q6 2 16 4q32 60 69 109.5t74 74.5q23 15 48 22.5t50 7.5q46 0 82.5 -24.5t44.5 -71.5v-2q3 -21 -16 -43t-42 -22q-14 0 -20.5 8t-6.5 20q0 21 15 37
q20 22 42 22q7 0 13 -3q-10 17 -27 24.5t-37 7.5q-39 0 -71 -20q-36 -23 -72 -63.5t-65 -80.5q27 -2 48.5 -9t31.5 -15q14 -10 21 -21q4 -7 4 -12q0 -6 -5 -6q-3 0 -9 3q-18 12 -56 12q-16 0 -35 -2.5t-40 -8.5l-13 -19q-30 -48 -53 -97.5t-36 -93t-13 -75.5q0 -28 12 -43
q3 -4 0 -5.5t-5 0.5zM531 -1q-41 0 -55.5 17.5t-14.5 39.5q0 18 6 34.5t10 23.5q6 10 17 23t24 28q-21 -17 -38.5 -33t-27.5 -24q-3 -3 -6 -3q-5 0 -5 5q0 8 11 17q25 20 52.5 47.5l52 52t40.5 32.5q11 6 21 8.5t17 2.5q11 0 16 -3.5t2 -7.5q-16 -17 -33 -43.5t-31 -55.5
t-22.5 -55t-8.5 -44q0 -25 20 -25q19 0 49.5 17.5t64 44.5t62.5 53q4 4 7 4q5 0 6 -4.5t-2 -6.5q-35 -31 -76.5 -65t-82.5 -57t-75 -23z" />
    <glyph glyph-name="f_f_l" unicode="ffl" horiz-adv-x="772" 
d="M34 -89q-21 17 -29 39.5t-8 44.5q0 37 16.5 95t44.5 122q-2 -1 -4 -1q-5 0 -10.5 11.5t-5.5 24.5q0 14 9.5 28t37.5 21q6 2 16 4q32 60 69 109.5t74 74.5q23 16 48.5 23.5t50.5 7.5q30 0 59 -11t48 -32.5t19 -53.5v-1q0 -4 -3 -4t-5 5q-7 27 -27 38.5t-44 11.5
q-19 0 -38 -6t-33 -15q-36 -23 -72 -63.5t-65 -80.5q27 -2 48.5 -9t31.5 -15q14 -10 21 -21q4 -7 4 -12q0 -6 -5 -6q-3 0 -9 3q-18 12 -56 12q-16 0 -35 -2.5t-40 -8.5l-13 -19q-32 -47 -55 -96.5t-35 -93.5t-12 -76q0 -28 12 -43q3 -4 0 -5.5t-5 0.5zM273 -89
q-21 17 -29 39.5t-8 44.5q0 37 16.5 95t44.5 122q-2 -1 -4 -1q-5 0 -10.5 11.5t-5.5 24.5q0 14 9.5 28t37.5 21q6 2 16 4q32 60 69 109.5t74 74.5q23 16 48.5 23.5t50.5 7.5q30 0 59 -11t48 -32.5t19 -53.5v-1q0 -4 -3 -4t-5 5q-7 27 -27 38.5t-44 11.5q-19 0 -38 -6
t-33 -15q-36 -23 -72 -63.5t-65 -80.5q27 -2 48.5 -9t31.5 -15q14 -10 21 -21q4 -7 4 -12q0 -6 -5 -6q-3 0 -9 3q-18 12 -56 12q-16 0 -35 -2.5t-40 -8.5l-13 -19q-32 -47 -55 -96.5t-35 -93.5t-12 -76q0 -28 12 -43q3 -4 0 -5.5t-5 0.5zM570 -5q-40 0 -56 19.5t-16 45.5
q0 25 9.5 53t21.5 53q-13 -14 -25 -25.5t-20 -18.5q-4 -3 -8 -3q-5 0 -5 5t6 9q21 18 49 49t52 63q20 26 48 65t57 82.5t50 79.5q3 6 6.5 15t3.5 16q0 10 -8 10q-2 0 -11.5 -4t-18.5 -8t-11 -4q-8 0 1 9q16 12 40.5 23.5t50.5 19.5t44 8q42 0 42 -27q0 -14 -13 -37
q-11 -18 -32 -42.5t-46.5 -52t-49.5 -54t-40 -46.5q-4 -5 -19.5 -26t-35 -50.5t-39 -62t-32 -62t-12.5 -49.5q0 -27 26 -27q17 0 43 10q25 9 52.5 27.5t54 39.5t47 40t30.5 29q6 6 10 6t4 -5t-5 -10q-16 -17 -43.5 -44t-61 -54.5t-69.5 -46t-71 -18.5z" />
    <glyph glyph-name=".notdef" horiz-adv-x="437" 
d="M378 7h-320l-8 9v612h1l7 9h320l9 -9v-613zM71 618l148 -281l147 281h-295zM69 592v-540l141 270zM368 52v540l-141 -270zM72 25h293l-146 281z" />
    <glyph glyph-name=".null" 
 />
    <glyph glyph-name="nonmarkingreturn" horiz-adv-x="333" 
 />
    <glyph glyph-name="CR" unicode="&#xd;" 
 />
    <glyph glyph-name="space" unicode=" " horiz-adv-x="267" 
 />
    <glyph glyph-name="exclam" unicode="!" horiz-adv-x="260" 
d="M155 138q-18 8 -26 25t-8 40q0 32 11.5 70.5t30 77t38.5 71.5t38 52q41 44 70.5 59.5t48.5 15.5q17 0 24.5 -7t7.5 -12q0 -13 -16.5 -30t-39 -35t-40.5 -36q-27 -28 -53 -65.5t-47 -75.5t-33.5 -70.5t-12.5 -52.5q0 -18 11 -21q4 -1 4 -4q0 -5 -8 -2zM71 0q-13 0 -20 7
q-11 9 -11 25q0 23 18 42q21 24 48 24q11 0 20 -6q11 -9 11 -25q0 -22 -18 -42q-22 -25 -48 -25z" />
    <glyph glyph-name="quotedbl" unicode="&#x22;" horiz-adv-x="253" 
d="M222 343q-4 0 -4 4t4 8q35 42 49.5 80.5t19.5 66t10 36.5q7 11 15.5 15t26.5 4q17 0 25 -6.5t3 -17.5q-8 -20 -25 -46.5t-38 -54.5t-42 -51t-37 -35q-4 -3 -7 -3zM99 343q-4 0 -4 4t4 8q35 42 49.5 80.5t19.5 66t10 36.5q7 11 15.5 15t26.5 4q17 0 25 -6.5t3 -17.5
q-8 -20 -25 -46.5t-38 -54.5t-42 -51t-37 -35q-4 -3 -7 -3z" />
    <glyph glyph-name="numbersign" unicode="#" horiz-adv-x="712" 
d="M190 77q-9 0 -9 14q0 17 21.5 59.5t54.5 97.5q-33 1 -52.5 3t-21.5 4q-2 3 -12.5 13t-10.5 17q0 6 13 5q24 -1 51 -2.5t56 -2.5q21 35 44.5 71.5t46.5 71.5q-79 1 -132.5 3.5t-56.5 6.5q-2 3 -12.5 12.5t-10.5 16.5q0 6 13 5q46 -2 103.5 -4t118.5 -4q35 52 65 94.5
t50 68t24 25.5q2 0 11.5 2t17.5 2q10 0 10 -5q0 -3 -5 -10q-28 -37 -61.5 -82.5t-69.5 -95.5q23 0 45.5 -0.5t44.5 -0.5q23 0 45 0.5t43 0.5q35 52 65 95t50 68.5t24 25.5q2 0 11.5 2t17.5 2q10 0 10 -5q0 -3 -5 -10q-28 -36 -61.5 -81.5t-68.5 -95.5q19 1 37.5 1h36.5
q36 0 67.5 0.5t51.5 4.5q2 0 3 0.5t2 0.5q10 0 10 -8q0 -4 -5.5 -9.5t-17.5 -8.5q-17 -4 -49.5 -6t-73 -2.5t-83.5 -2.5q-27 -39 -53.5 -78t-50.5 -76q30 0 68.5 0.5t78 3t70.5 8.5q2 0 2.5 0.5t1.5 0.5q10 0 10 -8q0 -4 -5 -9.5t-17 -8.5q-25 -6 -65.5 -10.5t-84.5 -6.5
t-80 -3q-31 -48 -54.5 -90t-36.5 -71q-3 -9 -10 -9q-9 0 -9 14q0 7 3 16q8 22 27 58.5t45 80.5h-59h-66t-60 1q-31 -49 -54.5 -90.5t-36.5 -70.5q-3 -9 -10 -9zM496 280q23 37 47.5 76t49.5 76q-45 -1 -91 -2.5t-90 -1.5q-25 -36 -50 -72.5t-48 -71.5q44 -1 90 -2.5t92 -1.5
z" />
    <glyph glyph-name="dollar" unicode="$" horiz-adv-x="530" 
d="M117 -171q-4 0 -4 10q0 11 6 30q15 44 55 117q-30 0 -64.5 8.5t-62 28t-36.5 51.5q23 -21 64 -30t84 -9q11 0 22 0.5t21 1.5q19 33 40.5 69.5t43.5 73.5q-19 8 -39 22.5t-32.5 33t-9.5 39.5q5 40 30 67.5t61.5 46t77.5 30.5t78 20q27 39 45 62t22 23q2 0 4.5 0.5t4.5 0.5
q9 0 9 -6q0 -7 -11 -21q-10 -13 -19 -26t-19 -27q4 1 8 1h8q29 0 49.5 -11.5t17.5 -38.5q-1 -12 -16 -28.5t-36 -37t-41.5 -42.5t-33.5 -44.5t-12 -43.5q-11 8 -15.5 18.5t-4.5 22.5q0 23 14 48t27 41q16 20 35.5 37t39.5 30q-6 9 -21 9q-13 0 -29 -5.5t-30 -11.5
q-34 -48 -68 -100.5t-66 -105.5q5 -2 10.5 -5t11.5 -5q32 -16 48 -39t16 -47q0 -22 -14 -42.5t-40 -34.5q-21 -11 -50 -15.5t-56 -5.5t-42 -3q-22 -42 -40.5 -79t-31.5 -67q-5 -11 -9 -11zM294 192q27 47 59 96t57 89q-54 -23 -90 -52.5t-54.5 -55t-18.5 -38.5t13.5 -22
t33.5 -17zM228 40q8 1 16 2.5t15 4.5q16 5 38 16.5t39.5 28t17.5 33.5q0 19 -25 36q-3 2 -9 4.5t-14 5.5q-21 -34 -40 -66.5t-38 -64.5z" />
    <glyph glyph-name="percent" unicode="%" horiz-adv-x="703" 
d="M149 -144q-5 0 -5 12q0 9 6 27q10 29 33.5 76.5t56 106.5t69.5 122t74 122.5t69.5 108.5t55.5 80q-14 -8 -34 -8q-13 0 -28.5 4.5t-34.5 15.5q4 -9 4 -25q0 -22 -12 -49t-38 -56q-20 -22 -52.5 -42t-67.5 -33t-65 -13q-26 0 -43.5 13.5t-17.5 44.5q0 13 3 28
q5 22 21.5 48t38 49.5t37.5 36.5q22 18 52 30.5t60 12.5q27 0 48 -10q12 -7 18 -13q8 -3 23 -3q13 0 26 2t20 4q25 8 55.5 16.5t49.5 8.5q16 0 16 -9q0 -7 -10 -21q-42 -56 -91 -127t-99 -148.5t-95 -152.5t-80 -139.5t-54 -108.5q-5 -11 -9 -11zM176 322q26 0 62 18t68 53
q23 25 33 47t10 38q0 26 -18 34q-18 9 -38 9q-29 0 -56.5 -16.5t-50 -42.5t-35.5 -53.5t-13 -48.5q0 -25 18 -34q7 -4 20 -4zM463 22q-26 0 -43.5 13.5t-17.5 44.5q0 12 3 27q5 22 21.5 48t38 49.5t37.5 37.5q22 18 52 30.5t61 12.5q26 0 47 -10q36 -18 36 -61
q0 -22 -12 -49t-38 -55q-20 -22 -52.5 -42t-67.5 -33t-65 -13zM458 38q26 0 63 18t69 54q23 25 32.5 47t9.5 38q0 26 -17 34q-18 9 -38 9q-29 0 -57 -17t-50.5 -42.5t-35.5 -53t-13 -49.5q0 -25 18 -34q4 -1 9 -2.5t10 -1.5z" />
    <glyph glyph-name="ampersand" unicode="&#x26;" horiz-adv-x="743" 
d="M602 -127q-41 0 -91 19q-57 23 -97 61.5t-78 77.5q-22 -5 -40.5 -8t-32.5 -5q-27 -3 -51 -3q-91 0 -147.5 33.5t-56.5 85.5q0 41 38.5 88.5t126.5 96.5l62 32q10 43 31 95.5t66 106t126 97.5q41 23 77 33t66 10q48 0 75.5 -22.5t27.5 -56.5q0 -27 -19 -58.5t-62 -62.5
q-18 -13 -55 -33t-81 -41t-84.5 -40t-67 -31l-26.5 -12q-1 -8 -1.5 -17t-0.5 -17q0 -31 6 -61q50 25 100 40t97 22q22 4 44 6t43 2q45 0 76 -13.5t31 -50.5q0 -33 -28.5 -63t-75 -56t-100.5 -47t-106 -35q30 -42 68 -73.5t79 -48.5q28 -11 50.5 -16t38.5 -5q28 0 41 11
t13 26q0 24 -29 48.5t-82 24.5q-7 0 -14 -0.5t-15 -1.5h-3q-5 0 -5 2q0 3 5.5 7t12.5 5q14 2 27 3t25 1q59 0 86.5 -21.5t27.5 -49.5q0 -31 -31 -58t-87 -27zM315 383q18 7 53.5 21t79 33t87.5 42t78 48q42 30 61.5 56.5t19.5 45.5q0 35 -51 35q-25 0 -59.5 -10.5
t-78.5 -35.5q-87 -47 -132 -110t-58 -125zM217 34q25 0 53 3q13 2 26 3.5t26 4.5q-25 29 -44.5 60t-30.5 65q-16 -8 -29 -15t-22 -15q-5 -4 -7 -6t-2 0q0 13 13 28.5t36 32.5l2 1q-6 24 -8.5 48t-1.5 48l-34 -19q-55 -34 -88 -76t-33 -80q0 -35 34 -59t110 -24zM384 60
q43 10 85 31t76 47t54.5 51.5t20.5 43.5q0 13 -12.5 21t-39.5 8q-8 0 -18.5 -1t-22.5 -3q-41 -7 -97 -22t-109 -35q18 -78 63 -141z" />
    <glyph glyph-name="quotesingle" unicode="'" horiz-adv-x="200" 
d="M169 343q-4 0 -4 4t4 8q35 42 49.5 80.5t19.5 66t10 36.5q7 11 15.5 15t26.5 4q17 0 25 -6.5t3 -17.5q-8 -20 -25 -46.5t-38 -54.5t-42 -51t-37 -35q-4 -3 -7 -3z" />
    <glyph glyph-name="parenleft" unicode="(" horiz-adv-x="362" 
d="M215 -8q-30 0 -58.5 7t-39.5 26q-13 24 -13 67q0 45 13 104.5t39 124.5t64 128.5t88.5 117t111.5 88.5q12 6 21 6q11 0 11 -7t-13 -16q-45 -29 -86 -86t-72.5 -128.5t-50 -145t-18.5 -136.5q0 -31 5 -57.5t15 -47.5q8 -15 39 -20q4 -1 9 -7.5t-2 -9.5q-8 -4 -25.5 -6
t-37.5 -2z" />
    <glyph glyph-name="parenright" unicode=")" horiz-adv-x="362" 
d="M32 -44q-11 0 -11 7t13 16q45 30 86 87t72.5 128t50 145t18.5 137q0 30 -4.5 56.5t-15.5 47.5q-3 7 -14 12.5t-25 7.5q-4 1 -9 8t2 9q22 9 64 9q29 0 57.5 -7t39.5 -27q13 -24 13 -67q0 -44 -13 -103.5t-39 -124.5t-64 -128.5t-88 -117t-112 -88.5q-11 -7 -21 -7z" />
    <glyph glyph-name="asterisk" unicode="*" horiz-adv-x="534" 
d="M266 185q-4 0 -6.5 3.5t0.5 9.5q21 53 31.5 95t20.5 86q-80 -18 -123.5 -20.5t-61.5 -3.5q-13 0 -13 10q0 7 9 8q56 11 96.5 24t82.5 27q-58 56 -83.5 90t-36.5 48q-3 5 -3 8q0 10 8 10q4 0 7 -4q40 -41 73.5 -67.5t69.5 -53.5q48 84 79 122t44 52q4 5 10 5q5 0 7.5 -4
t-1.5 -10q-33 -50 -55 -90t-37 -87q53 8 86.5 11t55.5 3t34 -1.5t21 -2.5q10 -1 10 -10q0 -8 -8 -8q-56 -5 -96.5 -11.5t-91.5 -19.5q28 -17 57 -39.5t51.5 -42t30.5 -27.5q5 -5 5 -10t-4.5 -7.5t-9.5 1.5q-48 33 -86.5 53t-79.5 39q-29 -83 -50.5 -123t-31.5 -56
q-4 -7 -11 -7z" />
    <glyph glyph-name="plus" unicode="+" horiz-adv-x="515" 
d="M221 6q-4 0 -8 3.5t-3 8.5q3 39 17 81t35 83q-33 -4 -64 -9l-62 -10h-1q-6 0 -6 15q0 12 4 25t11 14q38 4 73.5 5.5t67.5 1.5q21 35 45 65.5t48 54.5q5 5 19 5q11 0 20.5 -3t4.5 -8q-22 -22 -47 -51.5t-49 -62.5q50 -1 88 -5.5t57 -9.5q7 -1 7 -9q0 -5 -4.5 -10.5
t-11.5 -4.5q-45 3 -83 3q-41 0 -79 -3q-28 -43 -47 -86.5t-22 -82.5q0 -10 -10 -10z" />
    <glyph glyph-name="comma" unicode="," horiz-adv-x="207" 
d="M-33 -100q-4 0 -5 6.5t3 7.5q30 3 56 22t42 43.5t16 43.5q-7 -10 -19.5 -17t-24.5 -7q-14 0 -23 9q-8 7 -8 20q0 11 6 23.5t18 22.5q22 24 53 24q10 0 19 -4t14 -14q5 -7 5 -21q0 -21 -12.5 -47.5t-33.5 -51t-48.5 -41.5t-57.5 -19z" />
    <glyph glyph-name="hyphen" unicode="-" horiz-adv-x="438" 
d="M135 163q-6 0 -6 15q0 12 4 25t11 14q41 4 74.5 5.5t58.5 1.5q46 0 72.5 -3t39.5 -5q12 -2 12 -11q0 -7 -10 -7q-52 -1 -92 -6.5t-78 -13t-85 -15.5h-1z" />
    <glyph glyph-name="period" unicode="." horiz-adv-x="202" 
d="M48 0q-13 0 -20 7q-11 9 -11 25q0 23 18 42q21 24 48 24q11 0 20 -6q11 -9 11 -25q0 -22 -18 -42q-22 -25 -48 -25z" />
    <glyph glyph-name="slash" unicode="/" horiz-adv-x="405" 
d="M56 -122q-12 0 -12 18q0 4 1.5 9t2.5 10q10 29 37 79.5t65 113.5t81 130t85 130t78 113.5t59 80t28 29.5q3 0 14.5 2.5t21.5 2.5q13 0 13 -7q0 -4 -6 -12q-43 -55 -95.5 -127.5t-107.5 -151.5t-105.5 -156t-89 -143t-57.5 -110q-5 -11 -13 -11z" />
    <glyph glyph-name="zero" unicode="0" horiz-adv-x="553" 
d="M180 -19q-53 0 -85 28.5t-32 74.5q0 50 23 103t63 102t90 87.5t104 61.5t106 23q61 0 102.5 -30t41.5 -98q0 -43 -24.5 -91.5t-66.5 -94.5t-95 -83.5t-111.5 -60t-115.5 -22.5zM181 6q38 0 80.5 16.5t83.5 45.5t74 67t53 80.5t20 85.5q0 38 -27 59t-75 21
q-40 0 -82.5 -17.5t-82 -48t-70.5 -68.5t-49 -79.5t-18 -81.5q0 -36 24.5 -58t68.5 -22z" />
    <glyph glyph-name="one" unicode="1" horiz-adv-x="343" 
d="M193 -6q-28 4 -44.5 16.5t-23.5 24.5q-6 12 -6 24q0 17 11 47q19 52 52 113.5t75 116.5q-19 -13 -46.5 -29.5t-54.5 -31.5t-47 -26q-5 -4 -10 -4t-5 5q0 9 16 19q20 11 50 33.5l66 49.5t73 52t71.5 41t60.5 16q16 0 29 -8q3 -2 5 -7t-6 -4q-23 2 -48.5 -23t-51 -67.5
t-50 -94t-46.5 -102.5t-40 -94t-30 -67z" />
    <glyph glyph-name="two" unicode="2" horiz-adv-x="606" 
d="M552 -31q-6 0 -3 8q6 20 -26 34.5t-85.5 22t-114.5 7.5q-40 0 -79 -3t-74 -11q-24 -5 -50.5 -14.5t-51 -16.5t-42.5 -7q-12 0 -19 4t-7 18t12.5 32.5t47 37t99.5 30.5q19 4 28 6t26 10q59 26 118.5 52t115.5 57q43 24 61 50.5t18 51.5q0 32 -23.5 55t-58.5 28
q-13 2 -26 3t-26 1q-59 0 -106 -15.5t-74.5 -36.5t-27.5 -36q0 -17 34 -17q24 0 64 10q39 10 68 24t48 33q3 3 4 3.5t2 -3.5q1 -3 1 -8q0 -15 -14 -28.5t-34 -25.5t-38.5 -19.5t-28.5 -10.5q-29 -7 -53 -10.5t-42 -3.5q-34 0 -50 9.5t-16 24.5q0 22 27 47q20 18 54 35.5
t77 32t89 23t89 8.5q50 0 91.5 -14t60.5 -49q11 -19 11 -40q0 -30 -23.5 -63.5t-73.5 -65.5q-55 -35 -128 -61.5t-140 -49.5q48 -1 100 -8t96.5 -22t72 -39t27.5 -58v-6t-1 -7q-1 -9 -6 -9z" />
    <glyph glyph-name="three" unicode="3" horiz-adv-x="581" 
d="M129 -86q-56 0 -96 17t-47 60q-1 3 -1 6v6q0 28 19 50.5t48.5 40t61.5 30.5q33 14 81.5 19.5t91.5 5.5q49 0 73 -6q15 -4 15 -11q0 -5 -20 -5q-13 0 -42 -4.5t-67 -13t-77.5 -20t-73.5 -25.5q-46 -19 -67 -37.5t-21 -34.5q0 -20 31.5 -33.5t79.5 -13.5q26 0 69 10
t92 28.5t92.5 42.5t71.5 52.5t28 59.5q0 32 -36 62q-21 17 -46.5 26.5t-52.5 11.5q-13 1 -21.5 6t-8.5 10q0 7 12 13.5t40 7.5q25 2 54.5 10t51.5 26t22 49q0 29 -26 51.5t-81 22.5q-16 0 -35 -3t-40 -8q-34 -8 -53.5 -23.5t-19.5 -29.5q0 -13 16 -20q13 -6 26 -11.5
t32 -7.5q6 0 6 -6q0 -5 -9 -5q-28 -1 -57 4.5t-43 11.5q-12 5 -17 13t-5 16q0 18 17.5 33.5t44.5 27t55 17.5q22 5 63 11t84 6q35 0 66 -6.5t50 -22.5t19 -46q0 -21 -20.5 -44.5t-50.5 -43t-59 -29.5q9 -1 32 -6t39 -18q19 -15 28 -35t9 -43q0 -49 -40 -101.5t-112 -86.5
q-35 -16 -82 -31t-97.5 -24t-96.5 -9z" />
    <glyph glyph-name="four" unicode="4" horiz-adv-x="496" 
d="M310 -17q-28 0 -49 11.5t-31 33.5q-8 19 -8 40q0 23 7.5 47.5t18.5 49.5q-14 -1 -28.5 -3t-28.5 -4q-30 -5 -55 -13.5t-45 -8.5q-26 0 -29 10q-2 2 -2 4q0 10 11 21q15 15 32 27.5t34 25.5q30 22 71.5 54.5t87.5 67.5t90.5 65.5t82.5 49.5t63 19q14 0 20 -5q3 -2 5 -7
t-6 -4q-23 2 -49 -20t-52.5 -60t-50.5 -83.5t-44 -89.5q59 -4 101 -21.5t42 -52.5q0 -3 -0.5 -6t-1.5 -7q-1 -7 -6 -6.5t-3 5.5q6 15 -13.5 25t-55.5 15.5t-81 5.5q-13 -34 -22.5 -61.5t-11.5 -42.5q-1 -5 -1.5 -9.5t-0.5 -9.5q0 -18 7 -32.5t23 -22.5q4 -1 1 -3.5t-5 -3.5
q-4 -1 -8.5 -1h-8.5zM137 194q26 7 61 11.5t72 6.5q12 22 23.5 41t20.5 34q12 20 23.5 39.5t25.5 37.5q-10 -7 -35.5 -26t-58.5 -44t-67.5 -51.5t-64.5 -48.5z" />
    <glyph glyph-name="five" unicode="5" horiz-adv-x="540" 
d="M141 -34q-52 0 -88 16t-36 57q0 24 16.5 43.5t42.5 35t53 26.5q29 11 72.5 16.5t80.5 5.5q38 0 60 -5q14 -3 14 -10q0 -4 -16 -4q-10 0 -35.5 -4t-59 -11t-68 -17.5t-64.5 -22.5q-40 -16 -57.5 -32t-17.5 -30q0 -20 34 -33t83 -13q40 0 84.5 9.5t85.5 30.5q60 31 87 61.5
t27 58.5q0 33 -36 63q-21 17 -72 30.5t-121 12.5q-5 -5 -10 -11t-10 -11q-6 -7 -17 -7q-6 0 -11 3t-5 8q0 6 8 13q28 24 69.5 62.5t76.5 76.5q-13 11 -18 23t-5 21q0 18 8 22q5 4 15 4q19 0 44.5 -11t47.5 -16q17 -4 37.5 -6t41.5 -2q45 0 87 7.5t69.5 21.5t27.5 32
q0 6 3.5 8t3.5 -7q-1 -35 -26.5 -60t-63.5 -40.5t-80 -23t-76 -7.5q-13 0 -24 1.5t-20 2.5q-32 6 -54 18q-20 -22 -44 -45t-48 -49q23 5 51 8t56 3q41 0 79 -8t64 -29q36 -29 36 -70q0 -43 -39 -89t-103 -76q-22 -10 -62 -22t-87 -20.5t-91 -8.5z" />
    <glyph glyph-name="six" unicode="6" horiz-adv-x="496" 
d="M184 -6q-54 0 -82.5 28.5t-28.5 78.5q0 23 5.5 49t17.5 55q24 60 67.5 114.5t100.5 99t121.5 74.5t131.5 41q2 0 4.5 0.5t3.5 0.5q17 0 17 -8q0 -6 -14 -9q-44 -10 -99.5 -45.5t-110.5 -88.5t-100 -115t-69 -126q-18 -49 -18 -77q0 -23 10.5 -33t26.5 -10q17 0 37 7.5
t40 19.5q43 26 71 55q59 61 85 103t26 61q0 16 -16 16t-44 -15t-58.5 -37.5t-56.5 -45.5t-38 -40q-9 -12 -17 -12q-5 0 -5 5q0 9 13 23q35 41 72.5 70t71.5 48q32 18 59.5 26.5t48.5 8.5q30 0 46 -15.5t16 -41.5q0 -31 -23 -73t-73 -89q-32 -31 -73.5 -54t-84.5 -36t-81 -13
z" />
    <glyph glyph-name="seven" unicode="7" horiz-adv-x="367" 
d="M199 -21q-34 0 -51 18.5t-17 43.5q0 15 6 30q9 23 32.5 54t55 64.5t65 66t62.5 60t47 45.5q-14 -8 -36 -10t-53 -2q-36 0 -73 10.5t-58 31.5q-4 -10 -13.5 -26.5t-20 -32t-19.5 -23.5q-5 -4 -10 -4q-4 0 -6 3.5t3 8.5q12 11 22 29.5t16 39.5t6 36q0 22 4.5 30t10.5 8
q7 0 12.5 -6t6.5 -10q0 -8 -1.5 -12.5t-2.5 -11.5q11 -5 29.5 -7t40.5 -2q41 0 89 5t88.5 10t59.5 5q11 0 19.5 -2t11.5 -9q-19 2 -40 -11.5t-39.5 -32t-30.5 -31.5q-19 -21 -50 -58t-63.5 -79.5t-58 -81.5t-35.5 -65q-9 -21 -9 -40q0 -24 19 -34l2 -2q0 -2 -2.5 -3.5
t-4.5 -1.5q-4 -1 -7 -1h-7z" />
    <glyph glyph-name="eight" unicode="8" horiz-adv-x="480" 
d="M200 -18q-43 0 -81 7t-61 23t-23 41q0 21 15.5 42t39 40t47 33.5t39.5 23.5t35 19t40 21q-22 8 -43.5 18.5t-35 24.5t-11.5 33q4 36 30.5 65.5t67.5 51t87.5 33t90.5 11.5q32 0 59 -6.5t46 -20.5q4 -3 7 -6q14 17 22.5 33.5t9.5 31.5q0 13 9 13q11 0 9 -15
q-1 -20 -11 -40.5t-26 -42.5q2 -7 2 -15q0 -14 -7 -29q-4 -8 -9 -8q-3 0 -3 9q1 12 -2 21q-41 -46 -99.5 -90.5t-112.5 -81.5q48 -17 75.5 -43t27.5 -55q0 -34 -25 -60t-63 -44.5t-77.5 -28t-68.5 -9.5zM255 290q0 -24 24 -42q44 24 90 51.5t87.5 56.5t71.5 58q-2 2 -5 3
q-20 10 -50 10q-35 0 -74 -13t-72.5 -33.5t-52.5 -44.5t-19 -46zM139 41q0 -20 18.5 -30t49.5 -10q52 0 96 16.5t71.5 43.5t27.5 57q0 24 -20.5 48t-68.5 44q-23 -16 -43.5 -30t-35.5 -25q-51 -37 -73 -65.5t-22 -48.5z" />
    <glyph glyph-name="nine" unicode="9" horiz-adv-x="494" 
d="M254 -198q-34 5 -47.5 22t-13.5 40q0 28 13 60.5t29 62t25 47.5q23 46 51 92t55 88q-22 -23 -44.5 -41t-44.5 -32q-53 -31 -93 -31q-37 0 -57.5 22.5t-20.5 56.5q0 36 23 82t64 89t96 71t119 28q21 0 40 -4t35 -14q31 -19 44 -42.5t13 -49.5q0 -31 -15.5 -64.5
t-36.5 -63.5q-8 -11 -29 -36.5l-49 -59.5t-57.5 -73t-55 -77.5t-41.5 -72.5t-16 -58q0 -25 19 -35q2 0 2 -2q0 -1 -2.5 -3t-4.5 -2zM217 138q20 0 59.5 25t91.5 78q32 32 60 60.5t49 71.5q8 18 8 27q0 12 -8.5 17.5t-22.5 5.5q-50 0 -96 -25.5t-82.5 -65.5t-58 -83.5
t-21.5 -78.5q0 -18 5.5 -25t15.5 -7z" />
    <glyph glyph-name="colon" unicode=":" horiz-adv-x="222" 
d="M145 167q-13 0 -21 7q-11 9 -11 25q0 21 19 42q21 24 48 24q11 0 20 -6q10 -9 10 -25q0 -22 -18 -42q-22 -25 -47 -25zM54 0q-13 0 -21 7q-11 9 -11 25q0 23 18 42q21 24 48 24q11 0 20 -6q11 -9 11 -25q0 -22 -18 -42q-22 -25 -47 -25z" />
    <glyph glyph-name="semicolon" unicode=";" horiz-adv-x="227" 
d="M145 167q-13 0 -21 7q-11 9 -11 25q0 21 19 42q21 24 48 24q11 0 20 -6q10 -9 10 -25q0 -22 -18 -42q-22 -25 -47 -25zM-23 -101q-5 0 -5.5 3t3.5 4q30 3 56 21.5t43.5 46t21.5 55.5l-4 -4q-25 -25 -51 -25q-13 0 -20 7q-8 8 -8 19q0 25 25 48q23 23 53 23q10 0 19 -4
t14 -14t5 -21q0 -21 -12.5 -47.5t-33.5 -51t-48.5 -41.5t-57.5 -19z" />
    <glyph glyph-name="less" unicode="&#x3c;" horiz-adv-x="294" 
d="M207 22q-1 0 -1 1q0 3 5 11q8 13 8 29q0 26 -16.5 54.5t-43 48.5t-55.5 20q-23 0 -23 3t14 12q10 7 23 13q27 17 58.5 38.5t60.5 44t50.5 44t29.5 38.5q2 5 10.5 8.5t14.5 3.5q9 0 6 -6q-11 -25 -39.5 -53t-66 -55.5t-76.5 -51.5q17 -7 37.5 -26.5t35.5 -46t15 -54.5
q0 -30 -23 -56q-17 -20 -24 -20z" />
    <glyph glyph-name="equal" unicode="=" horiz-adv-x="461" 
d="M154 179q-6 0 -6 15q0 12 4 25t11 14q40 4 72.5 5.5t57.5 1.5q47 0 74.5 -3t40.5 -5q12 -2 12 -11q0 -8 -10 -8q-52 -1 -92 -6.5t-78 -13t-85 -14.5h-1zM118 65q-6 0 -6 15q0 12 4 25t11 14q40 4 72.5 5.5t58.5 1.5q47 0 74.5 -3t40.5 -5q11 -2 11 -11q0 -8 -10 -8
q-51 -1 -91 -6.5t-78 -13t-86 -14.5h-1z" />
    <glyph glyph-name="greater" unicode="&#x3e;" horiz-adv-x="294" 
d="M45 14q-9 0 -6 6q12 24 40.5 52t66 55.5t76.5 51.5q-17 7 -37.5 27t-35.5 46.5t-15 54.5q0 30 23 56q17 20 24 20q1 0 1 -1q0 -3 -5 -11q-8 -13 -8 -29q0 -25 16.5 -54t43 -49t55.5 -20q23 0 23 -4q0 -3 -15 -12q-9 -6 -22 -12q-27 -17 -58.5 -38.5t-60.5 -44.5
t-50.5 -44.5t-29.5 -37.5q-2 -5 -10.5 -8.5t-15.5 -3.5z" />
    <glyph glyph-name="question" unicode="?" horiz-adv-x="520" 
d="M285 159q-12 12 -12 25q0 16 12 32.5t29 32t33 27t24 16.5q47 33 92.5 67.5t90.5 68.5q38 35 54.5 62.5t16.5 47.5q0 32 -34 47t-84 15q-38 0 -80.5 -8.5t-80.5 -23.5q-30 -13 -55 -25.5t-41 -21.5q-50 -31 -76 -57t-26 -42q0 -17 28 -17q18 0 48 8.5t73 27.5
q36 16 73 37t66 43.5t40 41.5q2 5 3 6t4 -4q3 -4 3 -9q0 -13 -13 -31q-28 -40 -64.5 -76t-84.5 -57q-38 -17 -70.5 -25t-57.5 -8q-33 0 -51.5 12.5t-18.5 34.5q0 26 29 61.5t92 74.5q18 11 43 23.5t53 23.5q22 9 58.5 22.5t79.5 24t83 10.5q38 0 68.5 -13.5t44.5 -47.5
q10 -23 10 -46q0 -37 -23 -70t-61 -62.5t-82.5 -56.5t-87.5 -50.5t-77 -45.5t-51 -42q-14 -15 -14 -27q0 -6 6 -12q3 -3 3 -7q0 -5 -5 -8t-10 1zM202 0q-13 0 -21 7q-11 9 -11 25q0 21 19 42q21 24 48 24q11 0 20 -6q10 -9 10 -25q0 -22 -18 -42q-22 -25 -47 -25z" />
    <glyph glyph-name="at" unicode="@" horiz-adv-x="626" 
d="M281 -13q-71 0 -118 26.5t-70 70t-23 93.5q0 45 17.5 91t52 86.5t85.5 67.5q41 22 90 33.5t97 11.5q51 0 95 -13t70.5 -40t26.5 -69q0 -27 -13 -59q-11 -28 -28.5 -49t-30.5 -33q-21 -20 -41.5 -38.5t-41.5 -29.5q-20 -10 -39 -10q-25 0 -40 17t-15 42q0 4 0.5 8t1.5 8
l3 13q-14 -25 -30 -41t-33 -28q-29 -20 -55 -20q-28 0 -46.5 21.5t-18.5 54.5q0 40 28 81q20 29 55 47t71 18q14 0 26.5 -2.5t24.5 -9.5q16 -8 24 -15.5t14 -16.5q9 0 24 -6t15 -20q0 -8 -4 -15t-13.5 -22.5t-17.5 -32.5q-4 -11 -7 -20.5t-3 -17.5q0 -20 16 -20q13 0 35 15
q20 13 45 36t43 52.5t18 60.5q0 38 -28.5 65.5t-74 42.5t-96.5 15q-36 0 -71 -8t-65 -25q-67 -39 -99.5 -91t-32.5 -102q0 -44 23 -82t67.5 -60.5t107.5 -22.5q10 0 20 0.5t20 1.5q73 9 130.5 42.5t97.5 80t61 94.5t21 86q0 51 -34 66q-4 1 -4 4q0 2 2.5 4t6.5 0
q23 -10 34 -31.5t11 -50.5q0 -37 -17 -82t-48.5 -90.5t-75 -84.5t-97.5 -65t-116 -31q-9 -1 -17 -1.5t-16 -0.5zM263 146q14 0 35.5 16.5t46.5 50.5q4 5 16.5 21t24 35t11.5 33q0 9 -7 15t-24 6q-21 0 -45 -17t-44 -49q-17 -29 -25 -51t-8 -36q0 -24 19 -24z" />
    <glyph glyph-name="A" unicode="A" horiz-adv-x="1030" 
d="M199 -40q-62 0 -109 13t-67 29q-50 39 -50 90q0 43 37.5 86.5t114.5 80t194 57.5q50 9 101.5 14t103.5 5q44 0 88.5 -4t87.5 -13q14 -3 32 -7.5t37 -10.5q83 85 162 169t153 142q52 41 97 56t80 15q41 0 67.5 -12.5t34.5 -20.5q3 -3 0 -6t-6 0q-5 6 -24 13t-49 7
q-37 0 -87 -17t-111 -64q-75 -59 -148.5 -135.5t-149.5 -153.5q39 -14 71.5 -38t37.5 -59v-4q0 -4 -2 -4q-3 0 -6 6q-4 11 -22.5 19t-42.5 13t-46 8t-33 4l-11 1q-83 -80 -171.5 -147.5t-187.5 -101.5q-47 -16 -91.5 -23t-84.5 -7zM972 -89q-45 32 -66 77t-21 97t18 104
q18 53 52.5 110t75.5 111.5t79.5 100t65 75.5t31.5 37q6 8 9 8q4 0 6 -6.5t2 -14.5q0 -16 -5 -23q-26 -33 -62 -84t-73 -113.5t-69 -128.5t-51.5 -129t-19.5 -115q0 -30 8 -55t26 -44q1 -1 1 -3t-2 -4t-5 0zM202 -23q37 0 80 6.5t89 20.5q86 27 171 92t167 145q-13 1 -26 1
h-27q-70 0 -145.5 -7t-143.5 -20q-110 -19 -179.5 -47.5t-102 -59.5t-32.5 -59q0 -27 27 -47q14 -10 46 -17.5t76 -7.5z" />
    <glyph glyph-name="B" unicode="B" horiz-adv-x="643" 
d="M222 -51q-60 0 -96.5 10t-56.5 23.5t-31 21.5q-12 11 -12 14q0 1 2 1q4 0 9.5 -1.5t8.5 -3.5q35 -12 60.5 -12.5t52.5 -0.5q33 0 80 6t98.5 20t95.5 39q59 33 90.5 78t31.5 86q0 44 -39 75t-123 31h-17t-19 -1q-40 -3 -85.5 -14.5t-82 -29t-51.5 -39.5q-25 -36 -41 -63.5
t-28 -51.5t-27 -51q-5 -14 -17 -14q-6 0 -6 8q0 5 1 8q6 23 28.5 64t55.5 92t69.5 102t69.5 94t56 69.5t29 26.5t10 -6t3 -11l-13 -16t-32.5 -41t-41 -52t-38.5 -48.5t-25 -31.5q89 15 178.5 36t170.5 63q50 26 78.5 56.5t28.5 55.5q0 26 -33 43.5t-107 17.5q-30 0 -74 -7
t-94.5 -19t-100 -28.5t-90 -35.5t-64.5 -39q-17 -13 -11 -23q2 -3 2 -6q0 -2 -3 -1.5t-6 2.5q-16 10 -24 26t-8 29q0 5 1.5 9t2.5 7q19 28 61 52t95.5 43.5t109.5 34t104 22t78 7.5q105 0 161.5 -28.5t56.5 -72.5q0 -36 -39 -78t-121 -83q-40 -21 -86 -36t-92 -26
q19 2 36.5 3t33.5 1q111 0 161 -36.5t50 -89.5q0 -38 -24 -80.5t-67.5 -82t-104.5 -69.5q-43 -21 -87 -31t-81 -13.5t-61 -3.5z" />
    <glyph glyph-name="C" unicode="C" horiz-adv-x="719" 
d="M290 -39q-48 0 -95 11.5t-86 36.5t-62 64t-23 94q0 52 21 100t54.5 90t69.5 75q51 46 116 89t138.5 77t148.5 54t144 20q30 0 65.5 -9t61 -30t25.5 -59q0 -34 -23 -67t-61 -62t-84 -53.5t-93.5 -43t-89.5 -29.5t-71 -14q-7 -1 -14 -1h-14q-6 0 -25 1.5t-36 6.5t-17 15
q0 5 6 5q4 0 10 -2t15 -2q24 0 62 12t82.5 32.5t88.5 46.5t81 55t59 58t22 55q0 24 -17 35.5t-40 15.5t-40 4q-63 0 -129.5 -19t-131 -51.5t-122 -72.5t-102.5 -82q-31 -29 -61.5 -66.5t-50.5 -80t-20 -87.5q0 -50 24 -84t62.5 -54.5t83.5 -29.5t86 -9q26 0 52 2.5t51 6.5
q67 12 122.5 29t106.5 44t104 70q4 2 5 2q5 0 5 -6q0 -3 -4 -9q-39 -42 -94.5 -76t-118.5 -58t-127 -37t-120 -13z" />
    <glyph glyph-name="D" unicode="D" horiz-adv-x="843" 
d="M250 -52q-89 0 -158 21.5t-93 68.5q-5 10 -5 13q0 2 2 2q4 0 14 -7q38 -26 97 -34t118 -8q57 0 123.5 10t134 29.5t131.5 49.5t117 70q83 63 121 122t38 111q0 57 -42 101t-116.5 68.5t-174.5 24.5q-36 0 -74 -3q-64 -6 -127.5 -21.5t-121 -38.5t-102.5 -50t-70.5 -55.5
t-25.5 -55.5q0 -17 12 -34q3 -3 3 -8q0 -4 -3 -5.5t-8 2.5q-9 10 -17 31.5t-8 48.5t12.5 56.5t44.5 54.5q38 30 94 56.5t122.5 46.5t137 31t139.5 11q119 0 195.5 -35.5t113.5 -94t37 -128.5q0 -64 -30.5 -131t-89 -127t-144.5 -104q-55 -27 -122 -47t-138 -31t-137 -11z
M149 83q-7 0 -7 14t15.5 46t41.5 74t57.5 88.5t63.5 91t60 81t47.5 58t24.5 21.5h9q11 0 11 -5t-8 -13q-34 -37 -71.5 -84t-74.5 -98.5t-69.5 -101.5t-56.5 -93t-35 -72q-3 -7 -8 -7z" />
    <glyph glyph-name="E" unicode="E" horiz-adv-x="719" 
d="M267 -46q-80 0 -136 25.5t-85.5 70.5t-29.5 103q0 56 29 119.5t90 129.5q45 49 101 91.5t114.5 77.5t115 59t103.5 35q26 6 52.5 9.5t51.5 3.5q43 0 79 -11t58 -35t22 -63q0 -22 -7.5 -43t-12.5 -32q-3 -6 -6 -6q-2 0 -3 3.5t1 7.5q9 20 9 35q0 25 -21.5 36.5t-58.5 11.5
q-42 0 -99 -13t-120.5 -36t-126.5 -53t-118.5 -65.5t-95.5 -72.5q-66 -61 -96.5 -114.5t-30.5 -95.5q0 -63 59 -99t158 -36q26 0 54 3t58 8q71 13 144.5 38.5t141 62t123 81t90.5 94.5q10 13 12 13q1 0 1 -3v-4.5t-2 -7.5q-10 -29 -43 -65t-83 -73.5t-111 -72.5t-128 -62.5
t-134 -41.5q-62 -13 -119 -13zM205 282q-11 0 -18 4q-4 2 -8 7.5t-4 13.5q0 12 17.5 26t71.5 24q18 3 40 5t46 2q42 0 85.5 -5.5t79 -17.5t52.5 -31q6 -7 6 -14q0 -8 -8 -8q-6 0 -14 5q-17 12 -46.5 18t-67.5 6q-67 0 -147 -17q-25 -5 -47 -11.5t-38 -6.5z" />
    <glyph glyph-name="F" unicode="F" horiz-adv-x="668" 
d="M425 -83q-23 0 -32.5 15.5t-9.5 34.5q0 25 12 47q26 48 65 100.5t81.5 105t77.5 99.5q-24 3 -51 3q-68 0 -148 -17q-25 -5 -46.5 -11.5t-38.5 -6.5q-11 0 -18 4q-3 2 -7.5 7.5t-4.5 13.5q0 11 18 25.5t71 24.5q35 6 84 6q41 0 84.5 -5t77.5 -16q38 53 55 92.5t17 67.5
q0 45 -37.5 63t-95.5 18q-37 0 -79.5 -5.5t-86.5 -15.5q-9 -2 -40 -9.5t-73.5 -19t-87.5 -26.5t-84.5 -32t-64 -35.5t-24.5 -37.5q0 -16 22 -31q2 -2 2 -3q0 -2 -5 -2q-6 0 -11 3q-29 20 -29 58q0 28 19 59t59 53q51 29 114 52.5t130.5 40t132.5 25t121 8.5q74 0 116.5 -15
t60.5 -41t18 -58q0 -43 -25.5 -91t-56.5 -86q-8 -10 -17 -21t-20 -23q15 -8 27 -20q7 -9 7 -15q0 -7 -8 -7q-6 0 -14 5q-7 5 -14.5 8t-16.5 6q-28 -34 -60 -71.5t-61 -73.5t-52 -67q-13 -18 -29 -40t-27.5 -46t-11.5 -49q0 -14 5 -25t20 -11q7 0 16 3l4 1q4 0 4 -3
q0 -5 -8 -8q-17 -5 -26 -5z" />
    <glyph glyph-name="G" unicode="G" horiz-adv-x="912" 
d="M416 -241q-49 0 -90.5 14.5t-69 46.5t-35.5 84v3q0 5 3 5q5 0 7 -7q11 -57 55 -93t101 -36q40 0 77 16.5t70 42.5t61.5 55.5t52.5 54.5q56 62 101.5 129t71.5 123q-34 -35 -83.5 -71t-108.5 -69t-123.5 -58.5t-128.5 -39.5q-32 -7 -62 -10.5t-57 -3.5q-80 0 -136 26
t-85.5 71t-29.5 102q0 56 29 120t90 130q45 49 101 91.5t114.5 77t115 58.5t103.5 35q26 6 53 9.5t52 3.5q43 0 78.5 -11t57.5 -35t22 -63q0 -22 -7.5 -43t-12.5 -32q-3 -6 -6 -6q-2 0 -3 4t1 8q9 20 9 34q0 25 -21.5 36.5t-58.5 11.5q-42 0 -99 -13t-120.5 -36t-126.5 -53
t-118.5 -65.5t-95.5 -72.5q-66 -61 -96.5 -114.5t-30.5 -95.5q0 -63 59 -98.5t159 -35.5q26 0 53.5 2.5t57.5 7.5q87 16 177 50.5t168 84.5t129 109q4 11 7 21.5t3 20.5q0 13 -12 13q-16 0 -35 -16q-8 -7 -15 -7q-5 0 -5 5q0 8 10 17q33 24 64 24q26 0 42 -18q10 -11 10 -34
q0 -29 -16.5 -70t-42 -86.5t-55 -88t-55.5 -76.5t-42 -51q-55 -58 -128.5 -98t-153.5 -40z" />
    <glyph glyph-name="H" unicode="H" horiz-adv-x="812" 
d="M638 -23q-5 0 -5 11q0 10 6 28q10 29 35.5 78t60 109t74 124t78 123.5t71 107.5t54 76t26.5 28h9q9 0 9 -6t-11 -20q-42 -55 -89 -123.5t-93.5 -141.5t-88.5 -144t-75 -133t-52 -106q-5 -11 -9 -11zM216 -144q-5 0 -5 11q0 10 6 28q10 29 36.5 79.5t63.5 113t77 128.5
q-22 -3 -43.5 -6t-41.5 -7q-129 -22 -188.5 -61.5t-59.5 -72.5q0 -20 19 -35q2 -2 2 -3t-4 -1q-6 0 -9 3q-43 32 -43 78q0 33 25.5 66t80 60.5t140.5 42.5q42 8 85.5 12t86.5 3q35 55 68 104t59.5 87.5t44 60.5t21.5 22h9q9 0 9 -6t-11 -20q-38 -51 -83 -115.5t-90 -133.5
q47 -3 93 -12q18 -4 42 -11t47.5 -17.5t40.5 -26.5t20 -38q1 -7 -1.5 -6.5t-4.5 4.5q-4 12 -26.5 19t-47 10.5t-36.5 4.5q-31 3 -65 3q-55 0 -111 -6q-43 -68 -82 -133.5t-68.5 -121.5t-46.5 -96q-5 -11 -9 -11z" />
    <glyph glyph-name="I" unicode="I" horiz-adv-x="595" 
d="M133 374q-6 0 -10 4q-18 12 -29.5 33.5t-11.5 46.5t14 50t47 44q53 31 123.5 52.5t145 33.5t140.5 12q26 0 61.5 -5t69 -18t55.5 -35.5t22 -57.5v-7.5t-1 -7.5q0 -9 -5 -9q-3 0 -3 5q0 3 0.5 6t0.5 6q0 29 -43.5 42t-109.5 13q-57 0 -124 -8.5t-132.5 -23.5t-119.5 -34.5
t-86.5 -43t-32.5 -48.5q0 -23 32 -45q2 -1 2 -3t-5 -2zM216 -144q-5 0 -5 11q0 10 6 28q7 19 20.5 47t32.5 63q-25 -2 -48 -6.5t-44 -10.5q-24 -6 -50.5 -17.5t-51 -21t-42.5 -9.5q-13 0 -19 5q-7 5 -7 22q0 15 11.5 35.5t42 40.5t88.5 34q22 6 53.5 9t68.5 3h22.5t22.5 -1
q36 62 77.5 128.5t82.5 129.5t75.5 113.5t57 80t27.5 29.5h9q9 0 9 -6t-11 -20q-45 -59 -98 -136t-106 -160t-99 -161q57 -5 108 -21.5t83.5 -46.5t32.5 -77q0 -27 -8 -27q-5 0 -3 10q6 26 -25 44.5t-84 28.5t-114 10h-18t-18 -1q-22 -40 -40.5 -75.5t-29.5 -63.5
q-5 -11 -9 -11z" />
    <glyph glyph-name="J" unicode="J" horiz-adv-x="622" 
d="M-53 -313q-57 0 -89 30t-32 81q0 32 13.5 70.5t41.5 81.5q31 48 75 92t94.5 82t99.5 66q9 67 41 135t80.5 130.5t107 112.5t119.5 81q55 28 111 28q53 0 93 -28t50 -85q1 -5 1.5 -11t0.5 -12q0 -52 -28 -121.5t-77 -148.5t-113.5 -159.5t-137.5 -154t-148.5 -132.5
t-147.5 -95q-45 -22 -84 -32.5t-71 -10.5zM-22 -276q21 0 45.5 5.5t49.5 15.5q64 27 134 79.5t139.5 122t131 147t109.5 155.5t75.5 148t27.5 123q0 49 -24 79.5t-74 30.5q-33 0 -78 -15q-91 -31 -159.5 -91.5t-110.5 -141t-54 -171.5q47 23 95.5 36.5t95.5 13.5h12.5
t12.5 -1q27 -2 46 -13.5t24 -31.5q2 -4 2 -6.5v-4.5q0 -3 -2 -3q-1 0 -3.5 1t-6.5 2t-9 1.5t-10 0.5q-47 0 -115.5 -30.5t-138.5 -75.5q7 -16 16 -23t19 -8q7 0 7 -6q0 -5 -11 -5q-4 0 -10.5 1t-15.5 3q-18 5 -31 21q-61 -41 -120 -88t-104 -105q-25 -33 -36.5 -59
t-11.5 -46q0 -31 23.5 -46t59.5 -15z" />
    <glyph glyph-name="K" unicode="K" horiz-adv-x="667" 
d="M427 -88q-5 0 1.5 9t32.5 32q47 42 69.5 88t22.5 88q0 63 -47.5 107.5t-136.5 44.5q-55 0 -124 -21q-40 -12 -54 -12q-8 0 -8 4q0 3 11 14q25 23 73 60.5t110.5 81.5t131 88.5t134.5 82.5t121.5 62.5t91.5 28.5h5q11 0 11 -7q0 -11 -16 -18q-88 -31 -177 -78t-171 -100.5
t-150 -104t-116 -86.5q96 31 176 31q73 0 125 -22t80 -58.5t28 -81.5q0 -55 -46.5 -114t-148.5 -108q-9 -4 -17 -7.5t-12 -3.5zM-25 -85q-4 0 -4 10q0 5 1 11.5t5 16.5q8 23 28 66t47.5 99t60 117t66.5 121t65.5 111.5t57 87.5t41.5 49q10 8 29 8q11 0 20 -4t9 -14
q0 -9 -10 -22q-24 -31 -54.5 -74.5t-63 -91.5t-64 -96t-57.5 -89q-32 -50 -65.5 -106.5t-61 -106.5t-41.5 -82q-4 -11 -9 -11z" />
    <glyph glyph-name="L" unicode="L" horiz-adv-x="706" 
d="M84 83q-21 0 -35.5 6t-16.5 10q-1 2 0 3.5t3 -0.5q6 -4 23 -4q19 0 48 10.5t62 42.5q27 27 55 66.5t60 85.5q-33 7 -61.5 21.5t-37.5 42.5q-2 8 1 8t5 -5q7 -11 30 -14.5t47 -3.5q15 0 28.5 1t20.5 1h3q51 71 116 141.5t151 118.5q57 32 113.5 44.5t108.5 12.5
q53 0 90.5 -26.5t37.5 -70.5q0 -52 -62 -113t-193 -109q-73 -27 -154.5 -43.5t-161.5 -13.5q-13 0 -28 1t-32 4q-36 -55 -67 -101.5t-59 -73.5q-25 -24 -51 -33t-44 -9zM344 357q68 8 142.5 28t139.5 44q126 46 181.5 93.5t55.5 82.5q0 26 -23 38t-53 12q-39 0 -90.5 -11.5
t-104.5 -39.5q-76 -40 -137 -107.5t-111 -139.5zM693 -68q-7 0 -4 10q1 3 1 8q0 20 -36 37.5t-101 28t-154 10.5q-55 0 -107 -4.5t-96 -14.5q-31 -7 -66.5 -18t-67.5 -20.5t-55 -9.5q-15 0 -24.5 5.5t-9.5 21.5q0 23 29.5 50.5t101.5 46.5q59 17 108 21t98 4
q199 0 295.5 -42t96.5 -107v-7.5t-1 -8.5q-1 -11 -8 -11z" />
    <glyph glyph-name="M" unicode="M" horiz-adv-x="1324" 
d="M1173 -229q-25 0 -53.5 12.5t-47 37t-16.5 59.5q1 21 4.5 41.5t16 49.5t40 75.5t77 118.5t126.5 180q37 51 52 84t15 52q0 16 -9 23t-23 7q-20 0 -47.5 -12t-52.5 -31q-47 -35 -96 -79.5t-95 -91.5t-86 -91q-33 -53 -62 -96.5t-42 -62.5q-4 -7 -12.5 -10t-16.5 -3
q-14 0 -25 7.5t-5 18.5l12 21t31.5 56t42 77t43.5 83.5t36.5 76.5t20.5 55q6 26 6 48t-8 35.5t-28 13.5q-13 0 -33 -8t-47 -25q-46 -30 -103.5 -78.5t-119 -108t-122 -122t-112.5 -121.5q-3 -3 -7 -3q-38 -49 -56.5 -64t-18.5 -6q0 20 55 89q43 53 92.5 112.5t93 118.5
t69.5 110t26 86q0 47 -38.5 65t-97.5 18q-47 0 -100.5 -8.5t-106 -21t-96.5 -26t-71 -22.5q-44 -15 -81 -32t-58.5 -34.5t-21.5 -35.5q0 -17 23 -33q2 -1 2 -3t-5 -2t-10 3q-29 20 -29 58q0 28 19 59t59 53q51 29 114 52.5t130 40t132.5 25t121.5 8.5q74 0 116.5 -15
t60.5 -41t18 -58q0 -43 -25.5 -91t-56.5 -86q-28 -34 -71.5 -85t-85.5 -103q61 64 124 125t122 111t106 81q51 33 89.5 47.5t65.5 14.5q38 0 54.5 -23t16.5 -57q0 -36 -17 -78q-11 -27 -29 -61.5t-40 -71.5q52 54 110.5 108t113.5 95q48 35 101 58t90 23q22 0 35 -9.5
t13 -30.5q0 -18 -12 -46t-38 -67q-102 -151 -165.5 -259.5t-93.5 -180.5t-34 -115q-1 -5 -1 -10v-10q0 -28 9.5 -39.5t21.5 -11.5q15 0 28 11q4 2 5 2q5 0 8 -5t-2 -10q-14 -11 -38 -11z" />
    <glyph glyph-name="N" unicode="N" horiz-adv-x="585" 
d="M-72 -144q-4 0 -4 10q0 5 1 12t5 17q9 26 32 70.5t54.5 100t68.5 115.5t75 119t72.5 110.5t61.5 89.5t42 56q17 51 37 81t41 30q16 0 35 -6.5t33 -16t14 -20.5q0 -9 -8 -14q-23 -19 -40.5 -57t-29.5 -87.5t-18 -105t-6 -109.5q0 -59 7 -112t22 -89q12 32 36 79.5t55 104
t65 115t66.5 112t60 96t46 67.5t22.5 25q3 0 10.5 1.5t14.5 1.5q15 0 15 -8q0 -7 -7 -15q-51 -67 -106 -147.5t-106.5 -163.5t-93.5 -158t-68 -132l3 -5q13 -22 32 -34.5t35 -12.5q11 0 20 6q1 0 1.5 0.5l0.5 0.5q4 0 5 -4.5t-2 -6.5q-23 -16 -51 -16q-23 0 -46 13t-42 38
q-48 65 -68 148t-20 166q0 45 5 88t13 82q-42 -57 -87.5 -124.5t-90.5 -138.5t-85 -138.5t-71 -124.5t-48 -98q-5 -11 -9 -11z" />
    <glyph glyph-name="O" unicode="O" horiz-adv-x="652" 
d="M276 -39q-52 0 -95 23t-68.5 66t-25.5 103q0 45 17.5 99.5t55.5 115.5q38 60 86.5 110t98 84.5t89.5 47.5q33 12 68 12q42 0 73 -24t31 -80q0 -19 -4 -37.5t-7 -27.5q-1 -6 -4 -6q-6 0 -4 11q2 9 3.5 16.5t1.5 13.5q0 24 -14 34.5t-38 10.5q-34 0 -81 -18t-98.5 -49.5
t-97.5 -71t-77 -82.5q-39 -54 -58 -102t-19 -87q0 -52 33.5 -83t97.5 -31q29 0 63 6.5t74 20.5q59 21 119.5 60t108.5 98q45 56 80 137.5t35 184.5q0 55 -9.5 84.5t-23 41.5t-25.5 12q-4 0 -10 -2q-1 0 -1.5 -0.5t-1.5 -0.5q-3 0 -3 3q0 5 7 8q8 3 18 3q19 0 39 -13
t34.5 -44t14.5 -84q0 -74 -23.5 -138.5t-58.5 -118.5t-69 -97q-36 -46 -91 -94.5t-115 -80.5q-31 -17 -63.5 -25.5t-62.5 -8.5z" />
    <glyph glyph-name="P" unicode="P" horiz-adv-x="539" 
d="M-8 -26q-8 0 -8 9q0 2 0.5 4.5t1.5 5.5q7 27 36.5 79.5t69.5 114.5q-40 10 -66 30q-30 24 -30 54q0 23 18 39q4 4 7 4q2 0 2 -3q0 -6 -5 -11q-7 -10 -7 -24q0 -12 5.5 -24t18.5 -22q28 -22 67 -28q38 57 78.5 113.5t77 103.5t61.5 75.5t32 28.5t11 -7.5t4 -13.5
l-21 -26.5t-55 -70.5t-74 -98t-79 -110q53 -3 114 9t120.5 32t109 43t78.5 42q61 41 89.5 84.5t28.5 81.5q0 49 -43.5 81t-124.5 32q-23 0 -50 -3q-43 -5 -97 -17t-108 -29.5t-99 -37.5t-71 -42q-17 -13 -11 -23q2 -3 2 -6q0 -2 -3 -1.5t-6 2.5q-16 10 -24 26t-8 29
q0 5 1.5 9t2.5 7q20 28 67.5 53.5t111 46.5t132.5 35.5t131 20.5q12 1 23.5 1.5t21.5 0.5q104 0 152.5 -43.5t48.5 -105.5q0 -57 -40.5 -119t-117.5 -107q-31 -18 -78 -38.5t-103 -39t-114 -30.5t-111 -12q-10 0 -19 0.5t-18 1.5q-38 -55 -68.5 -105.5t-44.5 -85.5
q-2 -7 -8.5 -11.5t-11.5 -4.5z" />
    <glyph glyph-name="Q" unicode="Q" horiz-adv-x="656" 
d="M668 -227q-6 0 -3 10q2 6 2 10q0 24 -40.5 40.5t-105.5 25t-139 8.5q-52 0 -104 -4.5t-98 -14.5q-32 -6 -68 -17.5t-69.5 -21t-56.5 -9.5q-16 0 -24 5q-8 4 -8 17q0 14 12.5 32.5t46 38t96.5 35.5q-25 9 -44.5 37.5t-17.5 86.5q5 85 42.5 172.5t98 168.5t135 146
t152.5 105q66 33 128 33q73 0 121.5 -43.5t48.5 -122.5q0 -49 -22.5 -109t-74.5 -131q-33 -45 -75 -88.5t-87 -79.5t-87 -62t-76 -37q-19 -6 -37.5 -9.5t-36.5 -3.5q-42 0 -72 22t-30 72q0 26 7.5 51t13.5 38q3 7 6 7q2 0 3 -3.5t-1 -8.5q-9 -24 -9 -39q0 -21 13.5 -30.5
t36.5 -9.5q37 0 91.5 20.5t114.5 54.5t114.5 76.5t90.5 85.5q50 59 74 111.5t24 92.5q0 45 -30 71.5t-90 26.5q-28 0 -63 -6.5t-76 -20.5q-121 -40 -209 -123t-137 -192.5t-55 -231.5q-2 -45 5.5 -70.5t20.5 -36.5t25 -12l8 1q29 5 71 8.5t90 3.5q62 0 126.5 -7t119.5 -22.5
t88.5 -42.5t33.5 -66q0 -6 -1 -12.5t-3 -13.5q-3 -12 -10 -12z" />
    <glyph glyph-name="R" unicode="R" horiz-adv-x="587" 
d="M-8 -39q-8 0 -8 9q0 2 0.5 4t1.5 5q6 23 26.5 62t51 87.5t65.5 99.5q-6 21 -5 34q1 10 13.5 23.5t28 23t24.5 7.5q39 53 73 97t57.5 70t29.5 26q8 0 12 -7t4 -13l-23.5 -29.5t-61 -78t-79.5 -106.5q1 -1 1 -3t1 -4l36 3q51 4 108 18.5t112 37t98 51.5q48 33 79.5 70.5
t31.5 68.5t-37 51.5t-125 20.5q-30 0 -74 -7t-94.5 -19t-100 -28.5t-90 -35.5t-64.5 -39q-16 -14 -11 -23q2 -3 2 -6q0 -2 -2 -2q-3 0 -8 3q-16 10 -23.5 25.5t-7.5 28.5q0 12 4 16q18 26 59.5 50t97.5 44t119 35t123.5 23t110.5 8q41 0 69 -6q39 -8 66 -38.5t27 -74.5
q0 -41 -32.5 -90t-111.5 -95q-44 -26 -101 -48.5t-115.5 -37.5t-108.5 -18q-8 -1 -16 -1h-16q16 -40 50.5 -82.5t77.5 -79t86 -59t74 -22.5q24 0 43.5 11.5t22.5 30.5q0 4 4 3.5t3 -5.5q-4 -35 -38 -51t-76 -16q-54 0 -102.5 20t-90 51.5t-72 68.5t-48.5 71
q-43 -63 -79.5 -121t-51.5 -96q-2 -7 -8.5 -11.5t-11.5 -4.5z" />
    <glyph glyph-name="S" unicode="S" horiz-adv-x="580" 
d="M237 -33q-33 -1 -73 5.5t-78 22.5t-66 42t-38 64q36 -32 98 -46.5t126 -14.5q85 0 148 19q18 5 42 16.5t47 27t38.5 34.5t15.5 39q0 14 -9 27t-29 26q-12 7 -34.5 15.5t-48.5 20t-49 27t-36.5 37t-10.5 49.5q5 41 37.5 81.5t82 76t107 62.5t113 42.5t98.5 15.5
q44 0 75.5 -17t26.5 -58q-2 -18 -24.5 -43t-53.5 -55t-61.5 -63t-50 -67t-17.5 -66q-16 13 -23.5 29t-7.5 33q0 24 10 49t25 47.5t28 38.5q23 28 52 53t59 46q-9 13 -31 13q-23 0 -51.5 -10t-53 -21.5t-34.5 -17.5q-43 -23 -86.5 -52t-80 -59t-59 -55.5t-24.5 -42.5
q-2 -21 18 -35.5t52 -26.5t63 -28q42 -21 61 -48t19 -56q0 -36 -27 -70.5t-73 -57.5q-41 -20 -85.5 -31t-79 -14.5t-47.5 -3.5z" />
    <glyph glyph-name="T" unicode="T" horiz-adv-x="433" 
d="M13 423q-6 0 -13 5q-18 17 -18 43q0 31 26.5 64.5t78.5 53.5q59 23 128 38.5t141.5 23t139.5 7.5q25 0 49 -1t46 -3q147 -14 224.5 -56t77.5 -88q0 -19 -13 -36q-6 -8 -17.5 -15.5t-18.5 -7.5q-6 0 -6 6q0 7 10 23q12 18 12 33q0 29 -36.5 45.5t-95 23t-125.5 6.5
q-46 0 -93 -2.5t-88 -6.5q-19 -2 -57.5 -7t-86.5 -12.5t-97 -18t-90 -23.5t-66.5 -28.5t-25.5 -34.5q0 -13 15 -27q2 -2 2 -3q0 -2 -3 -2zM288 -81q-52 4 -71 33t-19 68q0 33 9 68t19 64q10 28 26.5 59t45 74t74.5 108t114 161q12 15 21 15q6 0 8.5 -4.5t0.5 -8.5
q-94 -139 -144.5 -238.5t-74.5 -169.5q-5 -14 -12.5 -39.5t-13.5 -55t-6 -55.5q0 -28 10 -48t35 -20q15 0 28 10q5 3 6 3q2 0 2 -2q0 -3 -6 -8q-19 -17 -52 -14z" />
    <glyph glyph-name="U" unicode="U" horiz-adv-x="657" 
d="M538 -118q-49 0 -67.5 22t-18.5 55q0 32 12 69t28.5 70.5t27.5 54.5q-102 -133 -188 -175q-27 -13 -52 -13q-40 0 -62.5 29t-22.5 68v10t1 9q7 46 28.5 100t48.5 109.5t53.5 108t43.5 97t17 74.5q0 35 -20.5 49t-53.5 14q-32 0 -71 -11t-78 -27.5t-70.5 -34.5t-49.5 -32
q-7 -6 -15 -6q-10 0 -17 12.5t-7 28.5q0 13 5 25.5t15 20.5q21 17 65 32.5t98.5 25.5t106.5 10q47 0 86 -9.5t63 -32t24 -60.5q0 -12 -3 -26q-6 -28 -26 -71t-47.5 -94t-56.5 -103.5t-53 -100.5t-36 -85q-10 -29 -10 -55q0 -24 10.5 -39.5t32.5 -15.5q23 0 57 19
q48 26 96 76t94 112.5t88.5 127.5t79.5 123.5t65 99.5q15 21 32.5 29t30.5 8q12 0 17.5 -4.5t-0.5 -10.5q-17 -17 -47 -58t-66.5 -97t-72.5 -120t-66.5 -126.5t-49 -117t-18.5 -91.5q0 -22 8 -37.5t25 -17.5l7 -1h3q12 0 21 9q2 2 5 2q2 0 2 -2.5t-5 -5.5q-7 -6 -21 -13
t-26 -7z" />
    <glyph glyph-name="V" unicode="V" horiz-adv-x="484" 
d="M233 -94q-4 0 -6.5 3.5t0.5 8.5q7 11 19.5 33t30.5 50q-17 -8 -38 -15.5t-36 -11t-14 0.5q5 17 18 65.5t29 116.5t29 144.5t17 148.5q1 8 1 15.5v14.5q0 74 -22 115t-56 41q-31 0 -66.5 -35.5t-69.5 -111.5q-20 -46 -30.5 -97t-6.5 -99v-2q0 -7 -3 -9.5t-6 4.5
q-6 13 -9 33t-3 43q0 41 9 86t25 77q21 39 53 70t69 49t73 18q39 0 72.5 -26t49.5 -88q8 -29 12 -61.5t4 -70.5q0 -68 -14 -153.5t-43 -192.5q36 54 80 117t94 127.5t102 123.5t104 107t100 76q26 15 58.5 27t59.5 12q30 0 43 -17q2 -4 2 -5q0 -4 -5 -4t-10 1
q-45 3 -102 -29t-119.5 -88t-126 -126.5t-122 -144.5t-107.5 -141.5t-82.5 -118.5t-46.5 -75q-3 -6 -10 -6z" />
    <glyph glyph-name="W" unicode="W" horiz-adv-x="814" 
d="M92 -66q7 13 24.5 48t41.5 84.5t50.5 108t50 120t40.5 119.5q8 27 11.5 50.5t3.5 43.5q0 47 -18 72t-47 25q-33 0 -75.5 -34.5t-85.5 -108.5q-27 -46 -44.5 -97t-20.5 -99q-1 -9 -4.5 -12t-5.5 4q-5 15 -5 36q0 30 7.5 67t21.5 73.5t32 63.5q26 38 64 68t80 47t80 17
q47 0 78 -30t31 -100q0 -43 -10 -98.5t-34 -126.5q45 67 103.5 128t113.5 101q41 30 71 43.5t51 13.5q32 0 45.5 -27.5t13.5 -71.5q0 -43 -10 -97.5t-26 -110.5t-34 -105q41 65 90.5 136.5t103 139.5t108 122.5t105.5 85.5q25 15 57.5 26.5t59.5 11.5q30 0 43 -17l2 -4
q0 -4 -5 -4h-10q-42 3 -94 -26.5t-108.5 -82.5t-113 -119t-110 -136.5t-99 -136t-79.5 -116.5q-2 -4 -21.5 -13t-43.5 -18t-41 -13.5t-15 -0.5q7 17 24 55.5t39.5 93.5t44.5 121t40 138q9 39 9 63q0 44 -29 44q-24 0 -63 -28.5t-85 -76.5t-93.5 -108t-89.5 -123
q-21 -49 -44 -96t-48 -88q-3 -4 -23.5 -13t-45.5 -18t-43 -13.5t-16 -0.5z" />
    <glyph glyph-name="X" unicode="X" horiz-adv-x="500" 
d="M-139 -95q-3 0 -3 4q0 7 7 17q45 61 114 145t152 173q-19 50 -28 102.5t-9 98.5q0 36 5.5 65.5t15.5 47.5q5 9 20 18t33 14.5t30 5.5q16 0 16 -9q0 -4 -5 -12q-13 -21 -19.5 -54t-6.5 -73q0 -63 14 -135q71 72 147.5 137t154 115.5t153 79t144.5 26.5q4 0 3.5 -4t-4.5 -4
q-42 1 -99.5 -23.5t-124.5 -67.5t-138 -100q-57 -45 -114.5 -95.5t-112.5 -103.5q16 -62 39.5 -119t51 -97t53.5 -55q23 -12 47 -12q15 0 28 5t21 15q2 2 4 2t3.5 -2.5t-0.5 -5.5q-15 -19 -33 -23.5t-41 -4.5q-44 0 -87.5 32.5t-81.5 86.5t-66 117q-60 -59 -112.5 -115
t-92 -102t-62.5 -77q-9 -13 -16 -13z" />
    <glyph glyph-name="Y" unicode="Y" horiz-adv-x="870" 
d="M335 -306q-49 0 -95.5 14.5t-83.5 46t-59 82.5t-22 123v4q0 11 5 11q7 0 9 -13q10 -70 39.5 -123t73 -83t94.5 -30q54 0 103 30t93 78t82.5 101.5t69.5 101.5q118 179 163 314.5t40 229.5q-16 -55 -48 -120t-73 -129.5t-84 -118.5q-14 -17 -39.5 -46t-57.5 -61t-66 -61
t-67 -47t-59 -18h-6t-6 1q-24 6 -24 38q0 26 13 63t34.5 81t46.5 89.5t49 86.5q14 24 33.5 57t34 69t14.5 67q0 32 -23 52.5t-82 20.5q-36 0 -77.5 -6.5t-82 -16.5t-74.5 -20t-55 -17q-51 -18 -87.5 -38.5t-36.5 -40.5q0 -14 18 -26l2 -2q0 -1 -4 -1q-6 0 -9 2
q-22 15 -22 44q0 22 15 46t46 42q52 30 119.5 51.5t137 33.5t126.5 12q83 0 115.5 -25t32.5 -66q0 -36 -19 -80t-46 -90t-51 -87q-22 -39 -46.5 -81t-46 -82t-34.5 -73t-13 -54q0 -13 6 -21t20 -8q20 0 50 20.5t63 52.5t64 66.5t54 63t32 41.5q70 101 123.5 193t76.5 169
q7 23 15 25q4 2 6 2q5 0 8 -8q10 -27 14.5 -59.5t4.5 -69.5q0 -66 -13.5 -140t-37 -148.5t-54.5 -142t-67 -119.5q-48 -70 -108.5 -127.5t-128 -91.5t-138.5 -34z" />
    <glyph glyph-name="Z" unicode="Z" horiz-adv-x="743" 
d="M717 -47q-7 0 -2 9q6 12 6 22q0 21 -25 33.5t-68.5 17.5t-97.5 5q-67 0 -142 -6t-145.5 -14t-124 -16t-77.5 -13q-16 -3 -32.5 10.5t-16.5 30.5q0 16 15 27q9 6 29.5 18t35.5 19l3 2q50 50 113 106t133.5 111.5t143 105t141.5 87t129 56.5q-19 17 -65 25t-103 8
q-61 0 -126 -8.5t-121 -24t-91 -37.5t-35 -49q0 -16 17 -36q1 -1 1 -3q0 -1 -2 -1q-7 0 -11 4q-20 19 -20 45q0 25 17.5 52t48 51t70.5 39q48 18 107 26.5t117 8.5q67 0 128 -11q24 -4 49.5 -14.5t42 -29t14.5 -47.5q3 -3 3 -7q0 -5 -5 -9q-1 -7 -3 -14t-5 -15t-6 -6.5
t0 6.5q4 12 3 22l-3 -2q-96 -43 -188 -98t-175 -114t-152.5 -114.5t-120.5 -100.5q27 9 81.5 14t119.5 5q55 0 112.5 -4.5t111 -14t95.5 -25t67 -38t25 -52.5q0 -17 -7 -32q-4 -10 -9 -10z" />
    <glyph glyph-name="bracketleft" unicode="[" horiz-adv-x="399" 
d="M167 -75q-29 0 -58 2.5t-50 10.5t-27 22q-3 8 13.5 47.5t47 98.5t71 127t85.5 134.5t90 119.5q17 20 39 44t47.5 42.5t51.5 21.5q10 1 21 1.5t23 0.5q28 0 58 -2t55 -4q9 0 9 -9q0 -12 -13 -12q-41 0 -76 -1t-71 -6q-17 -1 -33.5 -12.5t-29.5 -25.5t-20 -23
q-30 -40 -64.5 -94t-68 -113.5t-60.5 -117t-43.5 -106t-16.5 -79.5q0 -11 3 -20q8 -9 27.5 -13.5t41.5 -6.5t38 -2.5l16 -0.5q9 -1 9 -9q0 -12 -16 -12q-11 0 -39 -1.5t-60 -1.5z" />
    <glyph glyph-name="backslash" unicode="\" horiz-adv-x="625" 
d="M563 -122q-8 0 -13 11q-19 44 -57.5 110t-89 143t-105.5 156t-107.5 151.5t-95.5 127.5q-6 8 -6 12q0 7 13 7q10 0 21.5 -2.5t14.5 -2.5q5 0 28 -29.5t59 -80t78 -113.5t85 -130t81 -130t65 -113.5t37 -79.5q4 -9 4 -19q0 -18 -12 -18z" />
    <glyph glyph-name="bracketright" unicode="]" horiz-adv-x="399" 
d="M-8 -74q-28 0 -58.5 2t-54.5 4q-9 0 -9 9q0 12 13 12q41 0 75.5 1.5t71.5 5.5q17 2 33 13.5t29.5 25.5t20.5 23q31 40 65.5 94t67.5 113.5t60.5 117.5t43.5 106t16 79q0 11 -3 20q-7 9 -27 13.5t-42.5 6t-38.5 2l-16 0.5q-8 1 -8 10q0 4 3 7.5t9 3.5q11 0 39.5 2t62.5 2
q30 0 59 -3t50 -10.5t26 -21.5q3 -8 -13.5 -47.5t-47 -98.5t-70.5 -127.5t-85 -135t-90 -119.5q-16 -19 -38.5 -43t-48 -42.5t-52.5 -22.5q-10 -1 -20.5 -1.5t-22.5 -0.5z" />
    <glyph glyph-name="asciicircum" unicode="^" horiz-adv-x="461" 
d="M176 338q-5 0 -5 5t4.5 10.5t10.5 4.5q18 0 45 11.5t56.5 30t55.5 39.5q4 6 16.5 18.5t26 24.5t22 17.5t3.5 -3.5q-13 -22 -13 -50q0 -26 11 -49.5t29 -37t38 -10.5h5q8 0 8 -4q0 -8 -21 -12q-10 -2 -20 -3.5t-19 -1.5q-47 0 -71.5 24.5t-24.5 53.5q-38 -32 -82 -51
t-75 -17z" />
    <glyph glyph-name="underscore" unicode="_" horiz-adv-x="556" 
d="M-90 -118v50h556v-50h-556z" />
    <glyph glyph-name="grave" unicode="`" horiz-adv-x="500" 
d="M268 346q-38 0 -72.5 16.5t-59.5 38.5t-38 36q-5 5 3 13t21.5 14t22.5 6q8 0 9 -3q14 -18 36.5 -42t47 -42.5t42.5 -22.5q10 -2 10 -7q0 -2 -4 -4.5t-18 -2.5z" />
    <glyph glyph-name="a" unicode="a" horiz-adv-x="476" 
d="M55 -1q-31 0 -48 19.5t-17 50.5q0 29 15.5 64t49.5 71q35 38 87 61.5t99 23.5q38 0 65 -16.5t36 -41.5q11 0 27.5 -6t16.5 -22q0 -11 -11 -25q-7 -10 -24.5 -30t-32.5 -43q-12 -18 -19 -33.5t-7 -26.5q0 -15 15 -15q17 0 51 19q37 21 71 48t53 43q5 4 7 4q4 0 4 -5
q0 -6 -5 -11q-9 -8 -35 -30t-59.5 -46t-65.5 -39q-16 -7 -29.5 -10.5t-24.5 -3.5q-27 0 -41 15.5t-14 40.5q0 10 3 21t7 22l7 17q-26 -32 -52 -53.5t-52 -37.5q-22 -13 -41.5 -19t-35.5 -6zM86 25q18 0 52 21.5t79 66.5q6 6 22.5 21.5t35.5 35t32.5 39t13.5 32.5
q0 19 -33 19q-29 0 -69.5 -22.5t-77.5 -66.5q-38 -45 -55.5 -77.5t-17.5 -49.5q0 -19 18 -19z" />
    <glyph glyph-name="b" unicode="b" horiz-adv-x="405" 
d="M154 -17q-62 0 -62 63q0 11 1.5 22.5t5.5 23.5q-16 -25 -30 -43.5t-23 -28.5q-22 -25 -44 -25q-10 0 -24 4.5t-27 16.5q13 18 41.5 59t59.5 89q-13 -13 -28.5 -26.5t-28.5 -24.5q-4 -4 -9 -4q-4 0 -4 4q0 5 8 12q21 18 40 35.5t42 46t54 78.5q56 86 96 158t52 112
q2 5 3 11t1 12q0 8 -4 14.5t-15 7.5q-2 0 -2 2t2 2q21 -1 35 -14.5t18 -46.5q3 -27 -15 -78t-49 -113.5t-66 -123.5q36 36 76 58.5t73 22.5q30 0 48 -19t18 -50q0 -34 -19 -74.5t-51 -78.5q-39 -46 -86.5 -75t-86.5 -29zM149 -8q26 0 59 22t60 64q20 31 29 60t9 51
q0 27 -12 42t-32 15q-26 0 -59 -22.5t-60 -64.5q-20 -30 -29.5 -59t-9.5 -52q0 -56 45 -56z" />
    <glyph glyph-name="c" unicode="c" horiz-adv-x="339" 
d="M96 -10q-43 0 -72.5 21.5t-29.5 62.5q0 44 21.5 82t56.5 66.5t76.5 44.5t82.5 16t60.5 -15t19.5 -36q0 -14 -8 -27.5t-22 -13.5q-9 0 -9 7q0 5 3 9q12 21 12 37q0 20 -21 20q-17 0 -44 -13q-22 -10 -46.5 -30.5t-45.5 -47t-34.5 -54t-13.5 -51.5q0 -23 13 -38t39 -15
q17 0 40.5 8t52.5 26q24 15 50.5 36t51.5 43t43 38q6 6 10 6t4 -5q0 -7 -6 -12q-26 -24 -57 -51.5t-64.5 -51.5t-65.5 -39q-52 -23 -97 -23z" />
    <glyph glyph-name="d" unicode="d" horiz-adv-x="406" 
d="M282 -88q-16 14 -23.5 35.5t-7.5 48.5q0 25 5.5 53t14.5 59q-19 -24 -42.5 -49t-44.5 -43q-42 -34 -91 -34q-37 0 -63 23.5t-26 73.5q0 13 2.5 25t6.5 24q-6 -5 -11.5 -10t-10.5 -9q-4 -3 -8 -3q-5 0 -5 5q0 6 10 14q13 11 29.5 30t36.5 41q35 39 85.5 63t99.5 24
q42 0 61.5 -15t19.5 -36q25 53 52.5 101.5t52 85.5t40.5 55q11 13 27.5 19t33.5 6t33 -5t28 -16q-10 -6 -31.5 -28.5t-49 -55.5t-57 -71t-55.5 -76q-31 -45 -58.5 -97t-44.5 -100.5t-17 -85.5q0 -30 13 -46q3 -4 0 -5.5t-5 -0.5zM124 16q18 0 48 18.5t74 63.5
q14 14 22.5 24.5t14.5 20.5q5 14 10 27t11 26q-6 -4 -9 -4q-8 0 -8 9q0 4 3 10q10 17 10 30q0 21 -24 21q-13 0 -35 -8q-25 -10 -51.5 -30.5t-49 -48t-36 -56.5t-13.5 -55q0 -19 7.5 -33.5t25.5 -14.5z" />
    <glyph glyph-name="e" unicode="e" horiz-adv-x="340" 
d="M97 -10q-44 0 -73.5 21.5t-29.5 62.5q0 44 21 82t56 66.5t76.5 44.5t82.5 16t61 -14.5t20 -35.5q0 -20 -18.5 -42.5t-53.5 -39.5q-22 -10 -50.5 -17.5t-49.5 -7.5q-16 0 -16 5q0 4 14 4q13 0 40.5 7.5t53.5 20.5q29 16 41 32t12 29q0 12 -9.5 20t-26.5 8q-16 0 -36 -9
q-29 -13 -59.5 -42.5t-50.5 -64.5t-20 -67q0 -22 12.5 -37t37.5 -15q26 0 60 16.5t69 41t65 49.5t48 42q6 6 9 6t3 -5q0 -7 -6 -12q-38 -35 -82.5 -73t-95 -64.5t-105.5 -27.5z" />
    <glyph glyph-name="f" unicode="f" horiz-adv-x="239" 
d="M34 -89q-21 17 -29 39.5t-8 44.5q0 37 16.5 95t44.5 122q-2 -1 -4 -1q-5 0 -10.5 11.5t-5.5 24.5q0 14 9.5 28t37.5 21q6 2 16 4q32 60 69 109.5t74 74.5q23 16 48.5 23.5t50.5 7.5q30 0 59 -11t48 -32.5t19 -53.5v-1q0 -4 -3 -4t-5 5q-7 27 -27 38.5t-44 11.5
q-19 0 -38 -6t-33 -15q-36 -23 -72 -63.5t-65 -80.5q27 -2 48.5 -9t31.5 -15q14 -10 21 -21q4 -7 4 -12q0 -6 -5 -6q-3 0 -9 3q-18 12 -56 12q-16 0 -35 -2.5t-40 -8.5l-13 -19q-32 -47 -55 -96.5t-35 -93.5t-12 -76q0 -28 12 -43q3 -4 0 -5.5t-5 0.5z" />
    <glyph glyph-name="g" unicode="g" horiz-adv-x="408" 
d="M-89 -267q-61 0 -101 14t-64 38q-16 17 -30 44.5t-14 46.5q0 7 3 7q7 0 9 -8q0 -3 6.5 -23t23.5 -44t50 -42t86 -18q63 0 113 29.5t89.5 77t72.5 103.5t63 110t61 95q-13 -14 -32.5 -34.5t-41.5 -41.5t-42 -38t-33 -25q-22 -13 -41.5 -19t-35.5 -6q-31 0 -48 19.5
t-17 50.5q0 29 15.5 64t49.5 71q35 38 87 61.5t99 23.5q17 0 33 -3.5t29 -11.5q18 -11 26.5 -20.5t12.5 -22.5q6 0 19 -5.5t24 -13t11 -15.5q0 -4 -8 -9q-20 -10 -45 -47.5t-55.5 -89t-68 -107t-83.5 -103.5t-101.5 -78t-121.5 -30zM81 25q20 0 49 20q22 15 48 37.5t51 47.5
t43 46q33 38 33 62q0 20 -24 20t-66 -23q-24 -13 -51 -37t-50.5 -52t-37.5 -52q-16 -29 -16 -47q0 -22 21 -22z" />
    <glyph glyph-name="h" unicode="h" horiz-adv-x="403" 
d="M216 -1q-25 0 -39.5 14t-14.5 38q0 15 7 34t22 39q23 31 44 54.5t31 42.5q10 18 10 28q0 15 -18 15q-16 0 -45.5 -17.5t-61.5 -56.5q-18 -22 -41 -51.5t-37 -54.5q-6 -11 -11.5 -22.5t-16.5 -38.5q-3 -7 -16.5 -15t-21.5 -8q-6 0 -6 5q0 4 3 10q5 9 22.5 57t44.5 113
q-15 -16 -33 -34.5t-40 -35.5q-4 -4 -9 -4q-6 0 -6 5q0 4 9 11q23 20 46 42.5t50 56.5q9 22 32 63.5t55 92.5t71 102t80 91q37 36 77.5 55t73.5 19q29 0 47 -14t18 -45t-17 -66t-36 -56q-43 -48 -101.5 -88t-122.5 -68q-2 -1 -4 -1.5t-4 -0.5q-7 0 -7 5q0 6 11 10
q38 17 77.5 42t73.5 54t57 58q27 34 35 55.5t8 36.5q0 20 -22 20q-10 0 -29 -9.5t-45 -30.5q-40 -32 -82.5 -78t-83 -100t-76.5 -110t-65 -109q12 17 25 34.5t26 31.5q30 33 59 48t52 15q26 0 42 -15.5t16 -41.5q0 -14 -4.5 -27.5t-10.5 -24.5q-8 -17 -21 -40t-25 -43
q-23 -37 -23 -53q0 -9 8 -9q10 0 33 14q18 11 40.5 28.5t45 36.5t39 33.5t21.5 19.5q6 6 9 6t3 -3q0 -5 -7 -14q-26 -27 -65 -61t-88 -66q-19 -13 -36.5 -18.5t-31.5 -5.5z" />
    <glyph glyph-name="i" unicode="i" horiz-adv-x="275" 
d="M223 306q-14 0 -21 9t-7 19q0 20 19 39.5t40 19.5q14 0 21 -9t7 -19q0 -21 -18.5 -40t-40.5 -19zM70 -1q-41 0 -55.5 17.5t-14.5 39.5q0 18 6 34.5t10 23.5q6 10 16.5 23t23.5 28q-20 -17 -37.5 -33t-28.5 -24q-3 -3 -6 -3q-4 0 -4 5q0 8 11 16q26 22 50.5 48t46.5 48.5
t39 31.5q18 10 29 13t18 3q11 0 16 -3.5t2 -7.5q-17 -17 -33.5 -43.5t-30.5 -55.5t-22.5 -55t-8.5 -44q0 -25 20 -25q19 0 49.5 17.5t64 44.5t62.5 53q4 4 7 4q5 0 5.5 -5t-2.5 -7q-33 -31 -74.5 -64.5t-83 -56.5t-75.5 -23z" />
    <glyph glyph-name="j" unicode="j" horiz-adv-x="159" 
d="M137 306q-14 0 -21 9t-7 19q0 20 19 39.5t40 19.5q14 0 21 -9t7 -19q0 -21 -18.5 -40t-40.5 -19zM-342 -269q-48 0 -92 14t-72 45.5t-28 83.5v2q0 6 4 6t6 -7q11 -56 54 -91t99 -35q35 0 77 19.5t85 53.5t84 77t75 90q12 16 33 47.5t43.5 69.5t37.5 72q-5 -5 -16 -15.5
t-21 -20.5t-16 -15q-1 -1 -1.5 -1h-0.5q-5 0 -5 7q0 5 5 9q8 7 25.5 24.5t32.5 39.5t15 40q0 12 -12 17q-2 1 -2 3q0 7 8 7q20 0 31 -14.5t11 -39.5q0 -28 -12 -66.5t-32 -80.5t-43 -82t-44.5 -71.5t-37.5 -48.5q-35 -37 -83 -69t-101.5 -51t-106.5 -19z" />
    <glyph glyph-name="k" unicode="k" horiz-adv-x="340" 
d="M37 -79q-22 20 -29.5 36.5t-7.5 45.5q0 30 8.5 67t24.5 77q-10 -10 -21 -20t-22 -18q-3 -3 -6 -3t-3 3q0 7 12 19q16 14 30 31t31 38q50 111 112 200t150 171q45 41 84.5 59t69.5 18t47 -16t17 -42q0 -25 -16.5 -57t-53.5 -67q-26 -25 -62 -51.5t-74 -49.5t-71 -38
q-2 -1 -4 -1.5t-4 -0.5q-7 0 -7 5q0 6 11 10q31 14 68.5 38t72.5 52t59 53q30 32 43.5 54.5t13.5 34.5q0 15 -17 15q-18 0 -51.5 -18.5t-76.5 -56.5q-53 -47 -104.5 -108t-94 -120.5t-70.5 -105.5q39 52 76 81t68 42q26 10 49 10q26 0 42 -13t16 -33t-13.5 -45t-45.5 -49
q-25 -18 -66.5 -31.5t-77.5 -13.5q-21 0 -36 6q20 -25 50 -48.5t61.5 -38t55.5 -14.5q17 0 31 9t14 22q0 2 2.5 2t2.5 -2q0 -19 -15.5 -31t-37.5 -17q-10 -2 -20.5 -3.5t-21.5 -1.5q-41 0 -76.5 14.5t-61 36t-36.5 41.5q-13 -32 -19.5 -63.5t-6.5 -57.5q0 -35 12 -50
q3 -4 0 -5.5t-5 -0.5zM125 134q25 0 59.5 12t56.5 29q18 14 26.5 30t8.5 29q0 14 -8.5 23.5t-24.5 9.5t-38 -10.5t-51 -36.5q-16 -15 -32.5 -31t-30.5 -33q2 -5 5 -10.5t7 -7.5t10 -3t12 -1z" />
    <glyph glyph-name="l" unicode="l" horiz-adv-x="294" 
d="M92 -5q-40 0 -56 19.5t-16 45.5q0 25 9.5 53t21.5 53q-13 -14 -25 -25.5t-20 -18.5q-4 -3 -8 -3q-5 0 -5 5t6 9q21 18 49 49t52 63q20 26 48 65t57 82.5t50 79.5q3 6 6.5 15t3.5 16q0 10 -8 10q-2 0 -11.5 -4t-18.5 -8t-11 -4q-8 0 1 9q16 12 40.5 23.5t50.5 19.5t44 8
q42 0 42 -27q0 -14 -13 -37q-11 -18 -32 -42.5t-46.5 -52t-49.5 -54t-40 -46.5q-4 -5 -19.5 -26t-35 -50.5t-39 -62t-32 -62t-12.5 -49.5q0 -27 26 -27q17 0 43 10q25 9 52.5 27.5t54 39.5t47 40t30.5 29q6 6 10 6t4 -5t-5 -10q-16 -17 -43.5 -44t-61 -54.5t-69.5 -46
t-71 -18.5z" />
    <glyph glyph-name="m" unicode="m" horiz-adv-x="518" 
d="M-5 -5q-10 0 -24 4.5t-28 16.5q11 15 31.5 40.5t43.5 56.5t43 62q-16 -16 -35 -34t-38 -33q-4 -3 -8 -3t-4 4q0 6 9 14q28 25 61.5 56t49.5 65q5 12 5 22q0 13 -5 16q-4 3 -4 8q0 9 9 9q5 0 8 -2q11 -5 21 -19t10 -43q0 -27 -11 -60q11 17 22 32.5t21 28.5
q20 26 42.5 39.5t39.5 13.5q28 0 28 -32q0 -18 -12 -47q-11 -25 -30 -60q17 23 34.5 44t30.5 35q29 29 55.5 42t48.5 13q26 0 41.5 -14.5t15.5 -39.5q0 -18 -9 -39q-6 -12 -20 -32t-30 -42t-27 -40t-11 -26q0 -10 11 -10q17 0 39 15q26 18 56 43t49 41q4 4 7 4q4 0 4 -5
q0 -6 -5 -11q-15 -14 -38.5 -35t-50.5 -42t-53 -35.5t-46 -14.5q-26 0 -42.5 12t-16.5 38q0 17 7 38t28 49.5t45 56t40 45.5q12 14 12 21q0 9 -12 9q-14 0 -41.5 -15t-58.5 -48q-20 -21 -40.5 -53t-36.5 -64.5t-25 -57.5q-7 -18 -26 -18q-10 0 -18.5 6t-4.5 13
q25 44 49.5 87t44.5 90q14 31 14 47q0 14 -12 14t-32.5 -14.5t-35.5 -32.5q-24 -28 -46 -62.5t-38 -62.5q-13 -21 -27 -41t-31 -38q-22 -25 -43 -25z" />
    <glyph glyph-name="n" unicode="n" horiz-adv-x="397" 
d="M-5 -5q-10 0 -24 4.5t-28 16.5q11 15 31.5 40.5t43.5 56.5t43 62q-16 -16 -35 -34t-38 -33q-4 -4 -9 -4q-4 0 -4 4q0 5 8 12q28 25 62.5 57.5t50.5 66.5q5 12 5 22q0 13 -5 16q-4 3 -4 8q0 9 9 9q5 0 8 -2q11 -5 21 -19t10 -42q0 -16 -4 -36.5t-14 -46.5q15 20 30.5 39
t28.5 34q27 31 54.5 44.5t49.5 13.5q26 0 42 -15t16 -39q0 -19 -10 -39q-3 -8 -14 -24.5t-24 -35.5t-24 -34q-13 -16 -18 -27.5t-5 -18.5q0 -10 11 -10q14 0 39 15q15 9 34.5 24.5t39 32t31.5 27.5q4 4 7 4q4 0 4 -5q0 -6 -5 -11q-30 -28 -69.5 -61t-77.5 -51
q-31 -15 -57 -15q-22 0 -35 11.5t-13 33.5q0 16 8 38q10 27 28.5 54t39 51.5t35.5 41.5q13 14 13 24q0 9 -12 9t-35.5 -13.5t-52.5 -43.5q-41 -43 -72 -93t-71 -94q-22 -25 -43 -25z" />
    <glyph glyph-name="o" unicode="o" horiz-adv-x="399" 
d="M77 -9q-39 0 -58.5 19.5t-19.5 50.5q0 19 5 37t11 32q-7 -7 -13.5 -12.5t-10.5 -8.5t-7 -3q-4 0 -4 5q0 7 10 16q35 29 55 51.5t42 41.5q37 32 79 50t84 18q44 0 69 -21t25 -62q0 -23 -13.5 -53t-42.5 -62q-12 -13 -27 -25.5t-26 -18.5q49 5 92 34.5t77 58.5q5 3 7 3
q5 0 5 -5q0 -4 -5 -9q-43 -41 -92.5 -69t-109.5 -27q-35 -19 -68.5 -30t-63.5 -11zM122 19q14 0 30 5t32 13q-6 0 -11.5 6t-5.5 16q0 20 15 41t37 36t43 15q12 0 22.5 -6.5t11.5 -17.5q17 19 23.5 41t6.5 41q0 26 -16.5 39.5t-44.5 13.5q-27 0 -59.5 -19t-61 -49t-47 -65
t-18.5 -67q0 -43 43 -43z" />
    <glyph glyph-name="p" unicode="p" horiz-adv-x="401" 
d="M-119 -278q-7 10 -14.5 25t-7.5 41q0 21 15 60.5t39.5 89.5t55 103.5t61.5 101.5q-19 -19 -39 -34q-4 -3 -6 -3q-3 0 -3 4q0 2 2.5 7t8.5 10q20 17 48 46.5t58 67.5q23 29 40 51.5t27 32.5q11 11 20 17t19 6q11 0 25.5 -5.5t27.5 -19.5q-11 -13 -29 -37t-34 -46
q23 27 61 48t71 21q30 0 48 -19t18 -50q0 -34 -19 -74.5t-51 -78.5q-39 -46 -86.5 -75t-86.5 -29q-28 0 -44 16t-16 47q0 32 14 69q-27 -34 -57.5 -78t-59.5 -90t-52.5 -88t-37.5 -74t-14 -48q0 -8 2 -10q3 -4 0.5 -5.5t-4.5 0.5zM145 -6q29 0 57.5 18.5t51.5 48.5t37 64
t14 64q0 27 -12.5 42t-34.5 15q-26 0 -59 -22.5t-60 -64.5q-20 -29 -28.5 -58.5t-8.5 -52.5q0 -29 12 -41.5t31 -12.5z" />
    <glyph glyph-name="q" unicode="q" horiz-adv-x="416" 
d="M119 -304q-29 5 -41.5 29.5t-12.5 52.5q0 41 17.5 81.5t35.5 75.5q20 38 43 76.5t45 73.5q-18 -19 -37 -34.5t-37 -26.5q-22 -13 -41.5 -19t-35.5 -6q-31 0 -48 19.5t-17 50.5q0 29 15.5 64t49.5 71q35 38 87 61.5t101 23.5q36 0 63.5 -17t35.5 -41q7 0 8 -3
q10 -1 21.5 -6t22.5 -13q-14 -18 -42.5 -57t-63.5 -90t-70 -105.5t-63 -103.5t-41 -84q-4 -12 -6 -21t-2 -16q0 -13 5 -19.5t12 -10.5q3 -1 0 -3.5t-4 -2.5zM83 21q17 0 49.5 20.5t75.5 65.5q24 25 37.5 40.5t25 30t30.5 33.5q7 7 10 15t3 13q0 20 -33 20q-28 0 -65.5 -22
t-74.5 -66q-40 -46 -58 -80t-18 -51q0 -19 18 -19z" />
    <glyph glyph-name="r" unicode="r" horiz-adv-x="361" 
d="M150 -1q-43 0 -58 16.5t-15 36.5q0 26 20 55q12 17 27 38.5t28 40.5t18 27q7 10 8.5 13.5t1.5 7.5q0 6 -7.5 11.5t-24.5 5.5q-5 0 -8.5 -0.5t-7.5 -0.5q-8 0 -9 1l-3 -4q-28 -37 -60 -72.5t-70 -65.5q-4 -3 -6 -3q-4 0 -4 4q0 8 12 18q31 26 61 58.5t54 68.5q-9 6 -9 24
q0 27 17 58q12 21 26.5 31.5t25.5 10.5q21 0 21 -25q0 -16 -12 -40q-5 -12 -19.5 -30.5t-28.5 -26.5q21 7 53.5 9.5t54.5 2.5q13 0 32 -7.5t19 -26.5q0 -13 -12 -28q-3 -4 -16 -19t-28.5 -36t-28.5 -42q-13 -19 -20.5 -35t-7.5 -27q0 -16 18 -16q21 0 56 20t75.5 51.5
t74.5 65.5q4 4 7 4q4 0 4 -5q0 -6 -5 -11q-35 -35 -77.5 -71.5t-88 -61.5t-88.5 -25z" />
    <glyph glyph-name="s" unicode="s" horiz-adv-x="307" 
d="M57 -11q-40 0 -70.5 15.5t-44.5 57.5q-1 4 2.5 5t4.5 -4q10 -22 26 -31t35 -9q32 0 56.5 19t44 48t35 59.5t29.5 52.5q22 37 52.5 67t55.5 37q-6 3 -15 3q-25 0 -55 -15t-60.5 -39t-59 -50.5t-52 -49t-37.5 -35.5q-8 -7 -12 -7t-4 4q0 6 5 11q30 26 62 58.5t65 63
t67 50.5t69 20h7.5t7.5 -1q11 -1 20.5 -6t5.5 -7q-23 -10 -36 -40t-24 -70t-26.5 -81t-44.5 -73q14 5 44 23t66 44.5t67 58.5q4 4 8 4q5 0 5 -5q0 -4 -4 -8q-27 -26 -60 -55.5t-71.5 -55.5t-79.5 -42.5t-84 -16.5z" />
    <glyph glyph-name="t" unicode="t" horiz-adv-x="278" 
d="M66 -17q-32 0 -49 19t-17 53q0 32 17 75l2 5l-18 -17q-4 -4 -9 -4t-5 4q0 5 7 12q26 23 53.5 48.5t46.5 48.5q-7 -3 -15 -3t-12 4q-7 5 -7 18q0 11 10.5 23t43.5 21q7 2 14.5 3t14.5 2q32 45 56 83.5t38 51.5q6 7 21.5 12t33 8t27.5 3q33 0 33 -6q0 -4 -15 -19
q-25 -24 -58.5 -59.5t-68.5 -76.5q29 -4 53.5 -15t35.5 -28q4 -5 4 -12q0 -8 -5 -8q-4 0 -9 5q-21 21 -70 21q-10 0 -20.5 -1t-21.5 -3q-34 -44 -62 -88t-40 -82q-6 -18 -6 -33t7 -24.5t21 -9.5q9 0 22 5q19 7 44 23.5t50.5 37.5t48 41t37.5 34t17 16q3 3 5 3q4 0 4 -6
q0 -7 -6 -13q-10 -10 -30.5 -30t-47 -44.5t-56.5 -46.5t-60.5 -36.5t-58.5 -14.5z" />
    <glyph glyph-name="u" unicode="u" horiz-adv-x="459" 
d="M299 -39q-13 5 -25.5 18t-12.5 45q0 27 9 56.5t23 58.5q-26 -33 -56.5 -65t-61 -52.5t-56.5 -20.5q-22 0 -36.5 12t-14.5 37q0 18 7 39t25 47t39.5 51.5t37.5 43.5q11 13 11 21q0 10 -11 10q-12 0 -34 -16q-23 -17 -49 -41.5t-49 -47t-39 -35.5q-3 -3 -6 -3q-5 0 -5 6
q0 5 9 13q44 38 73 69.5t57 53.5q15 12 31 17.5t30 5.5q24 0 40 -14t16 -39q0 -19 -10 -40q-11 -25 -29.5 -49.5t-35.5 -47.5q-13 -19 -19 -31t-6 -18q0 -8 8 -8t23 9t31 23q11 10 19.5 18.5l12.5 12.5q23 24 46 51.5t40 50.5q13 17 20.5 26t16.5 19q17 19 36 20
q11 0 25.5 -4.5t28.5 -17.5q-10 -14 -29.5 -38.5t-42 -54t-43 -60.5t-33.5 -58t-13 -47q0 -14 8 -22q4 -4 0 -4.5t-6 0.5z" />
    <glyph glyph-name="v" unicode="v" horiz-adv-x="294" 
d="M42 0q-11 0 -17 3q14 20 26.5 53t22.5 67t15.5 58.5t5.5 26.5l-42 -42q-13 -13 -28 -27t-30 -26q-4 -3 -7.5 -5.5t-6.5 -2.5q-4 0 -4 4q0 6 9 14q28 25 61.5 56t49.5 65q5 12 5 22q0 13 -5 16q-4 3 -4 8q0 9 9 9q6 0 15.5 -5.5t14.5 -10.5q12 -12 15.5 -30t3.5 -37
q0 -28 -5.5 -63t-15.5 -67.5t-25 -55.5l-2 -3q6 4 10.5 7.5t6.5 5.5q30 30 52 67.5t41 77t39 74.5t46 60q15 15 39 15q13 0 26 -7.5t19 -22.5q2 -4 -1.5 -5t-5.5 3q-6 15 -19 15t-34 -19q-36 -35 -65 -81.5t-58.5 -94t-68.5 -86.5q-16 -16 -42 -26t-46 -10z" />
    <glyph glyph-name="w" unicode="w" horiz-adv-x="521" 
d="M68 -1q-40 0 -54 17.5t-14 39.5q0 34 15.5 57t40.5 52q-20 -17 -37.5 -32.5t-28.5 -23.5q-3 -3 -6 -3q-4 0 -4 4q0 8 12 18q25 19 52.5 46.5t51.5 52t40 32.5q11 6 21 8.5t17 2.5q11 0 16 -3.5t2 -7.5q-17 -18 -34 -44.5t-31 -55.5t-22.5 -55.5t-8.5 -43.5q0 -21 14 -21
q11 0 25.5 10t27.5 22q16 14 34 36.5t37 47t37 43.5q15 17 31.5 28.5t35.5 11.5q14 0 21 -6t3 -10q-20 -21 -36.5 -50t-26 -58.5t-9.5 -52.5q0 -22 14 -22q11 0 25.5 10t28.5 22q15 14 28.5 28.5t26.5 30.5q2 52 13.5 85.5t27.5 50.5q6 8 25.5 14t35.5 6q19 0 19 -10
q0 -4 -6 -12q-11 -13 -26.5 -34.5t-28.5 -44t-18 -39.5q-4 -16 -4 -29q0 -19 13 -19q12 0 31 15q3 3 12 10t18 15t13 12q5 5 8 5t3 -5q0 -6 -3 -9q-9 -9 -24 -23t-23 -20q-9 -7 -23 -14t-28 -7q-12 0 -21.5 8t-11.5 27q-37 -44 -78 -78.5t-76 -34.5q-40 0 -53.5 17.5
t-13.5 38.5q0 15 5 32q-33 -36 -67.5 -62t-63.5 -26z" />
    <glyph glyph-name="x" unicode="x" horiz-adv-x="300" 
d="M-105 -96q-4 0 -5.5 3t2.5 7q31 41 80.5 100t109.5 119q-15 39 -15 78q0 42 16 64q5 6 22 16t32 17q14 6 21 6q6 0 1 -8q-16 -26 -16 -72q0 -20 3 -41q49 44 100 79t100 55.5t93 18.5q2 0 1.5 -2t-4.5 -2q-36 0 -91 -31t-116 -79q-19 -16 -38.5 -33t-39.5 -34
q8 -36 21.5 -69t29.5 -54q11 -13 23.5 -21t28.5 -8q19 0 28 12q2 2 4 0.5t0 -3.5q-7 -10 -18.5 -15t-22.5 -5q-39 0 -68.5 16.5t-50 42t-33.5 50.5q-62 -59 -111.5 -113.5t-72.5 -84.5q-6 -9 -14 -9z" />
    <glyph glyph-name="y" unicode="y" horiz-adv-x="444" 
d="M-68 -269q-48 0 -88.5 14.5t-67.5 45.5t-36 83q-2 8 4 8q4 0 6 -7q11 -56 54.5 -91t99.5 -35q52 0 105 27.5t103 75t94 107.5q47 64 85.5 133t74.5 139q-13 -19 -27 -39t-28 -37q-27 -34 -61.5 -69.5t-68.5 -60t-62 -24.5q-22 0 -36.5 12t-14.5 37q0 22 8 40.5t18 34.5
q17 28 41 57t42 49q11 13 11 21q0 10 -11 10q-13 0 -33 -16q-24 -17 -49 -40.5t-47 -44.5t-36 -33q-7 -5 -10 -5q-4 0 -4 4q0 6 7 12q20 17 42.5 40t45 45.5t41.5 36.5q15 12 31 17.5t30 5.5q24 0 40.5 -14t16.5 -39q0 -19 -10 -40q-12 -25 -30.5 -49.5t-35.5 -47.5
q-13 -19 -19 -31t-6 -17q0 -9 8 -9t23.5 9t31.5 23q27 25 59.5 61.5t63.5 76.5t54 74q14 33 30 58t41 25q14 0 22.5 -8t8.5 -16q0 -7 -6 -11.5t-20 -3.5q-11 2 -25 -4t-29 -38q-16 -36 -30.5 -84t-34.5 -103t-52.5 -113.5t-86.5 -115.5q-53 -56 -125.5 -96t-151.5 -40z" />
    <glyph glyph-name="z" unicode="z" horiz-adv-x="410" 
d="M-187 -299q-51 0 -76.5 14.5t-25.5 37.5q0 32 47.5 73t141.5 76q48 19 99 30.5t100 11.5q15 0 30 -1.5t29 -3.5q18 -4 31 -12.5t13 -15.5q0 -6 -8 -4q-7 2 -15.5 3t-18.5 1q-31 0 -71 -7.5t-82 -20t-80 -27.5q-60 -22 -96 -53.5t-36 -54.5q0 -12 12.5 -20t40.5 -8
q29 0 67.5 8.5t77 22t69.5 26.5q59 25 108.5 63.5t79 81t29.5 77.5q0 32 -29.5 52.5t-97.5 20.5q-34 0 -67.5 -4.5t-57 -9.5t-26.5 -5q-10 0 -10 8q0 10 12 23t23 17q24 8 57.5 16t88.5 30q33 14 60.5 28t27.5 24q0 7 -12.5 9.5t-30 3.5t-33.5 1q-24 0 -52 -3t-49 -11
t-27 -25q-15 9 -15 28q0 34 36 55q21 13 52.5 20t71.5 7q59 0 85.5 -15t26.5 -37q0 -32 -45 -61q-20 -13 -49.5 -24.5t-64.5 -22.5q10 1 19.5 1.5t18.5 0.5q74 0 115 -27t41 -72q0 -34 -27.5 -77.5t-86.5 -89.5q-43 -34 -88.5 -59.5t-74.5 -37.5q-60 -26 -129.5 -44
t-128.5 -18z" />
    <glyph glyph-name="braceleft" unicode="{" horiz-adv-x="399" 
d="M222 -51q-60 0 -90 27.5t-30 70.5q0 28 11.5 60t28.5 62t32.5 53t22.5 33q10 16 10 30q0 17 -12.5 30t-31.5 20q-15 5 -15 15q0 7 8.5 13.5t19.5 8.5q27 5 51.5 21.5t52 50t63.5 89.5q35 55 85.5 73.5t106.5 18.5q28 0 56 -3t55 -7q8 -2 8 -9q0 -4 -3 -7.5t-8 -2.5
q-21 3 -39.5 5t-35.5 2q-46 0 -83 -19.5t-72 -74.5q-37 -58 -80 -90t-83.5 -45.5t-69.5 -19.5q-5 0 -10 -3q20 -7 44 -17.5t42 -24.5t18 -32q0 -11 -7 -21q-9 -13 -24 -43t-26 -66q-7 -22 -14 -51t-7 -56q0 -28 12 -48.5t45 -20.5h8.5t8.5 1q11 2 27 4.5t31 6.5h3q6 0 6 -5
q0 -9 -10 -12q-30 -9 -56 -13t-49 -4z" />
    <glyph glyph-name="bar" unicode="|" horiz-adv-x="250" 
d="M125 -139q-11 0 -8 14q11 45 17.5 113t9.5 149.5t3 165.5q0 101 -3.5 196.5t-8.5 167.5v3q0 16 13 16q11 0 23.5 -6.5t16.5 -7.5q6 -1 9 -53.5t3 -132.5q0 -59 -1.5 -127.5t-5 -138t-9 -132.5t-12.5 -112.5t-16 -78.5q-6 -19 -15 -27.5t-16 -8.5z" />
    <glyph glyph-name="braceright" unicode="}" horiz-adv-x="399" 
d="M25 -44q-28 0 -56.5 3t-55.5 7q-8 2 -8 9q0 11 11 9q41 -6 73 -6q47 0 84 19.5t73 74.5q37 59 80 90.5t83.5 45t69.5 18.5l10 3q-19 8 -43.5 18.5t-42.5 24.5t-18 31q0 11 7 21q9 14 24 44t26 66q7 21 14 50.5t7 56.5q0 29 -12.5 49t-45.5 20h-7.5t-8.5 -1
q-10 -1 -26.5 -3.5t-31.5 -7.5q-1 0 -1.5 -0.5t-1.5 -0.5q-6 0 -6 6q0 9 10 12q30 9 56 13t48 4q61 0 91 -27.5t30 -71.5q0 -28 -11.5 -59.5t-28.5 -61.5t-32 -53t-23 -34q-10 -16 -10 -30q0 -16 12.5 -29t31.5 -20q15 -5 15 -15q0 -7 -8.5 -14t-19.5 -9q-26 -4 -51 -20.5
t-52.5 -50t-63.5 -90.5q-34 -54 -84.5 -72.5t-106.5 -18.5z" />
    <glyph glyph-name="asciitilde" unicode="~" horiz-adv-x="461" 
d="M104 159q-2 0 -2 3q0 6 7 16q8 12 27.5 29t47.5 30t60 13q21 0 44 -8.5t46.5 -17.5t43.5 -9q17 0 34 7.5t31 17.5q8 6 14 6q9 0 3 -9q-19 -22 -51 -43t-64 -21q-21 0 -42 8t-42.5 16.5t-46.5 8.5q-19 0 -46.5 -11.5t-49.5 -27.5q-9 -8 -14 -8z" />
    <glyph glyph-name="uni00A0" unicode="&#xa0;" horiz-adv-x="267" 
 />
    <glyph glyph-name="exclamdown" unicode="&#xa1;" horiz-adv-x="260" 
d="M164 243q-11 0 -20 6q-11 9 -11 25q0 21 19 42q10 12 23 18.5t24 6.5q13 0 21 -7q10 -9 10 -25q0 -22 -18 -42q-21 -24 -48 -24zM-88 -208q-16 0 -24 7t-8 12q1 14 17.5 30.5t39 34.5t39.5 36q27 29 53 65.5t47 75t33.5 71t12.5 52.5q0 18 -11 21q-4 2 -3 5.5t7 0.5
q18 -7 26 -24.5t8 -41.5q0 -31 -11.5 -69.5t-29.5 -77t-38.5 -71t-38.5 -52.5q-40 -44 -70 -59.5t-49 -15.5z" />
    <glyph glyph-name="cent" unicode="&#xa2;" horiz-adv-x="375" 
d="M126 -6q-9 0 -9 11q0 9 9 29.5t21.5 44.5t24.5 44.5t17 29.5q-33 5 -54 26t-21 55q0 45 22 83.5t58 67.5t78.5 44.5t84.5 14.5q4 -1 7 -1h6q30 45 50 72.5t24 27.5h1q4 0 9 -1t5 -7t-8 -17q-13 -17 -28 -37t-30 -43q37 -13 37 -45q0 -13 -6 -25q-4 -8 -11 -12.5t-13 -4.5
q-9 0 -9 7q0 5 3 9q12 23 12 38q0 20 -23 19q-37 -55 -77.5 -119t-78.5 -127q9 -3 22 -3q19 0 43.5 8t53.5 26l46 29q7 4 12 4t5 -5q0 -9 -12 -18q-19 -12 -41 -24t-43 -22q-53 -24 -102 -22q-5 -11 -19.5 -38.5t-29 -57t-21.5 -48.5q-5 -13 -15 -13zM209 186
q35 59 73 119.5t70 110.5q-2 -1 -4.5 -2t-5.5 -3q-20 -9 -45 -27.5t-48.5 -42t-40 -49t-20.5 -48.5q-1 -4 -1 -7.5v-6.5q0 -28 22 -44z" />
    <glyph glyph-name="sterling" unicode="&#xa3;" horiz-adv-x="580" 
d="M559 -82q8 13 -10 24.5t-54 20t-85 13.5t-103 5q-26 0 -53 -1.5t-53 -3.5q-41 -4 -89 -12.5t-80 -8.5q-20 0 -29 4q-8 4 -8 12q0 10 17.5 24t69.5 24q19 16 35.5 49t31.5 67t28 53q-25 1 -42.5 9t-17.5 19q0 8 14 17t45 15q4 1 18.5 2t18.5 2q38 65 82 114.5t81 67.5
q48 23 104 23q49 0 90.5 -18t55.5 -53v-1q0 -2 -3 -2.5t-5 3.5q-10 20 -33 28t-49 8q-20 0 -39.5 -4t-34.5 -11q-24 -11 -53 -34.5t-56.5 -54.5t-50.5 -63q20 -1 42.5 -3.5t41.5 -5.5t27 -7t14.5 -7.5t10.5 -8.5q6 -6 6 -10q0 -3 -4 -3q-2 0 -10 3q-11 4 -34 4
q-28 0 -65 -4.5t-72 -11.5q-5 -6 -16.5 -35t-37 -67t-74.5 -72q9 2 19.5 3t21.5 2q30 3 70 3q52 0 109.5 -5.5t108 -17t82.5 -30.5t32 -47q0 -8 -3 -17q-2 -7 -8 -6.5t-4 6.5z" />
    <glyph glyph-name="currency" unicode="&#xa4;" horiz-adv-x="600" 
d="M277 288l-202 -119l180 155q-5 17 -5 33q0 39 22 79.5t55 68.5l-55 156l106 -119q51 28 103 28q23 0 43 -7t35 -23l204 121l-184 -158q6 -18 6 -36q0 -39 -22 -75t-54 -68l57 -155l-109 119q-53 -28 -101 -28t-79 28zM390 306q31 0 60 19t48.5 50t19.5 67q0 35 -21 58
t-53 23q-30 0 -59 -19t-48 -50t-19 -68q0 -34 19.5 -57t52.5 -23z" />
    <glyph glyph-name="yen" unicode="&#xa5;" horiz-adv-x="444" 
d="M256 -52q-77 6 -72 69q2 19 7 42.5t10 40.5q-20 -3 -41.5 -6t-47.5 -6q-6 0 -6 10q0 8 3.5 16.5t9.5 8.5q26 2 49 3t42 2q4 11 7.5 22t6.5 22q-16 -2 -34 -5t-38 -5q-6 0 -6 10q0 8 3.5 16.5t8.5 8.5q22 2 40.5 3t34.5 2l3 11q8 32 10.5 68.5t0.5 70.5q-1 36 -13.5 52.5
t-28.5 16.5t-31 -13t-25 -36q-10 -24 -15.5 -50t-4.5 -52q1 -4 -0.5 -5.5t-3.5 2.5q-6 14 -6 39q0 21 4.5 44.5t13.5 39.5q16 30 44 51.5t56 21.5q20 0 37 -14.5t26 -46.5q5 -17 6.5 -41t1.5 -50q0 -37 -2.5 -69t-5.5 -40q31 44 67.5 89.5t77.5 85t82 63.5q13 8 30 14t31 6
q7 0 13 -2t9 -7q1 -1 1 -1.5v-0.5q0 -2 -3 -2h-5q-30 2 -67 -20t-76.5 -59t-76 -81t-64.5 -85q47 0 65.5 -1.5t26.5 -2.5q9 -1 9 -7q0 -5 -8 -5q-14 0 -35 -1t-41 -1.5t-31 -1.5q-10 -15 -17.5 -28.5t-13.5 -24.5q50 -1 69 -2.5t28 -2.5q10 -2 10 -7t-9 -5q-13 0 -34.5 -1
t-41.5 -1.5t-31 -1.5l-3 -7q-4 -13 -12.5 -43.5t-8.5 -57.5q0 -16 5.5 -28.5t18.5 -15.5q2 0 3 -0.5t2 -0.5q10 0 19 7q5 4 6 1.5t-4 -5.5q-13 -12 -35 -10z" />
    <glyph glyph-name="brokenbar" unicode="&#xa6;" horiz-adv-x="250" 
d="M171 326q-9 0 -16.5 4t-7.5 11q0 91 -3 176t-8 150v3q0 16 13 16q11 0 23.5 -6.5t16.5 -7.5q6 -1 8.5 -50.5t2.5 -126.5v-73.5t-2 -79.5q0 -7 -8 -11.5t-19 -4.5zM126 -139q-11 0 -8 14q14 58 21 151t8 199q0 8 7 11.5t16 3.5t17 -4.5t7 -13.5q-3 -68 -8.5 -132
t-12.5 -114t-16 -79q-6 -19 -15 -27.5t-16 -8.5z" />
    <glyph glyph-name="section" unicode="&#xa7;" horiz-adv-x="553" 
d="M130 -139q-34 0 -73.5 7t-76 22.5t-64 41t-37.5 63.5q35 -32 97 -46.5t127 -14.5q85 0 148 19q18 5 42 16.5t47 27.5t38.5 35t15.5 39q0 8 -3 17q-8 19 -35 35q-14 9 -43 19.5t-60.5 26.5t-53.5 39t-22 56q0 35 25 72q-11 20 -8 45q5 41 37 81t81.5 75.5t107 62.5
t113.5 42.5t99 15.5t74.5 -16.5t26.5 -58.5q-2 -17 -24 -42t-53.5 -55.5t-62 -63.5t-50 -67t-17.5 -66q-16 13 -23.5 29t-7.5 33q0 24 10 49t25 47.5t28 38.5q24 28 53 53.5t59 46.5q-8 12 -31 12t-52 -10t-53.5 -21.5t-34.5 -17.5q-43 -23 -86.5 -52t-80 -59t-59 -55.5
t-24.5 -41.5q-2 -21 18.5 -35.5t52 -27t62.5 -28.5q42 -20 61 -47t19 -56q0 -35 -26 -69q9 -19 9 -39q0 -36 -27 -71t-73 -58q-32 -16 -67.5 -26t-67 -15t-53 -6.5t-27.5 -1.5zM387 130q11 11 17.5 23.5t6.5 25.5t-9 26t-29 26q-15 9 -47 21t-64 29q-30 -33 -30 -51
q0 -20 21 -34.5t51.5 -26.5t60.5 -27q11 -4 22 -12z" />
    <glyph glyph-name="dieresis" unicode="&#xa8;" horiz-adv-x="500" 
d="M307 370q-7 0 -11.5 6t-4.5 14q0 16 13 29.5t31 21.5t31 8q9 0 9 -10q0 -12 -14 -30q-7 -9 -22 -24t-32 -15zM181 370q-7 0 -11.5 6t-4.5 14q0 16 13 29.5t31 21.5t31 8q9 0 9 -10q0 -12 -14 -30q-7 -9 -22 -24t-32 -15z" />
    <glyph glyph-name="copyright" unicode="&#xa9;" horiz-adv-x="767" 
d="M406 49q-90 0 -149 33.5t-88 88t-29 117.5q0 57 22.5 114.5t66 108t107.5 85.5q49 27 114.5 41.5t132.5 14.5q41 0 80.5 -5.5t73.5 -17.5q27 -9 54 -28t47.5 -44.5t25.5 -56.5q3 -15 3 -32q0 -46 -20 -100t-57.5 -107t-89.5 -98.5t-115.5 -75t-136.5 -36.5
q-11 -1 -21.5 -1.5t-20.5 -0.5zM429 115q26 0 53 3q104 13 181.5 64.5t122.5 118.5q42 61 42 119q0 47 -27 83.5t-72 62t-100.5 38.5t-111.5 13q-47 0 -91.5 -10t-80.5 -30q-88 -49 -129 -116t-41 -132q0 -57 30 -105.5t87 -78.5t137 -30zM417 176q-66 0 -103 36.5t-37 88.5
q0 32 14.5 65.5t45.5 65.5q32 34 80 59t100 39t94 14q36 0 60 -15.5t24 -39.5q0 -22 -22 -47q-24 -26 -38.5 -36.5t-21.5 -10.5t-7 8t5.5 19t15.5 19q17 15 24.5 27.5t7.5 22.5q0 19 -21 28.5t-48 9.5q-39 0 -80.5 -15.5t-79 -40.5t-65.5 -56q-27 -30 -39.5 -57t-12.5 -50
q0 -42 35 -67t94 -25q12 0 25 1.5t27 3.5q38 7 73.5 21t64.5 30.5t45 29.5q4 3 5.5 0.5t-0.5 -4.5q-15 -19 -50.5 -43t-78 -44.5t-80.5 -29.5q-15 -4 -29 -5.5t-27 -1.5z" />
    <glyph glyph-name="ordfeminine" unicode="&#xaa;" horiz-adv-x="289" 
d="M156 378q-19 0 -29 11.5t-10 30.5q0 17 9.5 38t29.5 43q21 23 52.5 37t59.5 14q21 0 37 -9q11 -7 15.5 -12.5t7.5 -13.5q6 0 16 -4t10 -13q0 -8 -6 -15q-5 -6 -15.5 -17.5t-19.5 -25.5q-16 -24 -16 -36q0 -9 10 -9q11 0 30 11q23 13 50 35t43 37q5 3 6 3q6 0 0 -8
q-24 -22 -55.5 -48.5t-60.5 -40.5q-10 -4 -18 -6t-15 -2q-16 0 -24.5 9.5t-8.5 23.5q0 13 6 26l4 11q-16 -19 -31 -32t-31 -23q-13 -8 -24.5 -11.5t-21.5 -3.5zM175 394q11 0 31 13t47 40q4 4 19 18t29 30.5t14 27.5t-20 11q-17 0 -41 -13.5t-47 -39.5q-22 -27 -32.5 -46
t-10.5 -30t11 -11zM109 307q-5 -2 -5 10q0 8 3.5 17.5t8.5 9.5q34 4 60.5 5.5t46.5 1.5q29 0 46.5 -1.5t25.5 -3.5q9 -1 9 -6q0 -6 -8 -6q-38 -1 -67 -5.5t-57 -10t-63 -11.5z" />
    <glyph glyph-name="guillemotleft" unicode="&#xab;" horiz-adv-x="458" 
d="M324 44q-2 0 -2 2q0 3 6 10q8 13 8 28q0 26 -17 55t-43.5 49t-55.5 20q-23 0 -23 4q0 3 15 12l23 13q27 17 58.5 38t60 44t50 44.5t29.5 37.5q2 5 10.5 8.5t15.5 3.5q9 0 6 -6q-12 -24 -40.5 -52t-66 -55.5t-76.5 -51.5q17 -7 37 -27t35 -46.5t15 -54.5q0 -14 -5 -28.5
t-17 -27.5q-17 -20 -23 -20zM167 22q-1 0 -1 1q0 3 5 11q8 13 8 29q0 26 -16.5 54.5t-43 48.5t-55.5 20q-23 0 -23 3t14 12q6 4 12 7t11 7q27 17 58.5 38t60.5 44t50.5 44.5t29.5 37.5q2 5 10.5 8.5t14.5 3.5q9 0 6 -6q-11 -25 -39.5 -53t-66 -55.5t-76.5 -51.5
q17 -7 37 -26.5t35 -46t15 -54.5q0 -14 -5 -28.5t-17 -27.5q-17 -20 -24 -20z" />
    <glyph glyph-name="logicalnot" unicode="&#xac;" horiz-adv-x="461" 
d="M137 163q-6 0 -6 15q0 12 4 25t11 14q41 4 74.5 5.5t58.5 1.5q46 0 72.5 -3t39.5 -5q7 -1 10 -6q4 -4 0 -16q-20 -52 -25.5 -96t-1.5 -81q1 -12 -12 -13q-8 0 -8 7q-4 43 3.5 89.5t29.5 97.5q-50 -2 -88.5 -10.5t-76 -16.5t-84.5 -8h-1z" />
    <glyph glyph-name="uni00AD" unicode="&#xad;" horiz-adv-x="438" 
d="M135 163q-6 0 -6 15q0 12 4 25t11 14q41 4 74.5 5.5t58.5 1.5q46 0 72.5 -3t39.5 -5q12 -2 12 -11q0 -7 -10 -7q-52 -1 -92 -6.5t-78 -13t-85 -15.5h-1z" />
    <glyph glyph-name="registered" unicode="&#xae;" horiz-adv-x="766" 
d="M405 49q-90 0 -148.5 33.5t-87.5 88t-29 117.5q0 57 22 114.5t65.5 108t107.5 85.5q49 27 114.5 41.5t132.5 14.5q41 0 80.5 -5.5t73.5 -17.5q27 -9 54 -28t47.5 -44.5t25.5 -56.5q3 -15 3 -32q0 -46 -20 -100t-57.5 -107t-89.5 -98.5t-115.5 -75t-136.5 -36.5
q-11 -1 -21.5 -1.5t-20.5 -0.5zM428 115q26 0 53 3q104 13 181.5 64.5t122.5 118.5q42 61 42 119q0 47 -27 83.5t-72 62t-100.5 38.5t-111.5 13q-47 0 -91.5 -10t-80.5 -30q-88 -49 -129 -116t-41 -132q0 -51 24 -95.5t69 -74.5q1 -5 5 -5h0.5h1.5q-4 3 -7 5v1q0 12 12.5 36
t32.5 55.5t43 64.5q-3 9 -3 16v5q1 6 8 14t16.5 14t15.5 5q24 32 44.5 59t35 43t17.5 16q5 0 7.5 -4.5t2.5 -8.5l-14.5 -18t-37 -47.5t-48.5 -64.5q1 -1 1 -5q5 1 10.5 1.5t11.5 0.5q47 3 101 21t93 45q29 20 48 42.5t19 41.5t-22.5 31.5t-75.5 12.5q-23 0 -58.5 -6.5
t-75 -17.5t-73 -25t-51.5 -30q-8 -6 -8 -10q0 -1 0.5 -1.5t0.5 -1.5q5 -8 -4 -4q-10 7 -14.5 17t-4.5 17q0 5 2 9q14 20 49.5 37.5t82 31t94.5 21t86 7.5q25 0 41 -3q23 -5 39.5 -24t16.5 -45q0 -25 -19.5 -54.5t-67.5 -58.5q-27 -15 -61.5 -29t-70 -23t-66.5 -11
q-5 0 -10 -0.5t-9 -0.5q9 -24 30 -49.5t47 -48t52 -36t45 -13.5q15 0 27 7t13 18q1 2 3 2t2 -3q-2 -21 -23.5 -30.5t-47.5 -9.5q-43 0 -80.5 20.5t-65.5 50t-43 56.5q-26 -37 -48 -72.5t-31 -58.5q-3 -8 -10 -10q30 -18 69 -28.5t85 -10.5z" />
    <glyph glyph-name="macron" unicode="&#xaf;" horiz-adv-x="500" 
d="M132 382q-3 -1 -3 6t3.5 17.5t8.5 20t8 9.5q30 4 57.5 6t52.5 2q42 0 72.5 -4.5t45.5 -11.5q3 -1 3 -9q-1 -5 -5.5 -10.5t-9.5 -4.5q-16 2 -31.5 3t-29.5 1q-49 0 -90 -8.5t-82 -16.5z" />
    <glyph glyph-name="degree" unicode="&#xb0;" horiz-adv-x="292" 
d="M271 466q-18 0 -30 9t-12 31q0 5 0.5 9.5t1.5 9.5q3 15 14.5 32.5t26.5 34t26 25.5q15 12 35.5 20.5t40.5 8.5q19 0 33 -7q25 -12 25 -41q0 -15 -8.5 -33.5t-25.5 -38.5q-14 -15 -36 -29t-46.5 -22.5t-44.5 -8.5zM273 485q15 0 37.5 10.5t42.5 32.5q14 15 19.5 28t5.5 23
q0 16 -10 21q-6 3 -12 4t-11 1q-24 0 -45.5 -17t-35.5 -39.5t-14 -40.5q0 -15 11 -21q6 -2 12 -2z" />
    <glyph glyph-name="plusminus" unicode="&#xb1;" horiz-adv-x="461" 
d="M232 69q-4 0 -8 3.5t-3 8.5q3 39 17 81t34 83q-33 -4 -63.5 -9t-62.5 -10h-1q-6 0 -6 15q0 12 4 25t11 14q38 4 74 5.5t68 2.5q44 72 92 120q5 5 19 5q11 0 21 -3.5t5 -8.5q-22 -22 -47 -51.5t-49 -62.5q50 -1 87.5 -5t57.5 -10q7 -1 7 -9q0 -5 -4.5 -10.5t-11.5 -4.5
q-23 2 -45 3t-42 1q-40 0 -75 -3q-28 -43 -47 -87t-22 -83q0 -10 -10 -10zM102 -25q-6 0 -6 15q0 12 4 25t11 14q41 4 74.5 5.5t58.5 1.5q46 0 72.5 -3t39.5 -5q12 -2 12 -11q0 -7 -10 -7q-52 -1 -92 -6.5t-78 -13t-85 -15.5h-1z" />
    <glyph glyph-name="uni00B2" unicode="&#xb2;" horiz-adv-x="491" 
d="M540 340q-7 0 -4 8q3 11 -17.5 19.5t-54.5 13.5t-73 5q-25 0 -50.5 -2t-48.5 -7q-9 -2 -19 -5t-21 -7q-16 -4 -30 -8.5t-25 -4.5q-7 0 -12 3t-5 13t8.5 22.5t31 25t64.5 20.5q13 2 19 3.5t16 6.5q38 17 76.5 34t75.5 37q27 16 38.5 32.5t11.5 32.5q0 20 -14.5 34
t-36.5 17q-9 2 -17.5 2h-16.5q-38 0 -68 -9.5t-47 -22t-17 -21.5q0 -10 21 -10q14 0 39 6q51 12 74 36q4 5 8 0q5 -14 -10.5 -28t-35.5 -23t-29 -12q-37 -9 -62 -9q-46 0 -46 25q0 15 18 31q17 16 50.5 30.5t74 24.5t77.5 10q34 0 61 -9.5t40 -32.5q7 -11 7 -26
q0 -22 -16 -44.5t-48 -42.5q-34 -21 -78 -37.5t-85 -30.5q32 -1 65.5 -6.5t61.5 -16.5t43.5 -28.5t11.5 -41.5q-1 -7 -6 -7z" />
    <glyph glyph-name="uni00B3" unicode="&#xb3;" horiz-adv-x="461" 
d="M266 312q-39 0 -67.5 13.5t-28.5 45.5q0 29 27.5 49t58.5 33q22 8 53.5 12t59.5 4q15 0 28 -1t20 -3q11 -3 11 -10q0 -4 -14 -4q-11 0 -40 -5t-64 -14.5t-65 -21.5q-30 -13 -43 -24.5t-13 -20.5q0 -13 19.5 -20.5t50.5 -8.5q16 0 44 6.5t59.5 18.5t59.5 27.5t46 34
t18 37.5q0 9 -5 18.5t-17 19.5q-25 22 -63 25q-21 2 -21 12q0 13 35 16q17 1 36.5 6.5t33.5 18t11 33.5q-1 17 -17.5 29t-48.5 12q-23 0 -50 -7q-20 -4 -32.5 -14t-12.5 -18q0 -6 9 -11q8 -4 16.5 -7.5t20.5 -5.5q6 0 6 -5q0 -6 -14 -6q-17 0 -34.5 3.5t-25.5 7.5
q-16 6 -16 21q0 16 24 31.5t55 20.5q14 3 40.5 7t54.5 4q35 0 62.5 -10t27.5 -40q0 -21 -25 -43t-53 -33q9 -1 19.5 -4.5t18.5 -9.5q25 -21 25 -53q0 -33 -26 -67.5t-73 -56.5q-34 -16 -84.5 -29t-96.5 -13z" />
    <glyph glyph-name="acute" unicode="&#xb4;" horiz-adv-x="500" 
d="M250 346q-22 0 -20 6q0 6 14 8q20 4 51.5 22.5t64.5 42.5t54 42q5 3 11 3q10 0 20 -6t15 -14t-2 -13q-18 -14 -52.5 -36t-75.5 -38.5t-80 -16.5z" />
    <glyph glyph-name="uni00B5" unicode="&#xb5;" horiz-adv-x="377" 
d="M-119 -278q-11 10 -21.5 25t-10.5 41q0 28 19 74.5t49.5 102.5t66 111.5t70 101.5t60.5 72q22 22 44 22q11 0 25.5 -5t28.5 -19q-13 -13 -29 -33t-35 -44q-12 -20 -26.5 -39.5t-27.5 -37.5q-13 -19 -19 -31t-6 -18q0 -8 8 -8t23 9t31 23q11 10 19.5 18.5l12.5 12.5
q23 24 46 51.5t40 50.5q8 11 16 21t16 19l3 3t1 2q17 19 36 20q11 0 26 -4.5t29 -17.5q-10 -14 -29.5 -38.5t-42 -54t-43 -60.5t-33.5 -58t-13 -47q0 -14 8 -22q4 -4 0 -4.5t-6 0.5q-13 5 -25.5 18t-12.5 45q0 27 9 56.5t23 58.5q-26 -33 -57 -65t-61.5 -52.5t-56.5 -20.5
h-9q-70 -101 -107 -171.5t-37 -92.5q0 -8 2 -10q4 -4 1 -5.5t-5 0.5z" />
    <glyph glyph-name="paragraph" unicode="&#xb6;" horiz-adv-x="463" 
d="M-39 -186q-7 0 -7 5q3 6 10 8q29 6 60 32.5t62 66.5t60.5 86.5t55.5 92.5t46.5 85.5t33.5 63.5q-7 -1 -15.5 -1.5t-16.5 -0.5q-31 0 -55.5 11t-24.5 42q0 4 0.5 8.5t1.5 8.5q8 39 38 76.5t71 68.5t84 52t77 28q23 5 46 12t45 11q8 2 16.5 3t15.5 0q17 17 38 32t42 19
q3 1 6 1.5t6 0.5q9 0 12 -8q-5 -5 -17 -8t-23 -11q-32 -24 -68.5 -74t-74.5 -114.5t-76.5 -133.5t-75.5 -133t-71 -112t-63 -70q-5 -5 -10 -5q-5 -2 -5 2q3 5 7 8.5t8 7.5q17 17 37.5 46.5t41 64t38 66.5t28.5 53q29 57 60.5 119.5t68 123.5t80.5 111q-5 0 -8 -1
q-23 -5 -51 -31.5t-57.5 -67t-58.5 -87t-54.5 -92t-45.5 -82.5t-31 -58q-13 -25 -37 -64t-54 -81.5t-63 -81.5t-66 -66t-62 -33h-5z" />
    <glyph glyph-name="periodcentered" unicode="&#xb7;" horiz-adv-x="132" 
d="M42 127q-11 0 -19 6q-11 9 -11 25q0 23 18 42q22 25 47 25q13 0 21 -7q11 -9 11 -25q0 -21 -18 -42q-10 -12 -23.5 -18t-25.5 -6z" />
    <glyph glyph-name="cedilla" unicode="&#xb8;" horiz-adv-x="500" 
d="M65 -222q-5 0 -5 4q0 5 3.5 8t6.5 3q9 0 25.5 1t35 6t33 18t17.5 37q2 15 -5.5 31t-7.5 32q0 18 14 38.5t34.5 34.5t39.5 14q9 0 7 -6q-11 -1 -25 -10.5t-23.5 -21.5t-9.5 -24q0 -10 9 -25t18 -31.5t9 -33.5q0 -27 -20.5 -42.5t-50.5 -22t-59 -8.5t-46 -2z" />
    <glyph glyph-name="uni00B9" unicode="&#xb9;" horiz-adv-x="345" 
d="M286 357q-32 3 -46 27q-4 8 -4 17q0 7 2 14.5t5 16.5q11 32 31 69.5t45 71.5q-20 -13 -44.5 -27.5t-41.5 -23.5q-3 -2 -8 -2t-5 5q0 8 11 14q10 5 24 15t30 23q25 19 53.5 39t55.5 34t47 14q13 0 20 -5q5 -4 4 -8t-6 -3q-17 2 -36.5 -20.5t-39 -58.5t-37.5 -76.5
t-33 -75.5q-7 -19 -13.5 -34t-11.5 -25z" />
    <glyph glyph-name="ordmasculine" unicode="&#xba;" horiz-adv-x="230" 
d="M168 372q-16 0 -27.5 9t-11.5 30q0 4 0.5 9t1.5 10q2 7 3.5 13.5t5.5 12.5q-4 -4 -8.5 -7t-6.5 -5t-4 -2t-2 3q0 6 6 10q22 18 37 34t32 30q16 13 36.5 22.5t41.5 9.5q16 0 29 -6q25 -12 25 -41q0 -16 -8.5 -34.5t-25.5 -37.5q-16 -16 -39 -30q29 4 55.5 21t48.5 38
q5 4 7.5 1t-1.5 -6q-26 -25 -58 -44.5t-67 -18.5q-18 -9 -36 -15t-34 -6zM162 383q10 0 22 4t25 11q-10 5 -17.5 14t-7.5 24q0 29 22 52t49 30q-3 1 -6 1h-6q-26 0 -50.5 -19t-40 -44.5t-15.5 -45.5q0 -18 13 -24q5 -3 12 -3zM218 404q9 5 17.5 12.5t16.5 15.5q16 17 22 32
t6 26q0 14 -7 20q-4 2 -8 2q-11 0 -25.5 -9.5t-25.5 -24.5t-14 -30q-1 -4 -1 -7v-5q0 -26 19 -32zM99 307q-5 -2 -5 10q0 8 3.5 17.5t7.5 9.5q32 4 56.5 5.5t43.5 1.5q27 0 43 -1.5t24 -3.5t8 -6q0 -6 -7 -6q-35 -1 -62 -5.5t-53 -10t-59 -11.5z" />
    <glyph glyph-name="guillemotright" unicode="&#xbb;" horiz-adv-x="458" 
d="M196 35q-9 0 -6 6q12 25 40 52.5t65.5 55.5t76.5 51q-16 8 -36.5 27.5t-35.5 46t-15 54.5q0 14 5 28.5t17 27.5q17 20 24 20q1 0 1 -1q0 -3 -5 -11q-8 -13 -8 -29q0 -25 16.5 -54t43 -49t55.5 -20q23 0 23 -4q0 -3 -15 -12q-5 -4 -11 -7t-11 -6q-27 -16 -58.5 -37.5
t-60.5 -44.5t-50.5 -44t-29.5 -38q-2 -5 -10.5 -8.5t-14.5 -3.5zM9 14q-9 0 -6 6q12 25 40.5 52.5t66 55t76.5 51.5q-16 8 -36.5 27t-35.5 45.5t-15 54.5q0 15 5 29.5t17 27.5q17 20 24 20q1 0 1 -1q0 -3 -5 -11q-8 -13 -8 -29q0 -25 16.5 -54t43 -49t55.5 -20q23 0 23 -4
q0 -3 -15 -12q-5 -4 -11 -7t-11 -6q-27 -16 -58.5 -37.5t-60.5 -44.5t-50.5 -44t-29.5 -38q-2 -5 -10.5 -8.5t-15.5 -3.5z" />
    <glyph glyph-name="onequarter" unicode="&#xbc;" horiz-adv-x="716" 
d="M286 357q-32 3 -46 27q-4 8 -4 17q0 7 2 14.5t5 16.5q11 32 31 69.5t45 71.5q-20 -13 -44.5 -27.5t-41.5 -23.5q-3 -2 -8 -2t-5 5q0 8 11 14q10 5 24 15t30 23q25 19 53.5 39t55.5 34t47 14q13 0 20 -5q5 -4 4 -8t-6 -3q-17 2 -36.5 -20.5t-39 -58.5t-37.5 -76.5
t-33 -75.5q-7 -19 -13.5 -34t-11.5 -25zM200 15q-11 0 -11 14q0 7 4 16q10 24 36 65t63 92t79 105.5t83 105.5t76 92t57.5 65t27.5 24q3 0 14 2t21 2q13 0 13 -5q0 -4 -6 -10q-42 -45 -93.5 -104t-105 -123t-102.5 -126.5t-86.5 -116t-56.5 -89.5q-4 -9 -13 -9zM565 -1
q-50 -5 -66 30q-5 13 -5 26q0 26 16 61q-4 0 -7.5 -0.5t-7.5 -0.5l-19 -3q-8 -1 -16 -3.5t-16 -4.5q-9 -2 -17 -4t-16 -2q-17 0 -21 7q-1 1 -1 3q0 8 8 16t16.5 15t18.5 14q2 2 8 6l49 37q35 28 75.5 58t76.5 51t58 21q4 0 7 -1t6 -3q5 -4 4 -8t-6 -3q-23 2 -56 -41
t-68 -119q91 -8 91 -50q0 -6 -1 -9q-1 -7 -6 -5.5t-3 5.5q5 11 -21.5 19t-73.5 8q-18 -45 -21 -65q-1 -3 -1 -6v-5q0 -27 18 -35q4 -4 -1 -8h-1zM507 185l-30 -22t-28 -21q33 6 77 9q8 14 15 26t13 22q14 24 25 40q-27 -19 -72 -54z" />
    <glyph glyph-name="onehalf" unicode="&#xbd;" horiz-adv-x="789" 
d="M286 357q-32 3 -46 27q-4 8 -4 17q0 7 2 14.5t5 16.5q11 32 31 69.5t45 71.5q-20 -13 -44.5 -27.5t-41.5 -23.5q-3 -2 -8 -2t-5 5q0 8 11 14q10 5 24 15t30 23q25 19 53.5 39t55.5 34t47 14q13 0 20 -5q5 -4 4 -8t-6 -3q-17 2 -36.5 -20.5t-39 -58.5t-37.5 -76.5
t-33 -75.5q-7 -19 -13.5 -34t-11.5 -25zM200 15q-11 0 -11 14q0 7 4 16q10 24 36 65t63 92t79 105.5t83 105.5t76 92t57.5 65t27.5 24q3 0 14 2t21 2q13 0 13 -5q0 -4 -6 -10q-42 -45 -93.5 -104t-105 -123t-102.5 -126.5t-86.5 -116t-56.5 -89.5q-4 -9 -13 -9zM738 -20
q-7 0 -4 8q3 11 -17.5 19.5t-54.5 13.5t-73 5q-25 0 -50.5 -2t-48.5 -7q-9 -2 -19 -5t-21 -7q-16 -4 -30 -8.5t-25 -4.5q-7 0 -12 3t-5 13t8.5 22.5t31 25t64.5 20.5q13 2 19 3.5t16 6.5q38 17 76.5 34t75.5 37q27 16 38.5 32.5t11.5 32.5q0 20 -14.5 34t-36.5 17
q-9 2 -17.5 2h-16.5q-38 0 -68 -9.5t-47 -22t-17 -21.5q0 -10 21 -10q14 0 39 6q51 12 74 36q4 5 8 0q5 -14 -10.5 -28t-35.5 -23t-29 -12q-37 -9 -62 -9q-46 0 -46 25q0 15 18 31q17 16 50.5 30.5t74 24.5t77.5 10q34 0 61 -9.5t40 -32.5q7 -11 7 -26q0 -22 -16 -44.5
t-48 -42.5q-34 -21 -78 -37.5t-85 -30.5q32 -1 65.5 -6.5t61.5 -16.5t43.5 -28.5t11.5 -41.5q-1 -7 -6 -7z" />
    <glyph glyph-name="threequarters" unicode="&#xbe;" horiz-adv-x="869" 
d="M354 15q-11 0 -11 14q0 7 4 16q10 24 36 65t63 92t79 105.5t83 105.5t76 92t57.5 65t27.5 24q3 0 14 2t21 2q13 0 13 -5q0 -4 -6 -10q-42 -45 -93.5 -104t-105 -123t-102.5 -126.5t-86.5 -116t-56.5 -89.5q-4 -9 -13 -9zM718 -1q-50 -5 -66 30q-5 13 -5 26q0 26 16 61
q-4 0 -7.5 -0.5t-7.5 -0.5l-19 -3q-8 -1 -16 -3.5t-16 -4.5q-9 -2 -17 -4t-16 -2q-17 0 -21 7q-1 1 -1 3q0 8 8 16t16.5 15t18.5 14q2 2 8 6l49 37q35 28 75.5 58t76.5 51t58 21q4 0 7 -1t6 -3q5 -4 4 -8t-6 -3q-23 2 -56 -41t-68 -119q91 -8 91 -50q0 -6 -1 -9
q-1 -7 -6 -5.5t-3 5.5q5 11 -21.5 19t-73.5 8q-18 -45 -21 -65q-1 -3 -1 -6v-5q0 -27 18 -35q4 -4 -1 -8h-1zM660 185l-30 -22t-28 -21q33 6 77 9q8 14 15 26t13 22q14 24 25 40q-27 -19 -72 -54zM266 312q-39 0 -67.5 13.5t-28.5 45.5q0 29 27.5 49t58.5 33q22 8 53.5 12
t59.5 4q15 0 28 -1t20 -3q11 -3 11 -10q0 -4 -14 -4q-11 0 -40 -5t-64 -14.5t-65 -21.5q-30 -13 -43 -24.5t-13 -20.5q0 -13 19.5 -20.5t50.5 -8.5q16 0 44 6.5t59.5 18.5t59.5 27.5t46 34t18 37.5q0 9 -5 18.5t-17 19.5q-25 22 -63 25q-21 2 -21 12q0 13 35 16
q17 1 36.5 6.5t33.5 18t11 33.5q-1 17 -17.5 29t-48.5 12q-23 0 -50 -7q-20 -4 -32.5 -14t-12.5 -18q0 -6 9 -11q8 -4 16.5 -7.5t20.5 -5.5q6 0 6 -5q0 -6 -14 -6q-17 0 -34.5 3.5t-25.5 7.5q-16 6 -16 21q0 16 24 31.5t55 20.5q14 3 40.5 7t54.5 4q35 0 62.5 -10t27.5 -40
q0 -21 -25 -43t-53 -33q9 -1 19.5 -4.5t18.5 -9.5q25 -21 25 -53q0 -33 -26 -67.5t-73 -56.5q-34 -16 -84.5 -29t-96.5 -13z" />
    <glyph glyph-name="questiondown" unicode="&#xbf;" horiz-adv-x="500" 
d="M310 243q-11 0 -20 6q-11 9 -11 25q0 21 19 42q10 12 23 18.5t24 6.5q13 0 21 -7q10 -9 10 -25q0 -22 -18 -42q-21 -24 -48 -24zM-17 -304q-37 0 -67.5 13.5t-45.5 47.5q-10 23 -10 45q0 37 23 70t61 62.5t82.5 56.5t87.5 51t77.5 45.5t50.5 41.5q14 15 14 27q0 6 -6 12
q-3 3 -3 7q0 5 5 8.5t10 -1.5q12 -12 12 -25q0 -16 -12 -32.5t-29 -32t-33 -27t-24 -16.5q-46 -33 -92 -67t-91 -69q-37 -35 -54 -62.5t-17 -47.5q0 -32 34.5 -47t83.5 -15q38 0 81 8.5t80 23.5q30 13 55 25.5t41 21.5q50 31 76 57t26 42q0 17 -28 17q-18 0 -48 -8.5
t-73 -27.5q-35 -16 -72 -37t-66 -43t-41 -42q-2 -4 -3 -5t-4 3q-3 5 -3 9q0 13 13 31q28 41 64.5 76.5t84.5 56.5q38 17 70.5 25t57.5 8q33 0 51.5 -12.5t18.5 -34.5q0 -25 -29 -61t-92 -75q-18 -10 -42.5 -23t-53.5 -24q-21 -8 -58 -21.5t-79.5 -24t-83.5 -10.5z" />
    <glyph glyph-name="Agrave" unicode="&#xc0;" horiz-adv-x="1030" 
d="M199 -40q-62 0 -109 13t-67 29q-50 39 -50 90q0 43 37.5 86.5t114.5 80t194 57.5q50 9 101.5 14t103.5 5q44 0 88.5 -4t87.5 -13q14 -3 32 -7.5t37 -10.5q83 85 162 169t153 142q52 41 97 56t80 15q41 0 67.5 -12.5t34.5 -20.5q3 -3 0 -6t-6 0q-5 6 -24 13t-49 7
q-37 0 -87 -17t-111 -64q-75 -59 -148.5 -135.5t-149.5 -153.5q39 -14 71.5 -38t37.5 -59v-4q0 -4 -2 -4q-3 0 -6 6q-4 11 -22.5 19t-42.5 13t-46 8t-33 4l-11 1q-83 -80 -171.5 -147.5t-187.5 -101.5q-47 -16 -91.5 -23t-84.5 -7zM972 -89q-45 32 -66 77t-21 97t18 104
q18 53 52.5 110t75.5 111.5t79.5 100t65 75.5t31.5 37q6 8 9 8q4 0 6 -6.5t2 -14.5q0 -16 -5 -23q-26 -33 -62 -84t-73 -113.5t-69 -128.5t-51.5 -129t-19.5 -115q0 -30 8 -55t26 -44q1 -1 1 -3t-2 -4t-5 0zM202 -23q37 0 80 6.5t89 20.5q86 27 171 92t167 145q-13 1 -26 1
h-27q-70 0 -145.5 -7t-143.5 -20q-110 -19 -179.5 -47.5t-102 -59.5t-32.5 -59q0 -27 27 -47q14 -10 46 -17.5t76 -7.5zM1263 726q-38 0 -75 11.5t-65.5 27t-43.5 27.5q-6 5 -6 11q0 10 15.5 18.5t28.5 8.5q9 0 12 -3q20 -18 47 -37t54 -32.5t45 -17.5q10 -2 10 -7
q0 -2 -4 -4.5t-18 -2.5z" />
    <glyph glyph-name="Aacute" unicode="&#xc1;" horiz-adv-x="1030" 
d="M199 -40q-62 0 -109 13t-67 29q-50 39 -50 90q0 43 37.5 86.5t114.5 80t194 57.5q50 9 101.5 14t103.5 5q44 0 88.5 -4t87.5 -13q14 -3 32 -7.5t37 -10.5q83 85 162 169t153 142q52 41 97 56t80 15q41 0 67.5 -12.5t34.5 -20.5q3 -3 0 -6t-6 0q-5 6 -24 13t-49 7
q-37 0 -87 -17t-111 -64q-75 -59 -148.5 -135.5t-149.5 -153.5q39 -14 71.5 -38t37.5 -59v-4q0 -4 -2 -4q-3 0 -6 6q-4 11 -22.5 19t-42.5 13t-46 8t-33 4l-11 1q-83 -80 -171.5 -147.5t-187.5 -101.5q-47 -16 -91.5 -23t-84.5 -7zM972 -89q-45 32 -66 77t-21 97t18 104
q18 53 52.5 110t75.5 111.5t79.5 100t65 75.5t31.5 37q6 8 9 8q4 0 6 -6.5t2 -14.5q0 -16 -5 -23q-26 -33 -62 -84t-73 -113.5t-69 -128.5t-51.5 -129t-19.5 -115q0 -30 8 -55t26 -44q1 -1 1 -3t-2 -4t-5 0zM202 -23q37 0 80 6.5t89 20.5q86 27 171 92t167 145q-13 1 -26 1
h-27q-70 0 -145.5 -7t-143.5 -20q-110 -19 -179.5 -47.5t-102 -59.5t-32.5 -59q0 -27 27 -47q14 -10 46 -17.5t76 -7.5zM1265 726q-22 0 -20 6q0 6 14 8q25 4 59 17.5t67.5 31t54.5 33.5q10 8 24 8q17 0 26 -7t9 -15q0 -6 -6 -11q-18 -14 -55.5 -31t-83 -28.5t-89.5 -11.5z
" />
    <glyph glyph-name="Acircumflex" unicode="&#xc2;" horiz-adv-x="1030" 
d="M199 -40q-62 0 -109 13t-67 29q-50 39 -50 90q0 43 37.5 86.5t114.5 80t194 57.5q50 9 101.5 14t103.5 5q44 0 88.5 -4t87.5 -13q14 -3 32 -7.5t37 -10.5q83 85 162 169t153 142q52 41 97 56t80 15q41 0 67.5 -12.5t34.5 -20.5q3 -3 0 -6t-6 0q-5 6 -24 13t-49 7
q-37 0 -87 -17t-111 -64q-75 -59 -148.5 -135.5t-149.5 -153.5q39 -14 71.5 -38t37.5 -59v-4q0 -4 -2 -4q-3 0 -6 6q-4 11 -22.5 19t-42.5 13t-46 8t-33 4l-11 1q-83 -80 -171.5 -147.5t-187.5 -101.5q-47 -16 -91.5 -23t-84.5 -7zM972 -89q-45 32 -66 77t-21 97t18 104
q18 53 52.5 110t75.5 111.5t79.5 100t65 75.5t31.5 37q6 8 9 8q4 0 6 -6.5t2 -14.5q0 -16 -5 -23q-26 -33 -62 -84t-73 -113.5t-69 -128.5t-51.5 -129t-19.5 -115q0 -30 8 -55t26 -44q1 -1 1 -3t-2 -4t-5 0zM202 -23q37 0 80 6.5t89 20.5q86 27 171 92t167 145q-13 1 -26 1
h-27q-70 0 -145.5 -7t-143.5 -20q-110 -19 -179.5 -47.5t-102 -59.5t-32.5 -59q0 -27 27 -47q14 -10 46 -17.5t76 -7.5zM1109 741q-18 0 -15 3q0 4 16 8q20 5 56 17.5t74.5 27.5t63.5 26q14 7 24 7q11 0 18 -10q4 -7 12.5 -23.5t21 -30.5t28.5 -14q5 0 5 -4q0 -6 -23 -6
q-39 0 -63 13.5t-35 27.5q-43 -14 -94 -28t-89 -14z" />
    <glyph glyph-name="Atilde" unicode="&#xc3;" horiz-adv-x="1030" 
d="M199 -40q-62 0 -109 13t-67 29q-50 39 -50 90q0 43 37.5 86.5t114.5 80t194 57.5q50 9 101.5 14t103.5 5q44 0 88.5 -4t87.5 -13q14 -3 32 -7.5t37 -10.5q83 85 162 169t153 142q52 41 97 56t80 15q41 0 67.5 -12.5t34.5 -20.5q3 -3 0 -6t-6 0q-5 6 -24 13t-49 7
q-37 0 -87 -17t-111 -64q-75 -59 -148.5 -135.5t-149.5 -153.5q39 -14 71.5 -38t37.5 -59v-4q0 -4 -2 -4q-3 0 -6 6q-4 11 -22.5 19t-42.5 13t-46 8t-33 4l-11 1q-83 -80 -171.5 -147.5t-187.5 -101.5q-47 -16 -91.5 -23t-84.5 -7zM972 -89q-45 32 -66 77t-21 97t18 104
q18 53 52.5 110t75.5 111.5t79.5 100t65 75.5t31.5 37q6 8 9 8q4 0 6 -6.5t2 -14.5q0 -16 -5 -23q-26 -33 -62 -84t-73 -113.5t-69 -128.5t-51.5 -129t-19.5 -115q0 -30 8 -55t26 -44q1 -1 1 -3t-2 -4t-5 0zM202 -23q37 0 80 6.5t89 20.5q86 27 171 92t167 145q-13 1 -26 1
h-27q-70 0 -145.5 -7t-143.5 -20q-110 -19 -179.5 -47.5t-102 -59.5t-32.5 -59q0 -27 27 -47q14 -10 46 -17.5t76 -7.5zM1307 754q-24 0 -37.5 11t-25.5 21.5t-33 10.5q-19 0 -37 -10t-31 -19.5t-19 -9.5t-6 4q0 3 4 7q27 26 60 43.5t64 17.5q23 0 35.5 -5.5t21.5 -12
t19 -12t28 -5.5q20 0 34.5 8.5t22.5 20.5q8 -2 6 -10q-2 -13 -19.5 -27t-41 -23.5t-45.5 -9.5z" />
    <glyph glyph-name="Adieresis" unicode="&#xc4;" horiz-adv-x="1030" 
d="M199 -40q-62 0 -109 13t-67 29q-50 39 -50 90q0 43 37.5 86.5t114.5 80t194 57.5q50 9 101.5 14t103.5 5q44 0 88.5 -4t87.5 -13q14 -3 32 -7.5t37 -10.5q83 85 162 169t153 142q52 41 97 56t80 15q41 0 67.5 -12.5t34.5 -20.5q3 -3 0 -6t-6 0q-5 6 -24 13t-49 7
q-37 0 -87 -17t-111 -64q-75 -59 -148.5 -135.5t-149.5 -153.5q39 -14 71.5 -38t37.5 -59v-4q0 -4 -2 -4q-3 0 -6 6q-4 11 -22.5 19t-42.5 13t-46 8t-33 4l-11 1q-83 -80 -171.5 -147.5t-187.5 -101.5q-47 -16 -91.5 -23t-84.5 -7zM972 -89q-45 32 -66 77t-21 97t18 104
q18 53 52.5 110t75.5 111.5t79.5 100t65 75.5t31.5 37q6 8 9 8q4 0 6 -6.5t2 -14.5q0 -16 -5 -23q-26 -33 -62 -84t-73 -113.5t-69 -128.5t-51.5 -129t-19.5 -115q0 -30 8 -55t26 -44q1 -1 1 -3t-2 -4t-5 0zM202 -23q37 0 80 6.5t89 20.5q86 27 171 92t167 145q-13 1 -26 1
h-27q-70 0 -145.5 -7t-143.5 -20q-110 -19 -179.5 -47.5t-102 -59.5t-32.5 -59q0 -27 27 -47q14 -10 46 -17.5t76 -7.5zM1331 748q-17 0 -17 21q0 17 13.5 31t32.5 22.5t33 8.5q9 0 9 -10q0 -15 -15 -32q-7 -10 -22.5 -25.5t-33.5 -15.5zM1185 748q-17 0 -17 21
q0 17 13.5 31t32.5 22.5t33 8.5q9 0 9 -10q0 -15 -15 -32q-7 -10 -22.5 -25.5t-33.5 -15.5z" />
    <glyph glyph-name="Aring" unicode="&#xc5;" horiz-adv-x="1030" 
d="M199 -40q-62 0 -109 13t-67 29q-50 39 -50 90q0 43 37.5 86.5t114.5 80t194 57.5q50 9 101.5 14t103.5 5q44 0 88.5 -4t87.5 -13q14 -3 32 -7.5t37 -10.5q83 85 162 169t153 142q52 41 97 56t80 15q41 0 67.5 -12.5t34.5 -20.5q3 -3 0 -6t-6 0q-5 6 -24 13t-49 7
q-37 0 -87 -17t-111 -64q-75 -59 -148.5 -135.5t-149.5 -153.5q39 -14 71.5 -38t37.5 -59v-4q0 -4 -2 -4q-3 0 -6 6q-4 11 -22.5 19t-42.5 13t-46 8t-33 4l-11 1q-83 -80 -171.5 -147.5t-187.5 -101.5q-47 -16 -91.5 -23t-84.5 -7zM972 -89q-45 32 -66 77t-21 97t18 104
q18 53 52.5 110t75.5 111.5t79.5 100t65 75.5t31.5 37q6 8 9 8q4 0 6 -6.5t2 -14.5q0 -16 -5 -23q-26 -33 -62 -84t-73 -113.5t-69 -128.5t-51.5 -129t-19.5 -115q0 -30 8 -55t26 -44q1 -1 1 -3t-2 -4t-5 0zM202 -23q37 0 80 6.5t89 20.5q86 27 171 92t167 145q-13 1 -26 1
h-27q-70 0 -145.5 -7t-143.5 -20q-110 -19 -179.5 -47.5t-102 -59.5t-32.5 -59q0 -27 27 -47q14 -10 46 -17.5t76 -7.5zM1265 726q-16 0 -25.5 6.5t-9.5 22.5v5t1 6q5 25 24.5 49.5t46 45t54.5 33t50 12.5q24 0 38.5 -12.5t9.5 -35.5q-6 -25 -27 -49t-50 -42.5t-59 -29.5
t-53 -11zM1271 742q26 0 55.5 15.5t52.5 38.5t27 43q3 16 -7.5 21t-24.5 5q-27 0 -53.5 -17t-45.5 -40.5t-23 -43.5q-1 -3 -1 -8q0 -14 20 -14z" />
    <glyph glyph-name="AE" unicode="&#xc6;" horiz-adv-x="1788" 
d="M1167 -83q-80 0 -136 25.5t-85.5 70.5t-29.5 103q0 38 13.5 80.5t41.5 87.5q-49 -1 -99.5 -4t-103.5 -7q-60 -60 -123 -115.5t-130 -99t-140 -68.5q-47 -16 -91.5 -23t-84.5 -7q-62 0 -109 13t-67 29q-31 24 -53.5 54t-22.5 63q0 31 27.5 62.5t93.5 61t180 54t286 40.5
q73 7 146 12t143 8q68 71 133.5 138t127.5 116q53 42 101.5 57.5t85.5 15.5q15 0 28.5 -2t23.5 -5q27 -7 47 -26t27 -46q19 7 37.5 12.5t34.5 9.5q26 6 53 9.5t52 3.5q43 0 79 -11t57.5 -34.5t21.5 -62.5q0 -22 -7.5 -43t-12.5 -32q-3 -7 -6 -7q-2 0 -3 4t1 8q9 20 9 35
q0 25 -21.5 36t-58.5 11q-45 0 -106.5 -14.5t-130 -40.5t-135 -60t-121.5 -72q33 -1 65 -4t63 -7q32 -4 71.5 -10.5t76 -17t60 -25t23.5 -34.5q0 -17 -20 -36q-10 -10 -16.5 -9.5t-2.5 6.5q6 10 -13.5 18.5t-52.5 16.5t-71 13.5t-70 9t-48 4.5q-76 3 -152 3
q-55 -55 -80.5 -103t-25.5 -87q0 -63 58.5 -99t157.5 -36q26 0 54 3t58 8q71 12 144.5 38t141 62t123 80.5t90.5 95.5q9 12 12 12q1 0 1 -3v-3.5t-2 -7.5q-10 -29 -43 -65t-83 -74t-111 -73t-128 -62t-134 -41q-62 -13 -119 -13zM851 358q47 2 92 2.5t88 0.5l4 4
q47 51 105.5 95t120 79.5t118.5 58.5q-6 30 -29 47.5t-65 17.5q-37 0 -87.5 -16.5t-111.5 -64.5q-59 -47 -117.5 -104.5t-117.5 -119.5zM202 -23q37 0 80 6.5t89 20.5q63 20 125 60t123 93.5t120 113.5q-43 -4 -88.5 -8t-94.5 -9q-158 -15 -260.5 -35.5t-160 -44.5t-81 -49
t-23.5 -48q0 -22 15.5 -41.5t33.5 -33.5q14 -10 46 -17.5t76 -7.5z" />
    <glyph glyph-name="Ccedilla" unicode="&#xc7;" horiz-adv-x="719" 
d="M290 -39q-48 0 -95 11.5t-86 36.5t-62 64t-23 94q0 52 21 100t54.5 90t69.5 75q51 46 116 89t138.5 77t148.5 54t144 20q30 0 65.5 -9t61 -30t25.5 -59q0 -34 -23 -67t-61 -62t-84 -53.5t-93.5 -43t-89.5 -29.5t-71 -14q-7 -1 -14 -1h-14q-6 0 -25 1.5t-36 6.5t-17 15
q0 5 6 5q4 0 10 -2t15 -2q24 0 62 12t82.5 32.5t88.5 46.5t81 55t59 58t22 55q0 24 -17 35.5t-40 15.5t-40 4q-63 0 -129.5 -19t-131 -51.5t-122 -72.5t-102.5 -82q-31 -29 -61.5 -66.5t-50.5 -80t-20 -87.5q0 -50 24 -84t62.5 -54.5t83.5 -29.5t86 -9q26 0 52 2.5t51 6.5
q67 12 122.5 29t106.5 44t104 70q4 2 5 2q5 0 5 -6q0 -3 -4 -9q-39 -42 -94.5 -76t-118.5 -58t-127 -37t-120 -13zM53 -236q-5 0 -5 5q0 6 3.5 9t6.5 3q34 0 61 4t45 18t22 43q2 16 -6 32.5t-8 34.5q0 21 14 42t35 35.5t41 14.5q7 0 8.5 -1t-0.5 -5q-23 -3 -42.5 -22
t-19.5 -38q0 -11 10 -26.5t19.5 -33t9.5 -35.5q0 -28 -23.5 -44.5t-57 -24t-65 -9.5t-48.5 -2z" />
    <glyph glyph-name="Egrave" unicode="&#xc8;" horiz-adv-x="719" 
d="M267 -46q-80 0 -136 25.5t-85.5 70.5t-29.5 103q0 56 29 119.5t90 129.5q45 49 101 91.5t114.5 77.5t115 59t103.5 35q26 6 52.5 9.5t51.5 3.5q43 0 79 -11t58 -35t22 -63q0 -22 -7.5 -43t-12.5 -32q-3 -6 -6 -6q-2 0 -3 3.5t1 7.5q9 20 9 35q0 25 -21.5 36.5t-58.5 11.5
q-42 0 -99 -13t-120.5 -36t-126.5 -53t-118.5 -65.5t-95.5 -72.5q-66 -61 -96.5 -114.5t-30.5 -95.5q0 -63 59 -99t158 -36q26 0 54 3t58 8q71 13 144.5 38.5t141 62t123 81t90.5 94.5q10 13 12 13q1 0 1 -3v-4.5t-2 -7.5q-10 -29 -43 -65t-83 -73.5t-111 -72.5t-128 -62.5
t-134 -41.5q-62 -13 -119 -13zM205 282q-11 0 -18 4q-4 2 -8 7.5t-4 13.5q0 12 17.5 26t71.5 24q18 3 40 5t46 2q42 0 85.5 -5.5t79 -17.5t52.5 -31q6 -7 6 -14q0 -8 -8 -8q-6 0 -14 5q-17 12 -46.5 18t-67.5 6q-67 0 -147 -17q-25 -5 -47 -11.5t-38 -6.5zM704 726
q-38 0 -75 11.5t-65.5 27t-43.5 27.5q-6 5 -6 11q0 10 15.5 18.5t28.5 8.5q9 0 12 -3q20 -18 47 -37t54 -32.5t45 -17.5q10 -2 10 -7q0 -2 -4 -4.5t-18 -2.5z" />
    <glyph glyph-name="Eacute" unicode="&#xc9;" horiz-adv-x="719" 
d="M267 -46q-80 0 -136 25.5t-85.5 70.5t-29.5 103q0 56 29 119.5t90 129.5q45 49 101 91.5t114.5 77.5t115 59t103.5 35q26 6 52.5 9.5t51.5 3.5q43 0 79 -11t58 -35t22 -63q0 -22 -7.5 -43t-12.5 -32q-3 -6 -6 -6q-2 0 -3 3.5t1 7.5q9 20 9 35q0 25 -21.5 36.5t-58.5 11.5
q-42 0 -99 -13t-120.5 -36t-126.5 -53t-118.5 -65.5t-95.5 -72.5q-66 -61 -96.5 -114.5t-30.5 -95.5q0 -63 59 -99t158 -36q26 0 54 3t58 8q71 13 144.5 38.5t141 62t123 81t90.5 94.5q10 13 12 13q1 0 1 -3v-4.5t-2 -7.5q-10 -29 -43 -65t-83 -73.5t-111 -72.5t-128 -62.5
t-134 -41.5q-62 -13 -119 -13zM205 282q-11 0 -18 4q-4 2 -8 7.5t-4 13.5q0 12 17.5 26t71.5 24q18 3 40 5t46 2q42 0 85.5 -5.5t79 -17.5t52.5 -31q6 -7 6 -14q0 -8 -8 -8q-6 0 -14 5q-17 12 -46.5 18t-67.5 6q-67 0 -147 -17q-25 -5 -47 -11.5t-38 -6.5zM706 726
q-22 0 -20 6q0 6 14 8q25 4 59 17.5t67.5 31t54.5 33.5q10 8 24 8q17 0 26 -7t9 -15q0 -6 -6 -11q-18 -14 -55.5 -31t-83 -28.5t-89.5 -11.5z" />
    <glyph glyph-name="Ecircumflex" unicode="&#xca;" horiz-adv-x="719" 
d="M267 -46q-80 0 -136 25.5t-85.5 70.5t-29.5 103q0 56 29 119.5t90 129.5q45 49 101 91.5t114.5 77.5t115 59t103.5 35q26 6 52.5 9.5t51.5 3.5q43 0 79 -11t58 -35t22 -63q0 -22 -7.5 -43t-12.5 -32q-3 -6 -6 -6q-2 0 -3 3.5t1 7.5q9 20 9 35q0 25 -21.5 36.5t-58.5 11.5
q-42 0 -99 -13t-120.5 -36t-126.5 -53t-118.5 -65.5t-95.5 -72.5q-66 -61 -96.5 -114.5t-30.5 -95.5q0 -63 59 -99t158 -36q26 0 54 3t58 8q71 13 144.5 38.5t141 62t123 81t90.5 94.5q10 13 12 13q1 0 1 -3v-4.5t-2 -7.5q-10 -29 -43 -65t-83 -73.5t-111 -72.5t-128 -62.5
t-134 -41.5q-62 -13 -119 -13zM205 282q-11 0 -18 4q-4 2 -8 7.5t-4 13.5q0 12 17.5 26t71.5 24q18 3 40 5t46 2q42 0 85.5 -5.5t79 -17.5t52.5 -31q6 -7 6 -14q0 -8 -8 -8q-6 0 -14 5q-17 12 -46.5 18t-67.5 6q-67 0 -147 -17q-25 -5 -47 -11.5t-38 -6.5zM550 741
q-18 0 -15 3q0 4 16 8q20 5 56 17.5t74.5 27.5t63.5 26q14 7 24 7q11 0 18 -10q4 -7 12.5 -23.5t21 -30.5t28.5 -14q5 0 5 -4q0 -6 -23 -6q-39 0 -63 13.5t-35 27.5q-43 -14 -94 -28t-89 -14z" />
    <glyph glyph-name="Edieresis" unicode="&#xcb;" horiz-adv-x="719" 
d="M267 -46q-80 0 -136 25.5t-85.5 70.5t-29.5 103q0 56 29 119.5t90 129.5q45 49 101 91.5t114.5 77.5t115 59t103.5 35q26 6 52.5 9.5t51.5 3.5q43 0 79 -11t58 -35t22 -63q0 -22 -7.5 -43t-12.5 -32q-3 -6 -6 -6q-2 0 -3 3.5t1 7.5q9 20 9 35q0 25 -21.5 36.5t-58.5 11.5
q-42 0 -99 -13t-120.5 -36t-126.5 -53t-118.5 -65.5t-95.5 -72.5q-66 -61 -96.5 -114.5t-30.5 -95.5q0 -63 59 -99t158 -36q26 0 54 3t58 8q71 13 144.5 38.5t141 62t123 81t90.5 94.5q10 13 12 13q1 0 1 -3v-4.5t-2 -7.5q-10 -29 -43 -65t-83 -73.5t-111 -72.5t-128 -62.5
t-134 -41.5q-62 -13 -119 -13zM205 282q-11 0 -18 4q-4 2 -8 7.5t-4 13.5q0 12 17.5 26t71.5 24q18 3 40 5t46 2q42 0 85.5 -5.5t79 -17.5t52.5 -31q6 -7 6 -14q0 -8 -8 -8q-6 0 -14 5q-17 12 -46.5 18t-67.5 6q-67 0 -147 -17q-25 -5 -47 -11.5t-38 -6.5zM772 748
q-17 0 -17 21q0 17 13.5 31t32.5 22.5t33 8.5q9 0 9 -10q0 -15 -15 -32q-7 -10 -22.5 -25.5t-33.5 -15.5zM626 748q-17 0 -17 21q0 17 13.5 31t32.5 22.5t33 8.5q9 0 9 -10q0 -15 -15 -32q-7 -10 -22.5 -25.5t-33.5 -15.5z" />
    <glyph glyph-name="Igrave" unicode="&#xcc;" horiz-adv-x="595" 
d="M133 374q-6 0 -10 4q-18 12 -29.5 33.5t-11.5 46.5t14 50t47 44q53 31 123.5 52.5t145 33.5t140.5 12q26 0 61.5 -5t69 -18t55.5 -35.5t22 -57.5v-7.5t-1 -7.5q0 -9 -5 -9q-3 0 -3 5q0 3 0.5 6t0.5 6q0 29 -43.5 42t-109.5 13q-57 0 -124 -8.5t-132.5 -23.5t-119.5 -34.5
t-86.5 -43t-32.5 -48.5q0 -23 32 -45q2 -1 2 -3t-5 -2zM216 -144q-5 0 -5 11q0 10 6 28q7 19 20.5 47t32.5 63q-25 -2 -48 -6.5t-44 -10.5q-24 -6 -50.5 -17.5t-51 -21t-42.5 -9.5q-13 0 -19 5q-7 5 -7 22q0 15 11.5 35.5t42 40.5t88.5 34q22 6 53.5 9t68.5 3h22.5t22.5 -1
q36 62 77.5 128.5t82.5 129.5t75.5 113.5t57 80t27.5 29.5h9q9 0 9 -6t-11 -20q-45 -59 -98 -136t-106 -160t-99 -161q57 -5 108 -21.5t83.5 -46.5t32.5 -77q0 -27 -8 -27q-5 0 -3 10q6 26 -25 44.5t-84 28.5t-114 10h-18t-18 -1q-22 -40 -40.5 -75.5t-29.5 -63.5
q-5 -11 -9 -11zM713 726q-38 0 -75 11.5t-65.5 27t-43.5 27.5q-6 5 -6 11q0 10 15.5 18.5t28.5 8.5q9 0 12 -3q20 -18 47 -37t54 -32.5t45 -17.5q10 -2 10 -7q0 -2 -4 -4.5t-18 -2.5z" />
    <glyph glyph-name="Iacute" unicode="&#xcd;" horiz-adv-x="595" 
d="M133 374q-6 0 -10 4q-18 12 -29.5 33.5t-11.5 46.5t14 50t47 44q53 31 123.5 52.5t145 33.5t140.5 12q26 0 61.5 -5t69 -18t55.5 -35.5t22 -57.5v-7.5t-1 -7.5q0 -9 -5 -9q-3 0 -3 5q0 3 0.5 6t0.5 6q0 29 -43.5 42t-109.5 13q-57 0 -124 -8.5t-132.5 -23.5t-119.5 -34.5
t-86.5 -43t-32.5 -48.5q0 -23 32 -45q2 -1 2 -3t-5 -2zM216 -144q-5 0 -5 11q0 10 6 28q7 19 20.5 47t32.5 63q-25 -2 -48 -6.5t-44 -10.5q-24 -6 -50.5 -17.5t-51 -21t-42.5 -9.5q-13 0 -19 5q-7 5 -7 22q0 15 11.5 35.5t42 40.5t88.5 34q22 6 53.5 9t68.5 3h22.5t22.5 -1
q36 62 77.5 128.5t82.5 129.5t75.5 113.5t57 80t27.5 29.5h9q9 0 9 -6t-11 -20q-45 -59 -98 -136t-106 -160t-99 -161q57 -5 108 -21.5t83.5 -46.5t32.5 -77q0 -27 -8 -27q-5 0 -3 10q6 26 -25 44.5t-84 28.5t-114 10h-18t-18 -1q-22 -40 -40.5 -75.5t-29.5 -63.5
q-5 -11 -9 -11zM715 726q-22 0 -20 6q0 6 14 8q25 4 59 17.5t67.5 31t54.5 33.5q10 8 24 8q17 0 26 -7t9 -15q0 -6 -6 -11q-18 -14 -55.5 -31t-83 -28.5t-89.5 -11.5z" />
    <glyph glyph-name="Icircumflex" unicode="&#xce;" horiz-adv-x="595" 
d="M133 374q-6 0 -10 4q-18 12 -29.5 33.5t-11.5 46.5t14 50t47 44q53 31 123.5 52.5t145 33.5t140.5 12q26 0 61.5 -5t69 -18t55.5 -35.5t22 -57.5v-7.5t-1 -7.5q0 -9 -5 -9q-3 0 -3 5q0 3 0.5 6t0.5 6q0 29 -43.5 42t-109.5 13q-57 0 -124 -8.5t-132.5 -23.5t-119.5 -34.5
t-86.5 -43t-32.5 -48.5q0 -23 32 -45q2 -1 2 -3t-5 -2zM216 -144q-5 0 -5 11q0 10 6 28q7 19 20.5 47t32.5 63q-25 -2 -48 -6.5t-44 -10.5q-24 -6 -50.5 -17.5t-51 -21t-42.5 -9.5q-13 0 -19 5q-7 5 -7 22q0 15 11.5 35.5t42 40.5t88.5 34q22 6 53.5 9t68.5 3h22.5t22.5 -1
q36 62 77.5 128.5t82.5 129.5t75.5 113.5t57 80t27.5 29.5h9q9 0 9 -6t-11 -20q-45 -59 -98 -136t-106 -160t-99 -161q57 -5 108 -21.5t83.5 -46.5t32.5 -77q0 -27 -8 -27q-5 0 -3 10q6 26 -25 44.5t-84 28.5t-114 10h-18t-18 -1q-22 -40 -40.5 -75.5t-29.5 -63.5
q-5 -11 -9 -11zM559 741q-18 0 -15 3q0 4 16 8q20 5 56 17.5t74.5 27.5t63.5 26q14 7 24 7q11 0 18 -10q4 -7 12.5 -23.5t21 -30.5t28.5 -14q5 0 5 -4q0 -6 -23 -6q-39 0 -63 13.5t-35 27.5q-43 -14 -94 -28t-89 -14z" />
    <glyph glyph-name="Idieresis" unicode="&#xcf;" horiz-adv-x="595" 
d="M133 374q-6 0 -10 4q-18 12 -29.5 33.5t-11.5 46.5t14 50t47 44q53 31 123.5 52.5t145 33.5t140.5 12q26 0 61.5 -5t69 -18t55.5 -35.5t22 -57.5v-7.5t-1 -7.5q0 -9 -5 -9q-3 0 -3 5q0 3 0.5 6t0.5 6q0 29 -43.5 42t-109.5 13q-57 0 -124 -8.5t-132.5 -23.5t-119.5 -34.5
t-86.5 -43t-32.5 -48.5q0 -23 32 -45q2 -1 2 -3t-5 -2zM216 -144q-5 0 -5 11q0 10 6 28q7 19 20.5 47t32.5 63q-25 -2 -48 -6.5t-44 -10.5q-24 -6 -50.5 -17.5t-51 -21t-42.5 -9.5q-13 0 -19 5q-7 5 -7 22q0 15 11.5 35.5t42 40.5t88.5 34q22 6 53.5 9t68.5 3h22.5t22.5 -1
q36 62 77.5 128.5t82.5 129.5t75.5 113.5t57 80t27.5 29.5h9q9 0 9 -6t-11 -20q-45 -59 -98 -136t-106 -160t-99 -161q57 -5 108 -21.5t83.5 -46.5t32.5 -77q0 -27 -8 -27q-5 0 -3 10q6 26 -25 44.5t-84 28.5t-114 10h-18t-18 -1q-22 -40 -40.5 -75.5t-29.5 -63.5
q-5 -11 -9 -11zM781 748q-17 0 -17 21q0 17 13.5 31t32.5 22.5t33 8.5q9 0 9 -10q0 -15 -15 -32q-7 -10 -22.5 -25.5t-33.5 -15.5zM635 748q-17 0 -17 21q0 17 13.5 31t32.5 22.5t33 8.5q9 0 9 -10q0 -15 -15 -32q-7 -10 -22.5 -25.5t-33.5 -15.5z" />
    <glyph glyph-name="Eth" unicode="&#xd0;" horiz-adv-x="843" 
d="M250 -52q-89 0 -158 21.5t-93 68.5q-5 10 -5 13q0 2 2 2q4 0 14 -7q38 -26 97 -34t118 -8q57 0 123.5 10t134 29.5t131.5 49.5t117 70q83 63 121 122t38 111q0 57 -42 101t-116.5 68.5t-174.5 24.5q-36 0 -74 -3q-64 -6 -127.5 -21.5t-121 -38.5t-102.5 -50t-70.5 -55.5
t-25.5 -55.5q0 -17 12 -34q3 -3 3 -8q0 -4 -3 -5.5t-8 2.5q-9 10 -17 31.5t-8 48.5t12.5 56.5t44.5 54.5q38 30 94 56.5t122.5 46.5t137 31t139.5 11q119 0 195.5 -35.5t113.5 -94t37 -128.5q0 -64 -30.5 -131t-89 -127t-144.5 -104q-55 -27 -122 -47t-138 -31t-137 -11z
M149 83q-7 0 -7 14v5t1 6q6 25 28 65.5t65 101.5q-16 -5 -42 -13t-52.5 -16t-46.5 -14h-1q-5 0 -5 8q0 11 6.5 28t13.5 19q26 7 57 14t59.5 13t44.5 9q47 65 86 118t64.5 84.5t31.5 31.5h9q11 0 11 -5t-8 -13q-38 -42 -78 -94t-88 -117q25 4 58.5 8t62 7t36.5 3h1q9 0 9 -7
q0 -8 -11 -11q-23 -4 -60.5 -12t-72.5 -16t-53 -14q-48 -67 -73 -114t-38 -82q-3 -7 -8 -7z" />
    <glyph glyph-name="Ntilde" unicode="&#xd1;" horiz-adv-x="585" 
d="M-72 -144q-4 0 -4 10q0 5 1 12t5 17q9 26 32 70.5t54.5 100t68.5 115.5t75 119t72.5 110.5t61.5 89.5t42 56q17 51 37 81t41 30q16 0 35 -6.5t33 -16t14 -20.5q0 -9 -8 -14q-23 -19 -40.5 -57t-29.5 -87.5t-18 -105t-6 -109.5q0 -59 7 -112t22 -89q12 32 36 79.5t55 104
t65 115t66.5 112t60 96t46 67.5t22.5 25q3 0 10.5 1.5t14.5 1.5q15 0 15 -8q0 -7 -7 -15q-51 -67 -106 -147.5t-106.5 -163.5t-93.5 -158t-68 -132l3 -5q13 -22 32 -34.5t35 -12.5q11 0 20 6q1 0 1.5 0.5l0.5 0.5q4 0 5 -4.5t-2 -6.5q-23 -16 -51 -16q-23 0 -46 13t-42 38
q-48 65 -68 148t-20 166q0 45 5 88t13 82q-42 -57 -87.5 -124.5t-90.5 -138.5t-85 -138.5t-71 -124.5t-48 -98q-5 -11 -9 -11zM710 754q-24 0 -37.5 11t-25.5 21.5t-33 10.5q-19 0 -37 -10t-31 -19.5t-19 -9.5t-6 4q0 3 4 7q27 26 60 43.5t64 17.5q23 0 35.5 -5.5t21.5 -12
t19 -12t28 -5.5q20 0 34.5 8.5t22.5 20.5q8 -2 6 -10q-2 -13 -19.5 -27t-41 -23.5t-45.5 -9.5z" />
    <glyph glyph-name="Ograve" unicode="&#xd2;" horiz-adv-x="652" 
d="M276 -39q-52 0 -95 23t-68.5 66t-25.5 103q0 45 17.5 99.5t55.5 115.5q38 60 86.5 110t98 84.5t89.5 47.5q33 12 68 12q42 0 73 -24t31 -80q0 -19 -4 -37.5t-7 -27.5q-1 -6 -4 -6q-6 0 -4 11q2 9 3.5 16.5t1.5 13.5q0 24 -14 34.5t-38 10.5q-34 0 -81 -18t-98.5 -49.5
t-97.5 -71t-77 -82.5q-39 -54 -58 -102t-19 -87q0 -52 33.5 -83t97.5 -31q29 0 63 6.5t74 20.5q59 21 119.5 60t108.5 98q45 56 80 137.5t35 184.5q0 55 -9.5 84.5t-23 41.5t-25.5 12q-4 0 -10 -2q-1 0 -1.5 -0.5t-1.5 -0.5q-3 0 -3 3q0 5 7 8q8 3 18 3q19 0 39 -13
t34.5 -44t14.5 -84q0 -74 -23.5 -138.5t-58.5 -118.5t-69 -97q-36 -46 -91 -94.5t-115 -80.5q-31 -17 -63.5 -25.5t-62.5 -8.5zM618 726q-38 0 -75 11.5t-65.5 27t-43.5 27.5q-6 5 -6 11q0 10 15.5 18.5t28.5 8.5q9 0 12 -3q20 -18 47 -37t54 -32.5t45 -17.5q10 -2 10 -7
q0 -2 -4 -4.5t-18 -2.5z" />
    <glyph glyph-name="Oacute" unicode="&#xd3;" horiz-adv-x="652" 
d="M276 -39q-52 0 -95 23t-68.5 66t-25.5 103q0 45 17.5 99.5t55.5 115.5q38 60 86.5 110t98 84.5t89.5 47.5q33 12 68 12q42 0 73 -24t31 -80q0 -19 -4 -37.5t-7 -27.5q-1 -6 -4 -6q-6 0 -4 11q2 9 3.5 16.5t1.5 13.5q0 24 -14 34.5t-38 10.5q-34 0 -81 -18t-98.5 -49.5
t-97.5 -71t-77 -82.5q-39 -54 -58 -102t-19 -87q0 -52 33.5 -83t97.5 -31q29 0 63 6.5t74 20.5q59 21 119.5 60t108.5 98q45 56 80 137.5t35 184.5q0 55 -9.5 84.5t-23 41.5t-25.5 12q-4 0 -10 -2q-1 0 -1.5 -0.5t-1.5 -0.5q-3 0 -3 3q0 5 7 8q8 3 18 3q19 0 39 -13
t34.5 -44t14.5 -84q0 -74 -23.5 -138.5t-58.5 -118.5t-69 -97q-36 -46 -91 -94.5t-115 -80.5q-31 -17 -63.5 -25.5t-62.5 -8.5zM620 726q-22 0 -20 6q0 6 14 8q25 4 59 17.5t67.5 31t54.5 33.5q10 8 24 8q17 0 26 -7t9 -15q0 -6 -6 -11q-18 -14 -55.5 -31t-83 -28.5
t-89.5 -11.5z" />
    <glyph glyph-name="Ocircumflex" unicode="&#xd4;" horiz-adv-x="652" 
d="M276 -39q-52 0 -95 23t-68.5 66t-25.5 103q0 45 17.5 99.5t55.5 115.5q38 60 86.5 110t98 84.5t89.5 47.5q33 12 68 12q42 0 73 -24t31 -80q0 -19 -4 -37.5t-7 -27.5q-1 -6 -4 -6q-6 0 -4 11q2 9 3.5 16.5t1.5 13.5q0 24 -14 34.5t-38 10.5q-34 0 -81 -18t-98.5 -49.5
t-97.5 -71t-77 -82.5q-39 -54 -58 -102t-19 -87q0 -52 33.5 -83t97.5 -31q29 0 63 6.5t74 20.5q59 21 119.5 60t108.5 98q45 56 80 137.5t35 184.5q0 55 -9.5 84.5t-23 41.5t-25.5 12q-4 0 -10 -2q-1 0 -1.5 -0.5t-1.5 -0.5q-3 0 -3 3q0 5 7 8q8 3 18 3q19 0 39 -13
t34.5 -44t14.5 -84q0 -74 -23.5 -138.5t-58.5 -118.5t-69 -97q-36 -46 -91 -94.5t-115 -80.5q-31 -17 -63.5 -25.5t-62.5 -8.5zM464 741q-18 0 -15 3q0 4 16 8q20 5 56 17.5t74.5 27.5t63.5 26q14 7 24 7q11 0 18 -10q4 -7 12.5 -23.5t21 -30.5t28.5 -14q5 0 5 -4
q0 -6 -23 -6q-39 0 -63 13.5t-35 27.5q-43 -14 -94 -28t-89 -14z" />
    <glyph glyph-name="Otilde" unicode="&#xd5;" horiz-adv-x="652" 
d="M276 -39q-52 0 -95 23t-68.5 66t-25.5 103q0 45 17.5 99.5t55.5 115.5q38 60 86.5 110t98 84.5t89.5 47.5q33 12 68 12q42 0 73 -24t31 -80q0 -19 -4 -37.5t-7 -27.5q-1 -6 -4 -6q-6 0 -4 11q2 9 3.5 16.5t1.5 13.5q0 24 -14 34.5t-38 10.5q-34 0 -81 -18t-98.5 -49.5
t-97.5 -71t-77 -82.5q-39 -54 -58 -102t-19 -87q0 -52 33.5 -83t97.5 -31q29 0 63 6.5t74 20.5q59 21 119.5 60t108.5 98q45 56 80 137.5t35 184.5q0 55 -9.5 84.5t-23 41.5t-25.5 12q-4 0 -10 -2q-1 0 -1.5 -0.5t-1.5 -0.5q-3 0 -3 3q0 5 7 8q8 3 18 3q19 0 39 -13
t34.5 -44t14.5 -84q0 -74 -23.5 -138.5t-58.5 -118.5t-69 -97q-36 -46 -91 -94.5t-115 -80.5q-31 -17 -63.5 -25.5t-62.5 -8.5zM662 754q-24 0 -37.5 11t-25.5 21.5t-33 10.5q-19 0 -37 -10t-31 -19.5t-19 -9.5t-6 4q0 3 4 7q27 26 60 43.5t64 17.5q23 0 35.5 -5.5t21.5 -12
t19 -12t28 -5.5q20 0 34.5 8.5t22.5 20.5q8 -2 6 -10q-2 -13 -19.5 -27t-41 -23.5t-45.5 -9.5z" />
    <glyph glyph-name="Odieresis" unicode="&#xd6;" horiz-adv-x="652" 
d="M276 -39q-52 0 -95 23t-68.5 66t-25.5 103q0 45 17.5 99.5t55.5 115.5q38 60 86.5 110t98 84.5t89.5 47.5q33 12 68 12q42 0 73 -24t31 -80q0 -19 -4 -37.5t-7 -27.5q-1 -6 -4 -6q-6 0 -4 11q2 9 3.5 16.5t1.5 13.5q0 24 -14 34.5t-38 10.5q-34 0 -81 -18t-98.5 -49.5
t-97.5 -71t-77 -82.5q-39 -54 -58 -102t-19 -87q0 -52 33.5 -83t97.5 -31q29 0 63 6.5t74 20.5q59 21 119.5 60t108.5 98q45 56 80 137.5t35 184.5q0 55 -9.5 84.5t-23 41.5t-25.5 12q-4 0 -10 -2q-1 0 -1.5 -0.5t-1.5 -0.5q-3 0 -3 3q0 5 7 8q8 3 18 3q19 0 39 -13
t34.5 -44t14.5 -84q0 -74 -23.5 -138.5t-58.5 -118.5t-69 -97q-36 -46 -91 -94.5t-115 -80.5q-31 -17 -63.5 -25.5t-62.5 -8.5zM686 748q-17 0 -17 21q0 17 13.5 31t32.5 22.5t33 8.5q9 0 9 -10q0 -15 -15 -32q-7 -10 -22.5 -25.5t-33.5 -15.5zM540 748q-17 0 -17 21
q0 17 13.5 31t32.5 22.5t33 8.5q9 0 9 -10q0 -15 -15 -32q-7 -10 -22.5 -25.5t-33.5 -15.5z" />
    <glyph glyph-name="multiply" unicode="&#xd7;" horiz-adv-x="360" 
d="M315 2q-39 0 -68.5 16.5t-50 42t-33.5 50.5q-41 -39 -60 -57t-26 -25t-13 -14q-7 -8 -15 -8q-9 0 -2 10q5 8 14 19.5t30.5 34.5t61.5 63h-1q-22 57 -22 102q0 25 8 39q3 6 16 14.5t27.5 15.5t23.5 8.5t4 -7.5q-4 -7 -5 -18.5t-1 -24.5q0 -21 3 -41t7 -29q32 28 65 56
t65 47q14 8 24 8q14 0 14 -9q0 -5 -7 -9q-36 -24 -75 -54q-19 -16 -38.5 -33t-39.5 -34q11 -48 31 -89.5t44 -55.5q7 -3 14 -5t14 -2q19 0 28 12q2 2 4 0.5t0 -3.5q-7 -10 -18.5 -15t-22.5 -5z" />
    <glyph glyph-name="Oslash" unicode="&#xd8;" horiz-adv-x="652" 
d="M135 -104q-10 0 -10 15v5q0 3 0.5 6t2.5 6q18 32 37 65q-35 24 -56.5 64.5t-21.5 95.5q0 45 17.5 99.5t55.5 115.5q38 60 86.5 110t98 84.5t89.5 47.5q33 12 68 12q36 0 61 -15q46 63 77 101t40 43q3 2 11.5 3.5t17.5 1.5q11 0 11 -6q0 -5 -5 -11q-29 -35 -63 -77h1
q8 3 18 3q19 0 39 -13t34.5 -44t14.5 -84q0 -74 -23.5 -138.5t-58.5 -118.5t-69 -97q-36 -46 -91 -94.5t-115 -80.5q-31 -17 -63.5 -25.5t-62.5 -8.5q-47 0 -86 18q-22 -36 -43 -73q-6 -10 -12 -10zM592 488q0 38 -38 44q-77 -107 -165.5 -239.5t-179.5 -281.5q15 -2 31 -2
q29 0 63 6.5t74 20.5q59 21 119.5 60t108.5 98q45 56 80 137.5t35 184.5q0 55 -9.5 84.5t-23 41.5t-25.5 12q-4 0 -10 -2q-1 0 -1.5 -0.5t-1.5 -0.5q-3 0 -3 3q-27 -35 -56 -74q16 -24 16 -62q0 -19 -4 -37.5t-7 -27.5q-1 -6 -4 -6q-6 0 -4 11q2 9 3.5 16.5t1.5 13.5z
M109 123q0 -80 71 -105q55 95 112.5 186.5t112.5 174t103 150.5q-36 -7 -80 -27.5t-89.5 -50t-85 -65.5t-67.5 -74q-39 -54 -58 -102t-19 -87z" />
    <glyph glyph-name="Ugrave" unicode="&#xd9;" horiz-adv-x="657" 
d="M538 -118q-49 0 -67.5 22t-18.5 55q0 32 12 69t28.5 70.5t27.5 54.5q-102 -133 -188 -175q-27 -13 -52 -13q-40 0 -62.5 29t-22.5 68v10t1 9q7 46 28.5 100t48.5 109.5t53.5 108t43.5 97t17 74.5q0 35 -20.5 49t-53.5 14q-32 0 -71 -11t-78 -27.5t-70.5 -34.5t-49.5 -32
q-7 -6 -15 -6q-10 0 -17 12.5t-7 28.5q0 13 5 25.5t15 20.5q21 17 65 32.5t98.5 25.5t106.5 10q47 0 86 -9.5t63 -32t24 -60.5q0 -12 -3 -26q-6 -28 -26 -71t-47.5 -94t-56.5 -103.5t-53 -100.5t-36 -85q-10 -29 -10 -55q0 -24 10.5 -39.5t32.5 -15.5q23 0 57 19
q48 26 96 76t94 112.5t88.5 127.5t79.5 123.5t65 99.5q15 21 32.5 29t30.5 8q12 0 17.5 -4.5t-0.5 -10.5q-17 -17 -47 -58t-66.5 -97t-72.5 -120t-66.5 -126.5t-49 -117t-18.5 -91.5q0 -22 8 -37.5t25 -17.5l7 -1h3q12 0 21 9q2 2 5 2q2 0 2 -2.5t-5 -5.5q-7 -6 -21 -13
t-26 -7zM667 726q-38 0 -75 11.5t-65.5 27t-43.5 27.5q-6 5 -6 11q0 10 15.5 18.5t28.5 8.5q9 0 12 -3q20 -18 47 -37t54 -32.5t45 -17.5q10 -2 10 -7q0 -2 -4 -4.5t-18 -2.5z" />
    <glyph glyph-name="Uacute" unicode="&#xda;" horiz-adv-x="657" 
d="M538 -118q-49 0 -67.5 22t-18.5 55q0 32 12 69t28.5 70.5t27.5 54.5q-102 -133 -188 -175q-27 -13 -52 -13q-40 0 -62.5 29t-22.5 68v10t1 9q7 46 28.5 100t48.5 109.5t53.5 108t43.5 97t17 74.5q0 35 -20.5 49t-53.5 14q-32 0 -71 -11t-78 -27.5t-70.5 -34.5t-49.5 -32
q-7 -6 -15 -6q-10 0 -17 12.5t-7 28.5q0 13 5 25.5t15 20.5q21 17 65 32.5t98.5 25.5t106.5 10q47 0 86 -9.5t63 -32t24 -60.5q0 -12 -3 -26q-6 -28 -26 -71t-47.5 -94t-56.5 -103.5t-53 -100.5t-36 -85q-10 -29 -10 -55q0 -24 10.5 -39.5t32.5 -15.5q23 0 57 19
q48 26 96 76t94 112.5t88.5 127.5t79.5 123.5t65 99.5q15 21 32.5 29t30.5 8q12 0 17.5 -4.5t-0.5 -10.5q-17 -17 -47 -58t-66.5 -97t-72.5 -120t-66.5 -126.5t-49 -117t-18.5 -91.5q0 -22 8 -37.5t25 -17.5l7 -1h3q12 0 21 9q2 2 5 2q2 0 2 -2.5t-5 -5.5q-7 -6 -21 -13
t-26 -7zM669 726q-22 0 -20 6q0 6 14 8q25 4 59 17.5t67.5 31t54.5 33.5q10 8 24 8q17 0 26 -7t9 -15q0 -6 -6 -11q-18 -14 -55.5 -31t-83 -28.5t-89.5 -11.5z" />
    <glyph glyph-name="Ucircumflex" unicode="&#xdb;" horiz-adv-x="657" 
d="M538 -118q-49 0 -67.5 22t-18.5 55q0 32 12 69t28.5 70.5t27.5 54.5q-102 -133 -188 -175q-27 -13 -52 -13q-40 0 -62.5 29t-22.5 68v10t1 9q7 46 28.5 100t48.5 109.5t53.5 108t43.5 97t17 74.5q0 35 -20.5 49t-53.5 14q-32 0 -71 -11t-78 -27.5t-70.5 -34.5t-49.5 -32
q-7 -6 -15 -6q-10 0 -17 12.5t-7 28.5q0 13 5 25.5t15 20.5q21 17 65 32.5t98.5 25.5t106.5 10q47 0 86 -9.5t63 -32t24 -60.5q0 -12 -3 -26q-6 -28 -26 -71t-47.5 -94t-56.5 -103.5t-53 -100.5t-36 -85q-10 -29 -10 -55q0 -24 10.5 -39.5t32.5 -15.5q23 0 57 19
q48 26 96 76t94 112.5t88.5 127.5t79.5 123.5t65 99.5q15 21 32.5 29t30.5 8q12 0 17.5 -4.5t-0.5 -10.5q-17 -17 -47 -58t-66.5 -97t-72.5 -120t-66.5 -126.5t-49 -117t-18.5 -91.5q0 -22 8 -37.5t25 -17.5l7 -1h3q12 0 21 9q2 2 5 2q2 0 2 -2.5t-5 -5.5q-7 -6 -21 -13
t-26 -7zM513 741q-18 0 -15 3q0 4 16 8q20 5 56 17.5t74.5 27.5t63.5 26q14 7 24 7q11 0 18 -10q4 -7 12.5 -23.5t21 -30.5t28.5 -14q5 0 5 -4q0 -6 -23 -6q-39 0 -63 13.5t-35 27.5q-43 -14 -94 -28t-89 -14z" />
    <glyph glyph-name="Udieresis" unicode="&#xdc;" horiz-adv-x="657" 
d="M538 -118q-49 0 -67.5 22t-18.5 55q0 32 12 69t28.5 70.5t27.5 54.5q-102 -133 -188 -175q-27 -13 -52 -13q-40 0 -62.5 29t-22.5 68v10t1 9q7 46 28.5 100t48.5 109.5t53.5 108t43.5 97t17 74.5q0 35 -20.5 49t-53.5 14q-32 0 -71 -11t-78 -27.5t-70.5 -34.5t-49.5 -32
q-7 -6 -15 -6q-10 0 -17 12.5t-7 28.5q0 13 5 25.5t15 20.5q21 17 65 32.5t98.5 25.5t106.5 10q47 0 86 -9.5t63 -32t24 -60.5q0 -12 -3 -26q-6 -28 -26 -71t-47.5 -94t-56.5 -103.5t-53 -100.5t-36 -85q-10 -29 -10 -55q0 -24 10.5 -39.5t32.5 -15.5q23 0 57 19
q48 26 96 76t94 112.5t88.5 127.5t79.5 123.5t65 99.5q15 21 32.5 29t30.5 8q12 0 17.5 -4.5t-0.5 -10.5q-17 -17 -47 -58t-66.5 -97t-72.5 -120t-66.5 -126.5t-49 -117t-18.5 -91.5q0 -22 8 -37.5t25 -17.5l7 -1h3q12 0 21 9q2 2 5 2q2 0 2 -2.5t-5 -5.5q-7 -6 -21 -13
t-26 -7zM735 748q-17 0 -17 21q0 17 13.5 31t32.5 22.5t33 8.5q9 0 9 -10q0 -15 -15 -32q-7 -10 -22.5 -25.5t-33.5 -15.5zM589 748q-17 0 -17 21q0 17 13.5 31t32.5 22.5t33 8.5q9 0 9 -10q0 -15 -15 -32q-7 -10 -22.5 -25.5t-33.5 -15.5z" />
    <glyph glyph-name="Yacute" unicode="&#xdd;" horiz-adv-x="870" 
d="M335 -306q-49 0 -95.5 14.5t-83.5 46t-59 82.5t-22 123v4q0 11 5 11q7 0 9 -13q10 -70 39.5 -123t73 -83t94.5 -30q54 0 103 30t93 78t82.5 101.5t69.5 101.5q118 179 163 314.5t40 229.5q-16 -55 -48 -120t-73 -129.5t-84 -118.5q-14 -17 -39.5 -46t-57.5 -61t-66 -61
t-67 -47t-59 -18h-6t-6 1q-24 6 -24 38q0 26 13 63t34.5 81t46.5 89.5t49 86.5q14 24 33.5 57t34 69t14.5 67q0 32 -23 52.5t-82 20.5q-36 0 -77.5 -6.5t-82 -16.5t-74.5 -20t-55 -17q-51 -18 -87.5 -38.5t-36.5 -40.5q0 -14 18 -26l2 -2q0 -1 -4 -1q-6 0 -9 2
q-22 15 -22 44q0 22 15 46t46 42q52 30 119.5 51.5t137 33.5t126.5 12q83 0 115.5 -25t32.5 -66q0 -36 -19 -80t-46 -90t-51 -87q-22 -39 -46.5 -81t-46 -82t-34.5 -73t-13 -54q0 -13 6 -21t20 -8q20 0 50 20.5t63 52.5t64 66.5t54 63t32 41.5q70 101 123.5 193t76.5 169
q7 23 15 25q4 2 6 2q5 0 8 -8q10 -27 14.5 -59.5t4.5 -69.5q0 -66 -13.5 -140t-37 -148.5t-54.5 -142t-67 -119.5q-48 -70 -108.5 -127.5t-128 -91.5t-138.5 -34zM766 726q-22 0 -20 6q0 6 14 8q25 4 59 17.5t67.5 31t54.5 33.5q10 8 24 8q17 0 26 -7t9 -15q0 -6 -6 -11
q-18 -14 -55.5 -31t-83 -28.5t-89.5 -11.5z" />
    <glyph glyph-name="Thorn" unicode="&#xde;" horiz-adv-x="678" 
d="M-8 -229q-8 0 -8 9q0 2 0.5 4.5t1.5 5.5q7 28 36.5 80.5t69.5 113.5q-19 5 -35.5 12.5t-30.5 18.5q-30 24 -30 54q0 23 18 39q5 3 6 3q3 0 3 -4q0 -3 -5 -10q-7 -10 -7 -24q0 -12 5.5 -24t18.5 -22q26 -20 67 -28q31 46 69.5 106.5t82.5 129.5t90 140q-50 -12 -101 -28.5
t-92.5 -36t-66.5 -40.5q-17 -13 -11 -22q2 -3 2 -6t-3 -2.5t-6 2.5q-16 11 -24 26.5t-8 28.5q0 5 1.5 9t2.5 7q17 24 53.5 46t86.5 41t107 34t114 24q32 49 63.5 95.5t61.5 86.5q2 2 3 2q5 0 9 -8.5t3 -13.5q-46 -67 -103 -156q11 2 22.5 3t21.5 2q12 1 23.5 1.5t21.5 0.5
q104 0 152.5 -43.5t48.5 -105.5q0 -57 -40.5 -118.5t-117.5 -106.5q-30 -18 -77 -38.5t-102.5 -39t-113.5 -30.5t-111 -12q-10 0 -19.5 0.5t-19.5 1.5q-38 -56 -68.5 -106t-44.5 -85q-2 -7 -8.5 -12t-11.5 -5zM137 -5q53 -3 114 8.5t120.5 31.5t109 43t78.5 42
q61 41 89.5 85t28.5 81q0 49 -43.5 81t-124.5 32q-23 0 -50 -3q-35 -3 -73 -12q-45 -71 -90 -143.5t-86 -136t-73 -109.5z" />
    <glyph glyph-name="germandbls" unicode="&#xdf;" horiz-adv-x="460" 
d="M-153 -159q-46 0 -82.5 24.5t-44.5 71.5q-1 5 2.5 5t4.5 -5q8 -27 27.5 -38.5t43.5 -11.5q19 0 38 6t33 15q37 23 73 63.5t64 80.5q25 35 44.5 74.5t45.5 85.5h-70q-15 0 -15 12q0 16 30.5 40.5t97.5 35.5q32 60 69 109.5t74 74.5q29 19 55 27.5t49 8.5q44 0 71.5 -26
t27.5 -66q0 -25 -13.5 -55t-43.5 -59q-8 -8 -12 -9q-17 -16 -24.5 -48t-14 -70t-19 -76.5t-39.5 -68.5q17 6 58 31.5t83 61.5q3 2 10.5 9t15.5 14.5t10 9.5q4 4 8 4q5 0 5 -5q0 -4 -4 -8q-24 -24 -45 -42q-34 -31 -74.5 -60.5t-85 -48.5t-90.5 -19q-88 0 -106 56v1
q0 3 4 3.5t6 -3.5q5 -9 17.5 -16t31.5 -7q32 0 54.5 15.5t37.5 38.5t23.5 46.5t11.5 40.5q12 60 29.5 92t39.5 45.5t47 16.5q21 25 34 47t19 40t6 30q0 19 -10.5 28t-27.5 9q-31 0 -70 -25q-43 -28 -90 -78.5t-87 -124.5q-10 -19 -25 -54.5t-35.5 -79.5t-46.5 -89t-58 -84.5
t-70 -65.5q-22 -15 -47.5 -22.5t-50.5 -7.5z" />
    <glyph glyph-name="agrave" unicode="&#xe0;" horiz-adv-x="476" 
d="M55 -1q-31 0 -48 19.5t-17 50.5q0 29 15.5 64t49.5 71q35 38 87 61.5t99 23.5q38 0 65 -16.5t36 -41.5q11 0 27.5 -6t16.5 -22q0 -11 -11 -25q-7 -10 -24.5 -30t-32.5 -43q-12 -18 -19 -33.5t-7 -26.5q0 -15 15 -15q17 0 51 19q37 21 71 48t53 43q5 4 7 4q4 0 4 -5
q0 -6 -5 -11q-9 -8 -35 -30t-59.5 -46t-65.5 -39q-16 -7 -29.5 -10.5t-24.5 -3.5q-27 0 -41 15.5t-14 40.5q0 10 3 21t7 22l7 17q-26 -32 -52 -53.5t-52 -37.5q-22 -13 -41.5 -19t-35.5 -6zM86 25q18 0 52 21.5t79 66.5q6 6 22.5 21.5t35.5 35t32.5 39t13.5 32.5
q0 19 -33 19q-29 0 -69.5 -22.5t-77.5 -66.5q-38 -45 -55.5 -77.5t-17.5 -49.5q0 -19 18 -19zM343 346q-38 0 -72.5 16.5t-59.5 38.5t-38 36q-5 5 3 13t21.5 14t22.5 6q8 0 9 -3q14 -18 36.5 -42t47 -42.5t42.5 -22.5q10 -2 10 -7q0 -2 -4 -4.5t-18 -2.5z" />
    <glyph glyph-name="aacute" unicode="&#xe1;" horiz-adv-x="476" 
d="M55 -1q-31 0 -48 19.5t-17 50.5q0 29 15.5 64t49.5 71q35 38 87 61.5t99 23.5q38 0 65 -16.5t36 -41.5q11 0 27.5 -6t16.5 -22q0 -11 -11 -25q-7 -10 -24.5 -30t-32.5 -43q-12 -18 -19 -33.5t-7 -26.5q0 -15 15 -15q17 0 51 19q37 21 71 48t53 43q5 4 7 4q4 0 4 -5
q0 -6 -5 -11q-9 -8 -35 -30t-59.5 -46t-65.5 -39q-16 -7 -29.5 -10.5t-24.5 -3.5q-27 0 -41 15.5t-14 40.5q0 10 3 21t7 22l7 17q-26 -32 -52 -53.5t-52 -37.5q-22 -13 -41.5 -19t-35.5 -6zM86 25q18 0 52 21.5t79 66.5q6 6 22.5 21.5t35.5 35t32.5 39t13.5 32.5
q0 19 -33 19q-29 0 -69.5 -22.5t-77.5 -66.5q-38 -45 -55.5 -77.5t-17.5 -49.5q0 -19 18 -19zM325 346q-22 0 -20 6q0 6 14 8q20 4 51.5 22.5t64.5 42.5t54 42q5 3 11 3q10 0 20 -6t15 -14t-2 -13q-18 -14 -52.5 -36t-75.5 -38.5t-80 -16.5z" />
    <glyph glyph-name="acircumflex" unicode="&#xe2;" horiz-adv-x="476" 
d="M55 -1q-31 0 -48 19.5t-17 50.5q0 29 15.5 64t49.5 71q35 38 87 61.5t99 23.5q38 0 65 -16.5t36 -41.5q11 0 27.5 -6t16.5 -22q0 -11 -11 -25q-7 -10 -24.5 -30t-32.5 -43q-12 -18 -19 -33.5t-7 -26.5q0 -15 15 -15q17 0 51 19q37 21 71 48t53 43q5 4 7 4q4 0 4 -5
q0 -6 -5 -11q-9 -8 -35 -30t-59.5 -46t-65.5 -39q-16 -7 -29.5 -10.5t-24.5 -3.5q-27 0 -41 15.5t-14 40.5q0 10 3 21t7 22l7 17q-26 -32 -52 -53.5t-52 -37.5q-22 -13 -41.5 -19t-35.5 -6zM86 25q18 0 52 21.5t79 66.5q6 6 22.5 21.5t35.5 35t32.5 39t13.5 32.5
q0 19 -33 19q-29 0 -69.5 -22.5t-77.5 -66.5q-38 -45 -55.5 -77.5t-17.5 -49.5q0 -19 18 -19zM178 361q-16 0 -14 4q0 5 15 7q14 3 38 13t53 24t56 27.5l47 23.5q5 3 14 3q7 0 8 -3q8 -12 17 -31.5t20.5 -35.5t25.5 -20q5 -2 5 -4q0 -7 -22 -7q-36 0 -59 16t-35 34
q-38 -18 -86 -34.5t-83 -16.5z" />
    <glyph glyph-name="atilde" unicode="&#xe3;" horiz-adv-x="476" 
d="M55 -1q-31 0 -48 19.5t-17 50.5q0 29 15.5 64t49.5 71q35 38 87 61.5t99 23.5q38 0 65 -16.5t36 -41.5q11 0 27.5 -6t16.5 -22q0 -11 -11 -25q-7 -10 -24.5 -30t-32.5 -43q-12 -18 -19 -33.5t-7 -26.5q0 -15 15 -15q17 0 51 19q37 21 71 48t53 43q5 4 7 4q4 0 4 -5
q0 -6 -5 -11q-9 -8 -35 -30t-59.5 -46t-65.5 -39q-16 -7 -29.5 -10.5t-24.5 -3.5q-27 0 -41 15.5t-14 40.5q0 10 3 21t7 22l7 17q-26 -32 -52 -53.5t-52 -37.5q-22 -13 -41.5 -19t-35.5 -6zM86 25q18 0 52 21.5t79 66.5q6 6 22.5 21.5t35.5 35t32.5 39t13.5 32.5
q0 19 -33 19q-29 0 -69.5 -22.5t-77.5 -66.5q-38 -45 -55.5 -77.5t-17.5 -49.5q0 -19 18 -19zM363 374q-21 0 -35.5 11t-25.5 21.5t-25 10.5q-17 0 -33.5 -10t-28 -19.5t-16.5 -9.5q-6 0 -6 4q0 3 4 7q27 26 56.5 43.5t54.5 17.5q28 0 42 -8.5t24.5 -17.5t26.5 -9
q17 0 30.5 8.5t20.5 20.5q8 -2 6 -10q-3 -13 -19.5 -27t-37.5 -23.5t-38 -9.5z" />
    <glyph glyph-name="adieresis" unicode="&#xe4;" horiz-adv-x="476" 
d="M55 -1q-31 0 -48 19.5t-17 50.5q0 29 15.5 64t49.5 71q35 38 87 61.5t99 23.5q38 0 65 -16.5t36 -41.5q11 0 27.5 -6t16.5 -22q0 -11 -11 -25q-7 -10 -24.5 -30t-32.5 -43q-12 -18 -19 -33.5t-7 -26.5q0 -15 15 -15q17 0 51 19q37 21 71 48t53 43q5 4 7 4q4 0 4 -5
q0 -6 -5 -11q-9 -8 -35 -30t-59.5 -46t-65.5 -39q-16 -7 -29.5 -10.5t-24.5 -3.5q-27 0 -41 15.5t-14 40.5q0 10 3 21t7 22l7 17q-26 -32 -52 -53.5t-52 -37.5q-22 -13 -41.5 -19t-35.5 -6zM86 25q18 0 52 21.5t79 66.5q6 6 22.5 21.5t35.5 35t32.5 39t13.5 32.5
q0 19 -33 19q-29 0 -69.5 -22.5t-77.5 -66.5q-38 -45 -55.5 -77.5t-17.5 -49.5q0 -19 18 -19zM382 370q-7 0 -11.5 6t-4.5 14q0 16 13 29.5t31 21.5t31 8q9 0 9 -10q0 -12 -14 -30q-7 -9 -22 -24t-32 -15zM256 370q-7 0 -11.5 6t-4.5 14q0 16 13 29.5t31 21.5t31 8
q9 0 9 -10q0 -12 -14 -30q-7 -9 -22 -24t-32 -15z" />
    <glyph glyph-name="aring" unicode="&#xe5;" horiz-adv-x="476" 
d="M55 -1q-31 0 -48 19.5t-17 50.5q0 29 15.5 64t49.5 71q35 38 87 61.5t99 23.5q38 0 65 -16.5t36 -41.5q11 0 27.5 -6t16.5 -22q0 -11 -11 -25q-7 -10 -24.5 -30t-32.5 -43q-12 -18 -19 -33.5t-7 -26.5q0 -15 15 -15q17 0 51 19q37 21 71 48t53 43q5 4 7 4q4 0 4 -5
q0 -6 -5 -11q-9 -8 -35 -30t-59.5 -46t-65.5 -39q-16 -7 -29.5 -10.5t-24.5 -3.5q-27 0 -41 15.5t-14 40.5q0 10 3 21t7 22l7 17q-26 -32 -52 -53.5t-52 -37.5q-22 -13 -41.5 -19t-35.5 -6zM86 25q18 0 52 21.5t79 66.5q6 6 22.5 21.5t35.5 35t32.5 39t13.5 32.5
q0 19 -33 19q-29 0 -69.5 -22.5t-77.5 -66.5q-38 -45 -55.5 -77.5t-17.5 -49.5q0 -19 18 -19zM325 346q-16 0 -25.5 6.5t-9.5 22.5v5t1 6q5 25 24.5 49.5t46 45t54.5 33t50 12.5q24 0 38.5 -12.5t9.5 -35.5q-6 -25 -27 -49t-50 -42.5t-59 -29.5t-53 -11zM331 362
q26 0 55.5 15.5t52.5 38.5t27 43q3 16 -7.5 21t-24.5 5q-27 0 -53.5 -17t-45.5 -40.5t-23 -43.5q-1 -3 -1 -8q0 -14 20 -14z" />
    <glyph glyph-name="ae" unicode="&#xe6;" horiz-adv-x="582" 
d="M312 -12q-40 0 -66.5 18t-26.5 51q0 9 3 19.5t7 21.5l7 17q-26 -32 -52 -53.5t-52 -37.5q-22 -13 -41.5 -19t-35.5 -6q-31 0 -48 19.5t-17 50.5q0 29 15.5 64t49.5 71q35 38 87 61.5t99 23.5q17 0 33 -3.5t29 -11.5q15 -9 23 -17t12 -16q31 20 65 31t68 11
q42 0 62.5 -14.5t20.5 -35.5q0 -20 -18.5 -42.5t-54.5 -39.5q-22 -10 -50.5 -17.5t-49.5 -7.5q-17 0 -17 5q0 4 15 4q13 0 40.5 7.5t52.5 20.5q29 16 41.5 32t12.5 29q0 12 -9.5 20t-26.5 8q-16 0 -36 -9q-19 -9 -42 -28t-44 -43.5t-36 -50t-19 -48.5q-1 -3 -1 -6v-5
q0 -23 18 -34.5t46 -10.5q26 0 59.5 16.5t68.5 41t64.5 50t47.5 43.5q5 5 9 5q3 0 3 -5q0 -7 -6 -13q-38 -34 -82.5 -72t-94 -65t-104.5 -28q-7 -1 -14.5 -1.5t-14.5 -0.5zM86 25q18 0 52 21.5t79 66.5q6 6 22.5 21.5t35.5 35t32.5 39t13.5 32.5q0 19 -33 19
q-29 0 -69.5 -22.5t-77.5 -66.5q-38 -45 -55.5 -77.5t-17.5 -49.5q0 -19 18 -19z" />
    <glyph glyph-name="ccedilla" unicode="&#xe7;" horiz-adv-x="339" 
d="M96 -10q-43 0 -72.5 21.5t-29.5 62.5q0 44 21.5 82t56.5 66.5t76.5 44.5t82.5 16t60.5 -15t19.5 -36q0 -14 -8 -27.5t-22 -13.5q-9 0 -9 7q0 5 3 9q12 21 12 37q0 20 -21 20q-17 0 -44 -13q-22 -10 -46.5 -30.5t-45.5 -47t-34.5 -54t-13.5 -51.5q0 -23 13 -38t39 -15
q17 0 40.5 8t52.5 26q24 15 50.5 36t51.5 43t43 38q6 6 10 6t4 -5q0 -7 -6 -12q-26 -24 -57 -51.5t-64.5 -51.5t-65.5 -39q-52 -23 -97 -23zM-83 -222q-5 0 -5 4q0 5 3.5 8t6.5 3q9 0 25.5 1t35 6t33 18t17.5 37q2 15 -5.5 31t-7.5 32q0 18 14 38.5t34.5 34.5t39.5 14
q9 0 7 -6q-11 -1 -25 -10.5t-23.5 -21.5t-9.5 -24q0 -10 9 -25t18 -31.5t9 -33.5q0 -27 -20.5 -42.5t-50.5 -22t-59 -8.5t-46 -2z" />
    <glyph glyph-name="egrave" unicode="&#xe8;" horiz-adv-x="340" 
d="M97 -10q-44 0 -73.5 21.5t-29.5 62.5q0 44 21 82t56 66.5t76.5 44.5t82.5 16t61 -14.5t20 -35.5q0 -20 -18.5 -42.5t-53.5 -39.5q-22 -10 -50.5 -17.5t-49.5 -7.5q-16 0 -16 5q0 4 14 4q13 0 40.5 7.5t53.5 20.5q29 16 41 32t12 29q0 12 -9.5 20t-26.5 8q-16 0 -36 -9
q-29 -13 -59.5 -42.5t-50.5 -64.5t-20 -67q0 -22 12.5 -37t37.5 -15q26 0 60 16.5t69 41t65 49.5t48 42q6 6 9 6t3 -5q0 -7 -6 -12q-38 -35 -82.5 -73t-95 -64.5t-105.5 -27.5zM313 346q-38 0 -72.5 16.5t-59.5 38.5t-38 36q-5 5 3 13t21.5 14t22.5 6q8 0 9 -3
q14 -18 36.5 -42t47 -42.5t42.5 -22.5q10 -2 10 -7q0 -2 -4 -4.5t-18 -2.5z" />
    <glyph glyph-name="eacute" unicode="&#xe9;" horiz-adv-x="340" 
d="M97 -10q-44 0 -73.5 21.5t-29.5 62.5q0 44 21 82t56 66.5t76.5 44.5t82.5 16t61 -14.5t20 -35.5q0 -20 -18.5 -42.5t-53.5 -39.5q-22 -10 -50.5 -17.5t-49.5 -7.5q-16 0 -16 5q0 4 14 4q13 0 40.5 7.5t53.5 20.5q29 16 41 32t12 29q0 12 -9.5 20t-26.5 8q-16 0 -36 -9
q-29 -13 -59.5 -42.5t-50.5 -64.5t-20 -67q0 -22 12.5 -37t37.5 -15q26 0 60 16.5t69 41t65 49.5t48 42q6 6 9 6t3 -5q0 -7 -6 -12q-38 -35 -82.5 -73t-95 -64.5t-105.5 -27.5zM295 346q-22 0 -20 6q0 6 14 8q20 4 51.5 22.5t64.5 42.5t54 42q5 3 11 3q10 0 20 -6t15 -14
t-2 -13q-18 -14 -52.5 -36t-75.5 -38.5t-80 -16.5z" />
    <glyph glyph-name="ecircumflex" unicode="&#xea;" horiz-adv-x="340" 
d="M97 -10q-44 0 -73.5 21.5t-29.5 62.5q0 44 21 82t56 66.5t76.5 44.5t82.5 16t61 -14.5t20 -35.5q0 -20 -18.5 -42.5t-53.5 -39.5q-22 -10 -50.5 -17.5t-49.5 -7.5q-16 0 -16 5q0 4 14 4q13 0 40.5 7.5t53.5 20.5q29 16 41 32t12 29q0 12 -9.5 20t-26.5 8q-16 0 -36 -9
q-29 -13 -59.5 -42.5t-50.5 -64.5t-20 -67q0 -22 12.5 -37t37.5 -15q26 0 60 16.5t69 41t65 49.5t48 42q6 6 9 6t3 -5q0 -7 -6 -12q-38 -35 -82.5 -73t-95 -64.5t-105.5 -27.5zM148 361q-16 0 -14 4q0 5 15 7q14 3 38 13t53 24t56 27.5l47 23.5q5 3 14 3q7 0 8 -3
q8 -12 17 -31.5t20.5 -35.5t25.5 -20q5 -2 5 -4q0 -7 -22 -7q-36 0 -59 16t-35 34q-38 -18 -86 -34.5t-83 -16.5z" />
    <glyph glyph-name="edieresis" unicode="&#xeb;" horiz-adv-x="340" 
d="M97 -10q-44 0 -73.5 21.5t-29.5 62.5q0 44 21 82t56 66.5t76.5 44.5t82.5 16t61 -14.5t20 -35.5q0 -20 -18.5 -42.5t-53.5 -39.5q-22 -10 -50.5 -17.5t-49.5 -7.5q-16 0 -16 5q0 4 14 4q13 0 40.5 7.5t53.5 20.5q29 16 41 32t12 29q0 12 -9.5 20t-26.5 8q-16 0 -36 -9
q-29 -13 -59.5 -42.5t-50.5 -64.5t-20 -67q0 -22 12.5 -37t37.5 -15q26 0 60 16.5t69 41t65 49.5t48 42q6 6 9 6t3 -5q0 -7 -6 -12q-38 -35 -82.5 -73t-95 -64.5t-105.5 -27.5zM352 370q-7 0 -11.5 6t-4.5 14q0 16 13 29.5t31 21.5t31 8q9 0 9 -10q0 -12 -14 -30
q-7 -9 -22 -24t-32 -15zM226 370q-7 0 -11.5 6t-4.5 14q0 16 13 29.5t31 21.5t31 8q9 0 9 -10q0 -12 -14 -30q-7 -9 -22 -24t-32 -15z" />
    <glyph glyph-name="igrave" unicode="&#xec;" horiz-adv-x="275" 
d="M70 -1q-41 0 -55.5 17.5t-14.5 39.5q0 18 6 34.5t10 23.5q6 10 16.5 23t23.5 28q-20 -17 -37.5 -33t-28.5 -24q-3 -3 -6 -3q-4 0 -4 5q0 9 11 17q25 20 52.5 47.5l52 52t40.5 32.5q11 6 21 8.5t17 2.5q11 0 16 -3.5t2 -7.5q-17 -17 -33.5 -43.5t-30.5 -55.5t-22.5 -55
t-8.5 -44q0 -25 20 -25q19 0 49.5 17.5t64 44.5t62.5 53q4 4 7 4q5 0 6 -4.5t-2 -6.5q-35 -31 -76.5 -65t-82.5 -57t-75 -23zM262 346q-38 0 -72.5 16.5t-59.5 38.5t-38 36q-5 5 3 13t21.5 14t22.5 6q8 0 9 -3q14 -18 36.5 -42t47 -42.5t42.5 -22.5q10 -2 10 -7
q0 -2 -4 -4.5t-18 -2.5z" />
    <glyph glyph-name="iacute" unicode="&#xed;" horiz-adv-x="275" 
d="M70 -1q-41 0 -55.5 17.5t-14.5 39.5q0 18 6 34.5t10 23.5q6 10 16.5 23t23.5 28q-20 -17 -37.5 -33t-28.5 -24q-3 -3 -6 -3q-4 0 -4 5q0 9 11 17q25 20 52.5 47.5l52 52t40.5 32.5q11 6 21 8.5t17 2.5q11 0 16 -3.5t2 -7.5q-17 -17 -33.5 -43.5t-30.5 -55.5t-22.5 -55
t-8.5 -44q0 -25 20 -25q19 0 49.5 17.5t64 44.5t62.5 53q4 4 7 4q5 0 6 -4.5t-2 -6.5q-35 -31 -76.5 -65t-82.5 -57t-75 -23zM244 346q-22 0 -20 6q0 6 14 8q20 4 51.5 22.5t64.5 42.5t54 42q5 3 11 3q10 0 20 -6t15 -14t-2 -13q-18 -14 -52.5 -36t-75.5 -38.5t-80 -16.5z
" />
    <glyph glyph-name="icircumflex" unicode="&#xee;" horiz-adv-x="275" 
d="M70 -1q-41 0 -55.5 17.5t-14.5 39.5q0 18 6 34.5t10 23.5q6 10 16.5 23t23.5 28q-20 -17 -37.5 -33t-28.5 -24q-3 -3 -6 -3q-4 0 -4 5q0 9 11 17q25 20 52.5 47.5l52 52t40.5 32.5q11 6 21 8.5t17 2.5q11 0 16 -3.5t2 -7.5q-17 -17 -33.5 -43.5t-30.5 -55.5t-22.5 -55
t-8.5 -44q0 -25 20 -25q19 0 49.5 17.5t64 44.5t62.5 53q4 4 7 4q5 0 6 -4.5t-2 -6.5q-35 -31 -76.5 -65t-82.5 -57t-75 -23zM97 361q-16 0 -14 4q0 5 15 7q14 3 38 13t53 24t56 27.5l47 23.5q5 3 14 3q7 0 8 -3q8 -12 17 -31.5t20.5 -35.5t25.5 -20q5 -2 5 -4q0 -7 -22 -7
q-36 0 -59 16t-35 34q-38 -18 -86 -34.5t-83 -16.5z" />
    <glyph glyph-name="idieresis" unicode="&#xef;" horiz-adv-x="275" 
d="M70 -1q-41 0 -55.5 17.5t-14.5 39.5q0 18 6 34.5t10 23.5q6 10 16.5 23t23.5 28q-20 -17 -37.5 -33t-28.5 -24q-3 -3 -6 -3q-4 0 -4 5q0 9 11 17q25 20 52.5 47.5l52 52t40.5 32.5q11 6 21 8.5t17 2.5q11 0 16 -3.5t2 -7.5q-17 -17 -33.5 -43.5t-30.5 -55.5t-22.5 -55
t-8.5 -44q0 -25 20 -25q19 0 49.5 17.5t64 44.5t62.5 53q4 4 7 4q5 0 6 -4.5t-2 -6.5q-35 -31 -76.5 -65t-82.5 -57t-75 -23zM301 370q-7 0 -11.5 6t-4.5 14q0 16 13 29.5t31 21.5t31 8q9 0 9 -10q0 -12 -14 -30q-7 -9 -22 -24t-32 -15zM175 370q-7 0 -11.5 6t-4.5 14
q0 16 13 29.5t31 21.5t31 8q9 0 9 -10q0 -12 -14 -30q-7 -9 -22 -24t-32 -15z" />
    <glyph glyph-name="eth" unicode="&#xf0;" horiz-adv-x="382" 
d="M98 -10q-43 0 -72.5 21.5t-29.5 62.5q0 44 21.5 82t56.5 66.5t76.5 44.5t82.5 16t60.5 -15t19.5 -36q0 -12 -6 -24q-4 -8 -11 -12.5t-13 -4.5q-9 0 -9 7q0 5 3 9q12 21 12 37q0 20 -21 20q-17 0 -44 -13q-22 -10 -46.5 -30.5t-45.5 -47t-34.5 -54t-13.5 -51.5
q0 -23 13 -38t39 -15q17 0 40.5 8t52.5 26q63 41 89 85t26 89q0 55 -30.5 107t-71.5 92q-19 -13 -39.5 -27t-44.5 -29q-1 -1 -1.5 -1h-0.5q-4 0 -10 11q-7 16 -7 29q0 10 5 13q35 20 65 35q-17 14 -32.5 25t-29.5 19q-18 11 -18 28q0 11 7.5 18.5t23.5 7.5q10 0 22 -3.5
t27 -12.5q38 -22 69 -49q35 14 57 21t33 10q2 0 2.5 0.5t1.5 0.5q7 0 11 -6q1 -1 1 -3q0 -5 -7 -8q-21 -10 -39 -19.5t-34 -19.5q43 -44 65 -94t22 -100q0 -74 -48.5 -142t-147.5 -113q-52 -23 -97 -23z" />
    <glyph glyph-name="ntilde" unicode="&#xf1;" horiz-adv-x="397" 
d="M-5 -5q-10 0 -24 4.5t-28 16.5q11 15 31.5 40.5t43.5 56.5t43 62q-16 -16 -35 -34t-38 -33q-4 -4 -9 -4q-4 0 -4 4q0 5 8 12q28 25 62.5 57.5t50.5 66.5q5 12 5 22q0 13 -5 16q-4 3 -4 8q0 9 9 9q5 0 8 -2q11 -5 21 -19t10 -42q0 -16 -4 -36.5t-14 -46.5q15 20 30.5 39
t28.5 34q27 31 54.5 44.5t49.5 13.5q26 0 42 -15t16 -39q0 -19 -10 -39q-3 -8 -14 -24.5t-24 -35.5t-24 -34q-13 -16 -18 -27.5t-5 -18.5q0 -10 11 -10q14 0 39 15q15 9 34.5 24.5t39 32t31.5 27.5q4 4 7 4q4 0 4 -5q0 -6 -5 -11q-30 -28 -69.5 -61t-77.5 -51
q-31 -15 -57 -15q-22 0 -35 11.5t-13 33.5q0 16 8 38q10 27 28.5 54t39 51.5t35.5 41.5q13 14 13 24q0 9 -12 9t-35.5 -13.5t-52.5 -43.5q-41 -43 -72 -93t-71 -94q-22 -25 -43 -25zM343 374q-21 0 -35.5 11t-25.5 21.5t-25 10.5q-17 0 -33.5 -10t-28 -19.5t-16.5 -9.5
q-6 0 -6 4q0 3 4 7q27 26 56.5 43.5t54.5 17.5q28 0 42 -8.5t24.5 -17.5t26.5 -9q17 0 30.5 8.5t20.5 20.5q8 -2 6 -10q-3 -13 -19.5 -27t-37.5 -23.5t-38 -9.5z" />
    <glyph glyph-name="ograve" unicode="&#xf2;" horiz-adv-x="399" 
d="M77 -9q-39 0 -58.5 19.5t-19.5 50.5q0 19 5 37t11 32q-7 -7 -13.5 -12.5t-10.5 -8.5t-7 -3q-4 0 -4 5q0 7 10 16q35 29 55 51.5t42 41.5q37 32 79 50t84 18q44 0 69 -21t25 -62q0 -23 -13.5 -53t-42.5 -62q-12 -13 -27 -25.5t-26 -18.5q49 5 92 34.5t77 58.5q5 3 7 3
q5 0 5 -5q0 -4 -5 -9q-43 -41 -92.5 -69t-109.5 -27q-35 -19 -68.5 -30t-63.5 -11zM122 19q14 0 30 5t32 13q-6 0 -11.5 6t-5.5 16q0 20 15 41t37 36t43 15q12 0 22.5 -6.5t11.5 -17.5q17 19 23.5 41t6.5 41q0 26 -16.5 39.5t-44.5 13.5q-27 0 -59.5 -19t-61 -49t-47 -65
t-18.5 -67q0 -43 43 -43zM326 346q-38 0 -72.5 16.5t-59.5 38.5t-38 36q-5 5 3 13t21.5 14t22.5 6q8 0 9 -3q14 -18 36.5 -42t47 -42.5t42.5 -22.5q10 -2 10 -7q0 -2 -4 -4.5t-18 -2.5z" />
    <glyph glyph-name="oacute" unicode="&#xf3;" horiz-adv-x="399" 
d="M77 -9q-39 0 -58.5 19.5t-19.5 50.5q0 19 5 37t11 32q-7 -7 -13.5 -12.5t-10.5 -8.5t-7 -3q-4 0 -4 5q0 7 10 16q35 29 55 51.5t42 41.5q37 32 79 50t84 18q44 0 69 -21t25 -62q0 -23 -13.5 -53t-42.5 -62q-12 -13 -27 -25.5t-26 -18.5q49 5 92 34.5t77 58.5q5 3 7 3
q5 0 5 -5q0 -4 -5 -9q-43 -41 -92.5 -69t-109.5 -27q-35 -19 -68.5 -30t-63.5 -11zM122 19q14 0 30 5t32 13q-6 0 -11.5 6t-5.5 16q0 20 15 41t37 36t43 15q12 0 22.5 -6.5t11.5 -17.5q17 19 23.5 41t6.5 41q0 26 -16.5 39.5t-44.5 13.5q-27 0 -59.5 -19t-61 -49t-47 -65
t-18.5 -67q0 -43 43 -43zM308 346q-22 0 -20 6q0 6 14 8q20 4 51.5 22.5t64.5 42.5t54 42q5 3 11 3q10 0 20 -6t15 -14t-2 -13q-18 -14 -52.5 -36t-75.5 -38.5t-80 -16.5z" />
    <glyph glyph-name="ocircumflex" unicode="&#xf4;" horiz-adv-x="399" 
d="M77 -9q-39 0 -58.5 19.5t-19.5 50.5q0 19 5 37t11 32q-7 -7 -13.5 -12.5t-10.5 -8.5t-7 -3q-4 0 -4 5q0 7 10 16q35 29 55 51.5t42 41.5q37 32 79 50t84 18q44 0 69 -21t25 -62q0 -23 -13.5 -53t-42.5 -62q-12 -13 -27 -25.5t-26 -18.5q49 5 92 34.5t77 58.5q5 3 7 3
q5 0 5 -5q0 -4 -5 -9q-43 -41 -92.5 -69t-109.5 -27q-35 -19 -68.5 -30t-63.5 -11zM122 19q14 0 30 5t32 13q-6 0 -11.5 6t-5.5 16q0 20 15 41t37 36t43 15q12 0 22.5 -6.5t11.5 -17.5q17 19 23.5 41t6.5 41q0 26 -16.5 39.5t-44.5 13.5q-27 0 -59.5 -19t-61 -49t-47 -65
t-18.5 -67q0 -43 43 -43zM161 361q-16 0 -14 4q0 5 15 7q14 3 38 13t53 24t56 27.5l47 23.5q5 3 14 3q7 0 8 -3q8 -12 17 -31.5t20.5 -35.5t25.5 -20q5 -2 5 -4q0 -7 -22 -7q-36 0 -59 16t-35 34q-38 -18 -86 -34.5t-83 -16.5z" />
    <glyph glyph-name="otilde" unicode="&#xf5;" horiz-adv-x="399" 
d="M77 -9q-39 0 -58.5 19.5t-19.5 50.5q0 19 5 37t11 32q-7 -7 -13.5 -12.5t-10.5 -8.5t-7 -3q-4 0 -4 5q0 7 10 16q35 29 55 51.5t42 41.5q37 32 79 50t84 18q44 0 69 -21t25 -62q0 -23 -13.5 -53t-42.5 -62q-12 -13 -27 -25.5t-26 -18.5q49 5 92 34.5t77 58.5q5 3 7 3
q5 0 5 -5q0 -4 -5 -9q-43 -41 -92.5 -69t-109.5 -27q-35 -19 -68.5 -30t-63.5 -11zM122 19q14 0 30 5t32 13q-6 0 -11.5 6t-5.5 16q0 20 15 41t37 36t43 15q12 0 22.5 -6.5t11.5 -17.5q17 19 23.5 41t6.5 41q0 26 -16.5 39.5t-44.5 13.5q-27 0 -59.5 -19t-61 -49t-47 -65
t-18.5 -67q0 -43 43 -43zM346 374q-21 0 -35.5 11t-25.5 21.5t-25 10.5q-17 0 -33.5 -10t-28 -19.5t-16.5 -9.5q-6 0 -6 4q0 3 4 7q27 26 56.5 43.5t54.5 17.5q28 0 42 -8.5t24.5 -17.5t26.5 -9q17 0 30.5 8.5t20.5 20.5q8 -2 6 -10q-3 -13 -19.5 -27t-37.5 -23.5t-38 -9.5z
" />
    <glyph glyph-name="odieresis" unicode="&#xf6;" horiz-adv-x="399" 
d="M77 -9q-39 0 -58.5 19.5t-19.5 50.5q0 19 5 37t11 32q-7 -7 -13.5 -12.5t-10.5 -8.5t-7 -3q-4 0 -4 5q0 7 10 16q35 29 55 51.5t42 41.5q37 32 79 50t84 18q44 0 69 -21t25 -62q0 -23 -13.5 -53t-42.5 -62q-12 -13 -27 -25.5t-26 -18.5q49 5 92 34.5t77 58.5q5 3 7 3
q5 0 5 -5q0 -4 -5 -9q-43 -41 -92.5 -69t-109.5 -27q-35 -19 -68.5 -30t-63.5 -11zM122 19q14 0 30 5t32 13q-6 0 -11.5 6t-5.5 16q0 20 15 41t37 36t43 15q12 0 22.5 -6.5t11.5 -17.5q17 19 23.5 41t6.5 41q0 26 -16.5 39.5t-44.5 13.5q-27 0 -59.5 -19t-61 -49t-47 -65
t-18.5 -67q0 -43 43 -43zM365 370q-7 0 -11.5 6t-4.5 14q0 16 13 29.5t31 21.5t31 8q9 0 9 -10q0 -12 -14 -30q-7 -9 -22 -24t-32 -15zM239 370q-7 0 -11.5 6t-4.5 14q0 16 13 29.5t31 21.5t31 8q9 0 9 -10q0 -12 -14 -30q-7 -9 -22 -24t-32 -15z" />
    <glyph glyph-name="divide" unicode="&#xf7;" horiz-adv-x="461" 
d="M308 264q-11 0 -20 6q-11 9 -11 25q0 21 18 42q22 25 48 25q13 0 21 -7q10 -9 10 -25q0 -22 -18 -42q-21 -24 -48 -24zM135 163q-6 0 -6 15q0 12 4 25t11 14q41 4 76.5 5.5t63.5 1.5q51 0 83 -3t45 -5q12 -2 12 -11q0 -7 -10 -7q-78 -2 -142.5 -13t-135.5 -22h-1zM175 36
q-16 0 -23.5 9t-7.5 22q0 22 18 43q21 24 48 24q11 0 20 -6q11 -9 11 -25q0 -22 -18 -42q-22 -25 -48 -25z" />
    <glyph glyph-name="oslash" unicode="&#xf8;" horiz-adv-x="399" 
d="M77 -9q-6 0 -12 1q0 -1 -1 -2q-15 -20 -26 -36.5t-19 -27.5q-7 -10 -12 -10q-6 0 -6 10q0 8 5 16q6 11 15.5 23.5t21.5 30.5q-22 8 -33 25t-11 40q0 19 5 37t11 32q-7 -7 -13.5 -12.5t-10.5 -8.5t-7 -3q-4 0 -4 5q0 7 10 16q35 29 55 51.5t42 41.5q37 32 79 50t84 18h6
q16 21 29.5 38.5t21.5 27.5q9 12 16 14q3 1 8 1.5t9 -0.5q8 0 8 -4q0 -3 -4 -8q-13 -17 -27.5 -35.5t-29.5 -38.5q57 -16 57 -78q0 -23 -13.5 -53t-42.5 -62q-12 -13 -27 -25.5t-26 -18.5q49 5 92 34.5t77 58.5q5 3 7 3q5 0 5 -5q0 -4 -5 -9q-43 -41 -92.5 -69t-109.5 -27
q-35 -19 -68.5 -30t-63.5 -11zM122 19q14 0 30 5t32 13q-6 0 -11.5 6t-5.5 16q0 20 15 41t37 36t43 15q12 0 22.5 -6.5t11.5 -17.5q17 19 23.5 41t6.5 41q0 26 -16 39.5t-39 13.5q-33 -43 -66.5 -87t-63 -82.5t-48.5 -64.5q10 -9 29 -9zM79 62q0 -8 1 -13q20 27 46 62.5
t53.5 73t52.5 71.5q-26 -10 -53 -31t-49.5 -48t-36.5 -57t-14 -58z" />
    <glyph glyph-name="ugrave" unicode="&#xf9;" horiz-adv-x="459" 
d="M299 -39q-13 5 -25.5 18t-12.5 45q0 27 9 56.5t23 58.5q-26 -33 -56.5 -65t-61 -52.5t-56.5 -20.5q-22 0 -36.5 12t-14.5 37q0 18 7 39t25 47t39.5 51.5t37.5 43.5q11 13 11 21q0 10 -11 10q-12 0 -34 -16q-23 -17 -49 -41.5t-49 -47t-39 -35.5q-3 -3 -6 -3q-5 0 -5 6
q0 5 9 13q44 38 73 69.5t57 53.5q15 12 31 17.5t30 5.5q24 0 40 -14t16 -39q0 -19 -10 -40q-11 -25 -29.5 -49.5t-35.5 -47.5q-13 -19 -19 -31t-6 -18q0 -8 8 -8t23 9t31 23q11 10 19.5 18.5l12.5 12.5q23 24 46 51.5t40 50.5q13 17 20.5 26t16.5 19q17 19 36 20
q11 0 25.5 -4.5t28.5 -17.5q-10 -14 -29.5 -38.5t-42 -54t-43 -60.5t-33.5 -58t-13 -47q0 -14 8 -22q4 -4 0 -4.5t-6 0.5zM373 346q-38 0 -72.5 16.5t-59.5 38.5t-38 36q-5 5 3 13t21.5 14t22.5 6q8 0 9 -3q14 -18 36.5 -42t47 -42.5t42.5 -22.5q10 -2 10 -7q0 -2 -4 -4.5
t-18 -2.5z" />
    <glyph glyph-name="uacute" unicode="&#xfa;" horiz-adv-x="459" 
d="M299 -39q-13 5 -25.5 18t-12.5 45q0 27 9 56.5t23 58.5q-26 -33 -56.5 -65t-61 -52.5t-56.5 -20.5q-22 0 -36.5 12t-14.5 37q0 18 7 39t25 47t39.5 51.5t37.5 43.5q11 13 11 21q0 10 -11 10q-12 0 -34 -16q-23 -17 -49 -41.5t-49 -47t-39 -35.5q-3 -3 -6 -3q-5 0 -5 6
q0 5 9 13q44 38 73 69.5t57 53.5q15 12 31 17.5t30 5.5q24 0 40 -14t16 -39q0 -19 -10 -40q-11 -25 -29.5 -49.5t-35.5 -47.5q-13 -19 -19 -31t-6 -18q0 -8 8 -8t23 9t31 23q11 10 19.5 18.5l12.5 12.5q23 24 46 51.5t40 50.5q13 17 20.5 26t16.5 19q17 19 36 20
q11 0 25.5 -4.5t28.5 -17.5q-10 -14 -29.5 -38.5t-42 -54t-43 -60.5t-33.5 -58t-13 -47q0 -14 8 -22q4 -4 0 -4.5t-6 0.5zM355 346q-22 0 -20 6q0 6 14 8q20 4 51.5 22.5t64.5 42.5t54 42q5 3 11 3q10 0 20 -6t15 -14t-2 -13q-18 -14 -52.5 -36t-75.5 -38.5t-80 -16.5z" />
    <glyph glyph-name="ucircumflex" unicode="&#xfb;" horiz-adv-x="459" 
d="M299 -39q-13 5 -25.5 18t-12.5 45q0 27 9 56.5t23 58.5q-26 -33 -56.5 -65t-61 -52.5t-56.5 -20.5q-22 0 -36.5 12t-14.5 37q0 18 7 39t25 47t39.5 51.5t37.5 43.5q11 13 11 21q0 10 -11 10q-12 0 -34 -16q-23 -17 -49 -41.5t-49 -47t-39 -35.5q-3 -3 -6 -3q-5 0 -5 6
q0 5 9 13q44 38 73 69.5t57 53.5q15 12 31 17.5t30 5.5q24 0 40 -14t16 -39q0 -19 -10 -40q-11 -25 -29.5 -49.5t-35.5 -47.5q-13 -19 -19 -31t-6 -18q0 -8 8 -8t23 9t31 23q11 10 19.5 18.5l12.5 12.5q23 24 46 51.5t40 50.5q13 17 20.5 26t16.5 19q17 19 36 20
q11 0 25.5 -4.5t28.5 -17.5q-10 -14 -29.5 -38.5t-42 -54t-43 -60.5t-33.5 -58t-13 -47q0 -14 8 -22q4 -4 0 -4.5t-6 0.5zM208 361q-16 0 -14 4q0 5 15 7q14 3 38 13t53 24t56 27.5l47 23.5q5 3 14 3q7 0 8 -3q8 -12 17 -31.5t20.5 -35.5t25.5 -20q5 -2 5 -4q0 -7 -22 -7
q-36 0 -59 16t-35 34q-38 -18 -86 -34.5t-83 -16.5z" />
    <glyph glyph-name="udieresis" unicode="&#xfc;" horiz-adv-x="459" 
d="M299 -39q-13 5 -25.5 18t-12.5 45q0 27 9 56.5t23 58.5q-26 -33 -56.5 -65t-61 -52.5t-56.5 -20.5q-22 0 -36.5 12t-14.5 37q0 18 7 39t25 47t39.5 51.5t37.5 43.5q11 13 11 21q0 10 -11 10q-12 0 -34 -16q-23 -17 -49 -41.5t-49 -47t-39 -35.5q-3 -3 -6 -3q-5 0 -5 6
q0 5 9 13q44 38 73 69.5t57 53.5q15 12 31 17.5t30 5.5q24 0 40 -14t16 -39q0 -19 -10 -40q-11 -25 -29.5 -49.5t-35.5 -47.5q-13 -19 -19 -31t-6 -18q0 -8 8 -8t23 9t31 23q11 10 19.5 18.5l12.5 12.5q23 24 46 51.5t40 50.5q13 17 20.5 26t16.5 19q17 19 36 20
q11 0 25.5 -4.5t28.5 -17.5q-10 -14 -29.5 -38.5t-42 -54t-43 -60.5t-33.5 -58t-13 -47q0 -14 8 -22q4 -4 0 -4.5t-6 0.5zM412 370q-7 0 -11.5 6t-4.5 14q0 16 13 29.5t31 21.5t31 8q9 0 9 -10q0 -12 -14 -30q-7 -9 -22 -24t-32 -15zM286 370q-7 0 -11.5 6t-4.5 14
q0 16 13 29.5t31 21.5t31 8q9 0 9 -10q0 -12 -14 -30q-7 -9 -22 -24t-32 -15z" />
    <glyph glyph-name="yacute" unicode="&#xfd;" horiz-adv-x="444" 
d="M-68 -269q-48 0 -88.5 14.5t-67.5 45.5t-36 83q-2 8 4 8q4 0 6 -7q11 -56 54.5 -91t99.5 -35q52 0 105 27.5t103 75t94 107.5q47 64 85.5 133t74.5 139q-13 -19 -27 -39t-28 -37q-27 -34 -61.5 -69.5t-68.5 -60t-62 -24.5q-22 0 -36.5 12t-14.5 37q0 22 8 40.5t18 34.5
q17 28 41 57t42 49q11 13 11 21q0 10 -11 10q-13 0 -33 -16q-24 -17 -49 -40.5t-47 -44.5t-36 -33q-7 -5 -10 -5q-4 0 -4 4q0 6 7 12q20 17 42.5 40t45 45.5t41.5 36.5q15 12 31 17.5t30 5.5q24 0 40.5 -14t16.5 -39q0 -19 -10 -40q-12 -25 -30.5 -49.5t-35.5 -47.5
q-13 -19 -19 -31t-6 -17q0 -9 8 -9t23.5 9t31.5 23q27 25 59.5 61.5t63.5 76.5t54 74q14 33 30 58t41 25q14 0 22.5 -8t8.5 -16q0 -7 -6 -11.5t-20 -3.5q-11 2 -25 -4t-29 -38q-16 -36 -30.5 -84t-34.5 -103t-52.5 -113.5t-86.5 -115.5q-53 -56 -125.5 -96t-151.5 -40z
M316 366q-22 0 -20 6q0 6 14 8q20 4 51.5 22.5t64.5 42.5t54 42q5 3 11 3q10 0 20 -6t15 -14t-2 -13q-18 -14 -52.5 -36t-75.5 -38.5t-80 -16.5z" />
    <glyph glyph-name="thorn" unicode="&#xfe;" horiz-adv-x="398" 
d="M-109 -278q-11 10 -21.5 25t-10.5 41q0 44 24 102.5t65.5 126.5t92.5 138q-14 -13 -29.5 -26t-23.5 -20q-4 -3 -6 -3q-3 0 -3 4q0 2 2.5 7t8.5 10q25 21 52.5 50t52.5 58t41 50q29 38 61.5 85t63.5 102q3 6 6.5 15t3.5 16q0 10 -8 10q-2 0 -11.5 -4t-18.5 -8t-11 -4
q-8 0 1 9q23 18 60 34t65 17q42 0 42 -27q0 -14 -13 -37q-11 -18 -36.5 -50.5t-56 -70.5t-58 -72.5t-42.5 -57.5q22 26 59.5 46.5t70.5 20.5q30 0 48 -19t18 -50q0 -34 -19 -74.5t-51 -78.5q-39 -46 -86.5 -75t-86.5 -29q-28 0 -45 16t-17 49q0 15 4.5 32t11.5 35
q-34 -56 -69 -113t-64.5 -108.5t-47 -92.5t-17.5 -64q0 -8 2 -10q3 -4 0.5 -5.5t-4.5 0.5zM132 -8q26 0 59 22t60 64q20 31 29 60t9 51q0 27 -12 42t-32 15q-26 0 -59 -22.5t-60 -64.5q-20 -30 -29.5 -59t-9.5 -52q0 -56 45 -56z" />
    <glyph glyph-name="ydieresis" unicode="&#xff;" horiz-adv-x="444" 
d="M-68 -269q-48 0 -88.5 14.5t-67.5 45.5t-36 83q-2 8 4 8q4 0 6 -7q11 -56 54.5 -91t99.5 -35q52 0 105 27.5t103 75t94 107.5q47 64 85.5 133t74.5 139q-13 -19 -27 -39t-28 -37q-27 -34 -61.5 -69.5t-68.5 -60t-62 -24.5q-22 0 -36.5 12t-14.5 37q0 22 8 40.5t18 34.5
q17 28 41 57t42 49q11 13 11 21q0 10 -11 10q-13 0 -33 -16q-24 -17 -49 -40.5t-47 -44.5t-36 -33q-7 -5 -10 -5q-4 0 -4 4q0 6 7 12q20 17 42.5 40t45 45.5t41.5 36.5q15 12 31 17.5t30 5.5q24 0 40.5 -14t16.5 -39q0 -19 -10 -40q-12 -25 -30.5 -49.5t-35.5 -47.5
q-13 -19 -19 -31t-6 -17q0 -9 8 -9t23.5 9t31.5 23q27 25 59.5 61.5t63.5 76.5t54 74q14 33 30 58t41 25q14 0 22.5 -8t8.5 -16q0 -7 -6 -11.5t-20 -3.5q-11 2 -25 -4t-29 -38q-16 -36 -30.5 -84t-34.5 -103t-52.5 -113.5t-86.5 -115.5q-53 -56 -125.5 -96t-151.5 -40z
M373 390q-7 0 -11.5 6t-4.5 14q0 16 13 29.5t31 21.5t31 8q9 0 9 -10q0 -12 -14 -30q-7 -9 -22 -24t-32 -15zM247 390q-7 0 -11.5 6t-4.5 14q0 16 13 29.5t31 21.5t31 8q9 0 9 -10q0 -12 -14 -30q-7 -9 -22 -24t-32 -15z" />
    <glyph glyph-name="Amacron" unicode="&#x100;" horiz-adv-x="1030" 
d="M199 -40q-62 0 -109 13t-67 29q-50 39 -50 90q0 43 37.5 86.5t114.5 80t194 57.5q50 9 101.5 14t103.5 5q44 0 88.5 -4t87.5 -13q14 -3 32 -7.5t37 -10.5q83 85 162 169t153 142q52 41 97 56t80 15q41 0 67.5 -12.5t34.5 -20.5q3 -3 0 -6t-6 0q-5 6 -24 13t-49 7
q-37 0 -87 -17t-111 -64q-75 -59 -148.5 -135.5t-149.5 -153.5q39 -14 71.5 -38t37.5 -59v-4q0 -4 -2 -4q-3 0 -6 6q-4 11 -22.5 19t-42.5 13t-46 8t-33 4l-11 1q-83 -80 -171.5 -147.5t-187.5 -101.5q-47 -16 -91.5 -23t-84.5 -7zM972 -89q-45 32 -66 77t-21 97t18 104
q18 53 52.5 110t75.5 111.5t79.5 100t65 75.5t31.5 37q6 8 9 8q4 0 6 -6.5t2 -14.5q0 -16 -5 -23q-26 -33 -62 -84t-73 -113.5t-69 -128.5t-51.5 -129t-19.5 -115q0 -30 8 -55t26 -44q1 -1 1 -3t-2 -4t-5 0zM202 -23q37 0 80 6.5t89 20.5q86 27 171 92t167 145q-13 1 -26 1
h-27q-70 0 -145.5 -7t-143.5 -20q-110 -19 -179.5 -47.5t-102 -59.5t-32.5 -59q0 -27 27 -47q14 -10 46 -17.5t76 -7.5zM1136 762q-4 -1 -4 7q0 7 4 17.5t9.5 19.5t8.5 9q33 4 63 6t57 2q47 0 80 -4.5t49 -11.5q4 -1 4 -9q-1 -5 -6.5 -10.5t-10.5 -4.5q-17 2 -34 3t-32 1
q-54 0 -99 -8.5t-89 -16.5z" />
    <glyph glyph-name="amacron" unicode="&#x101;" horiz-adv-x="476" 
d="M55 -1q-31 0 -48 19.5t-17 50.5q0 29 15.5 64t49.5 71q35 38 87 61.5t99 23.5q38 0 65 -16.5t36 -41.5q11 0 27.5 -6t16.5 -22q0 -11 -11 -25q-7 -10 -24.5 -30t-32.5 -43q-12 -18 -19 -33.5t-7 -26.5q0 -15 15 -15q17 0 51 19q37 21 71 48t53 43q5 4 7 4q4 0 4 -5
q0 -6 -5 -11q-9 -8 -35 -30t-59.5 -46t-65.5 -39q-16 -7 -29.5 -10.5t-24.5 -3.5q-27 0 -41 15.5t-14 40.5q0 10 3 21t7 22l7 17q-26 -32 -52 -53.5t-52 -37.5q-22 -13 -41.5 -19t-35.5 -6zM86 25q18 0 52 21.5t79 66.5q6 6 22.5 21.5t35.5 35t32.5 39t13.5 32.5
q0 19 -33 19q-29 0 -69.5 -22.5t-77.5 -66.5q-38 -45 -55.5 -77.5t-17.5 -49.5q0 -19 18 -19zM207 382q-3 -1 -3 6t3.5 17.5t8.5 20t8 9.5q30 4 57.5 6t52.5 2q42 0 72.5 -4.5t45.5 -11.5q3 -1 3 -9q-1 -5 -5.5 -10.5t-9.5 -4.5q-16 2 -31.5 3t-29.5 1q-49 0 -90 -8.5
t-82 -16.5z" />
    <glyph glyph-name="Abreve" unicode="&#x102;" horiz-adv-x="1030" 
d="M199 -40q-62 0 -109 13t-67 29q-50 39 -50 90q0 43 37.5 86.5t114.5 80t194 57.5q50 9 101.5 14t103.5 5q44 0 88.5 -4t87.5 -13q14 -3 32 -7.5t37 -10.5q83 85 162 169t153 142q52 41 97 56t80 15q41 0 67.5 -12.5t34.5 -20.5q3 -3 0 -6t-6 0q-5 6 -24 13t-49 7
q-37 0 -87 -17t-111 -64q-75 -59 -148.5 -135.5t-149.5 -153.5q39 -14 71.5 -38t37.5 -59v-4q0 -4 -2 -4q-3 0 -6 6q-4 11 -22.5 19t-42.5 13t-46 8t-33 4l-11 1q-83 -80 -171.5 -147.5t-187.5 -101.5q-47 -16 -91.5 -23t-84.5 -7zM972 -89q-45 32 -66 77t-21 97t18 104
q18 53 52.5 110t75.5 111.5t79.5 100t65 75.5t31.5 37q6 8 9 8q4 0 6 -6.5t2 -14.5q0 -16 -5 -23q-26 -33 -62 -84t-73 -113.5t-69 -128.5t-51.5 -129t-19.5 -115q0 -30 8 -55t26 -44q1 -1 1 -3t-2 -4t-5 0zM202 -23q37 0 80 6.5t89 20.5q86 27 171 92t167 145q-13 1 -26 1
h-27q-70 0 -145.5 -7t-143.5 -20q-110 -19 -179.5 -47.5t-102 -59.5t-32.5 -59q0 -27 27 -47q14 -10 46 -17.5t76 -7.5zM1257 747q-26 0 -42 10t-16 35v7t1 8q1 5 13 11.5t27.5 11.5t24.5 5q7 0 6 -4t-1 -7v-6q0 -19 12 -27t34 -8q23 0 52 9t56 21.5t44 21.5q6 3 12 3
q8 0 8 -5q-2 -3 -8 -7q-25 -17 -65.5 -35.5t-82.5 -31t-75 -12.5z" />
    <glyph glyph-name="abreve" unicode="&#x103;" horiz-adv-x="476" 
d="M55 -1q-31 0 -48 19.5t-17 50.5q0 29 15.5 64t49.5 71q35 38 87 61.5t99 23.5q38 0 65 -16.5t36 -41.5q11 0 27.5 -6t16.5 -22q0 -11 -11 -25q-7 -10 -24.5 -30t-32.5 -43q-12 -18 -19 -33.5t-7 -26.5q0 -15 15 -15q17 0 51 19q37 21 71 48t53 43q5 4 7 4q4 0 4 -5
q0 -6 -5 -11q-9 -8 -35 -30t-59.5 -46t-65.5 -39q-16 -7 -29.5 -10.5t-24.5 -3.5q-27 0 -41 15.5t-14 40.5q0 10 3 21t7 22l7 17q-26 -32 -52 -53.5t-52 -37.5q-22 -13 -41.5 -19t-35.5 -6zM86 25q18 0 52 21.5t79 66.5q6 6 22.5 21.5t35.5 35t32.5 39t13.5 32.5
q0 19 -33 19q-29 0 -69.5 -22.5t-77.5 -66.5q-38 -45 -55.5 -77.5t-17.5 -49.5q0 -19 18 -19zM324 367q-24 0 -38.5 10t-14.5 35v7.5t1 7.5q1 5 13 11.5t27 11.5t23 5q7 0 6 -4t-1 -7v-6q0 -19 11 -27t27 -8q21 0 48 9t52 21.5t41 21.5q5 3 10 3q6 0 6 -5q-1 -3 -7 -7
q-23 -17 -60 -35.5t-75.5 -31t-68.5 -12.5z" />
    <glyph glyph-name="Aogonek" unicode="&#x104;" horiz-adv-x="1030" 
d="M199 -40q-62 0 -109 13t-67 29q-50 39 -50 90q0 43 37.5 86.5t114.5 80t194 57.5q50 9 101.5 14t103.5 5q44 0 88.5 -4t87.5 -13q14 -3 32 -7.5t37 -10.5q83 85 162 169t153 142q52 41 97 56t80 15q41 0 67.5 -12.5t34.5 -20.5q3 -3 0 -6t-6 0q-5 6 -24 13t-49 7
q-37 0 -87 -17t-111 -64q-75 -59 -148.5 -135.5t-149.5 -153.5q39 -14 71.5 -38t37.5 -59v-4q0 -4 -2 -4q-3 0 -6 6q-4 11 -22.5 19t-42.5 13t-46 8t-33 4l-11 1q-83 -80 -171.5 -147.5t-187.5 -101.5q-47 -16 -91.5 -23t-84.5 -7zM972 -89q-45 32 -66 77t-21 97t18 104
q18 53 52.5 110t75.5 111.5t79.5 100t65 75.5t31.5 37q6 8 9 8q4 0 6 -6.5t2 -14.5q0 -16 -5 -23q-26 -33 -62 -84t-73 -113.5t-69 -128.5t-51.5 -129t-19.5 -115q0 -30 8 -55t26 -44q1 -1 1 -3t-2 -4t-5 0zM202 -23q37 0 80 6.5t89 20.5q86 27 171 92t167 145q-13 1 -26 1
h-27q-70 0 -145.5 -7t-143.5 -20q-110 -19 -179.5 -47.5t-102 -59.5t-32.5 -59q0 -27 27 -47q14 -10 46 -17.5t76 -7.5zM868 -265q-39 0 -61.5 19.5t-22.5 50.5q0 36 34.5 79t100.5 83q7 4 14 4q6 0 6 -4t-8 -8q-52 -31 -75 -65t-23 -65q0 -22 15 -37.5t49 -15.5
q30 0 52.5 14t37 28t18.5 14q7 0 7 -5q0 -3 -4 -8q-28 -43 -67 -63.5t-73 -20.5z" />
    <glyph glyph-name="aogonek" unicode="&#x105;" horiz-adv-x="476" 
d="M55 -1q-31 0 -48 19.5t-17 50.5q0 29 15.5 64t49.5 71q35 38 87 61.5t99 23.5q38 0 65 -16.5t36 -41.5q11 0 27.5 -6t16.5 -22q0 -11 -11 -25q-7 -10 -24.5 -30t-32.5 -43q-12 -18 -19 -33.5t-7 -26.5q0 -15 15 -15q17 0 51 19q37 21 71 48t53 43q5 4 7 4q4 0 4 -5
q0 -6 -5 -11q-9 -8 -35 -30t-59.5 -46t-65.5 -39q-16 -7 -29.5 -10.5t-24.5 -3.5q-27 0 -41 15.5t-14 40.5q0 10 3 21t7 22l7 17q-26 -32 -52 -53.5t-52 -37.5q-22 -13 -41.5 -19t-35.5 -6zM86 25q18 0 52 21.5t79 66.5q6 6 22.5 21.5t35.5 35t32.5 39t13.5 32.5
q0 19 -33 19q-29 0 -69.5 -22.5t-77.5 -66.5q-38 -45 -55.5 -77.5t-17.5 -49.5q0 -19 18 -19zM238 -165q-29 0 -46 15t-17 38q0 27 26.5 59.5t80.5 62.5q3 2 9 2q5 0 6 -2t-6 -6q-35 -24 -52 -49.5t-17 -48.5q0 -16 11 -26.5t32 -10.5t37.5 10t28 19.5t15.5 9.5q10 0 3 -10
q-22 -32 -52.5 -47.5t-58.5 -15.5z" />
    <glyph glyph-name="Cacute" unicode="&#x106;" horiz-adv-x="719" 
d="M290 -39q-48 0 -95 11.5t-86 36.5t-62 64t-23 94q0 52 21 100t54.5 90t69.5 75q51 46 116 89t138.5 77t148.5 54t144 20q30 0 65.5 -9t61 -30t25.5 -59q0 -34 -23 -67t-61 -62t-84 -53.5t-93.5 -43t-89.5 -29.5t-71 -14q-7 -1 -14 -1h-14q-6 0 -25 1.5t-36 6.5t-17 15
q0 5 6 5q4 0 10 -2t15 -2q24 0 62 12t82.5 32.5t88.5 46.5t81 55t59 58t22 55q0 24 -17 35.5t-40 15.5t-40 4q-63 0 -129.5 -19t-131 -51.5t-122 -72.5t-102.5 -82q-31 -29 -61.5 -66.5t-50.5 -80t-20 -87.5q0 -50 24 -84t62.5 -54.5t83.5 -29.5t86 -9q26 0 52 2.5t51 6.5
q67 12 122.5 29t106.5 44t104 70q4 2 5 2q5 0 5 -6q0 -3 -4 -9q-39 -42 -94.5 -76t-118.5 -58t-127 -37t-120 -13zM766 726q-22 0 -20 6q0 6 14 8q25 4 59 17.5t67.5 31t54.5 33.5q10 8 24 8q17 0 26 -7t9 -15q0 -6 -6 -11q-18 -14 -55.5 -31t-83 -28.5t-89.5 -11.5z" />
    <glyph glyph-name="cacute" unicode="&#x107;" horiz-adv-x="339" 
d="M96 -10q-43 0 -72.5 21.5t-29.5 62.5q0 44 21.5 82t56.5 66.5t76.5 44.5t82.5 16t60.5 -15t19.5 -36q0 -14 -8 -27.5t-22 -13.5q-9 0 -9 7q0 5 3 9q12 21 12 37q0 20 -21 20q-17 0 -44 -13q-22 -10 -46.5 -30.5t-45.5 -47t-34.5 -54t-13.5 -51.5q0 -23 13 -38t39 -15
q17 0 40.5 8t52.5 26q24 15 50.5 36t51.5 43t43 38q6 6 10 6t4 -5q0 -7 -6 -12q-26 -24 -57 -51.5t-64.5 -51.5t-65.5 -39q-52 -23 -97 -23zM281 346q-22 0 -20 6q0 6 14 8q20 4 51.5 22.5t64.5 42.5t54 42q5 3 11 3q10 0 20 -6t15 -14t-2 -13q-18 -14 -52.5 -36
t-75.5 -38.5t-80 -16.5z" />
    <glyph glyph-name="Ccircumflex" unicode="&#x108;" horiz-adv-x="719" 
d="M290 -39q-48 0 -95 11.5t-86 36.5t-62 64t-23 94q0 52 21 100t54.5 90t69.5 75q51 46 116 89t138.5 77t148.5 54t144 20q30 0 65.5 -9t61 -30t25.5 -59q0 -34 -23 -67t-61 -62t-84 -53.5t-93.5 -43t-89.5 -29.5t-71 -14q-7 -1 -14 -1h-14q-6 0 -25 1.5t-36 6.5t-17 15
q0 5 6 5q4 0 10 -2t15 -2q24 0 62 12t82.5 32.5t88.5 46.5t81 55t59 58t22 55q0 24 -17 35.5t-40 15.5t-40 4q-63 0 -129.5 -19t-131 -51.5t-122 -72.5t-102.5 -82q-31 -29 -61.5 -66.5t-50.5 -80t-20 -87.5q0 -50 24 -84t62.5 -54.5t83.5 -29.5t86 -9q26 0 52 2.5t51 6.5
q67 12 122.5 29t106.5 44t104 70q4 2 5 2q5 0 5 -6q0 -3 -4 -9q-39 -42 -94.5 -76t-118.5 -58t-127 -37t-120 -13zM610 741q-18 0 -15 3q0 4 16 8q20 5 56 17.5t74.5 27.5t63.5 26q14 7 24 7q11 0 18 -10q4 -7 12.5 -23.5t21 -30.5t28.5 -14q5 0 5 -4q0 -6 -23 -6
q-39 0 -63 13.5t-35 27.5q-43 -14 -94 -28t-89 -14z" />
    <glyph glyph-name="ccircumflex" unicode="&#x109;" horiz-adv-x="339" 
d="M96 -10q-43 0 -72.5 21.5t-29.5 62.5q0 44 21.5 82t56.5 66.5t76.5 44.5t82.5 16t60.5 -15t19.5 -36q0 -14 -8 -27.5t-22 -13.5q-9 0 -9 7q0 5 3 9q12 21 12 37q0 20 -21 20q-17 0 -44 -13q-22 -10 -46.5 -30.5t-45.5 -47t-34.5 -54t-13.5 -51.5q0 -23 13 -38t39 -15
q17 0 40.5 8t52.5 26q24 15 50.5 36t51.5 43t43 38q6 6 10 6t4 -5q0 -7 -6 -12q-26 -24 -57 -51.5t-64.5 -51.5t-65.5 -39q-52 -23 -97 -23zM134 361q-16 0 -14 4q0 5 15 7q14 3 38 13t53 24t56 27.5l47 23.5q5 3 14 3q7 0 8 -3q8 -12 17 -31.5t20.5 -35.5t25.5 -20
q5 -2 5 -4q0 -7 -22 -7q-36 0 -59 16t-35 34q-38 -18 -86 -34.5t-83 -16.5z" />
    <glyph glyph-name="Cdotaccent" unicode="&#x10a;" horiz-adv-x="719" 
d="M290 -39q-48 0 -95 11.5t-86 36.5t-62 64t-23 94q0 52 21 100t54.5 90t69.5 75q51 46 116 89t138.5 77t148.5 54t144 20q30 0 65.5 -9t61 -30t25.5 -59q0 -34 -23 -67t-61 -62t-84 -53.5t-93.5 -43t-89.5 -29.5t-71 -14q-7 -1 -14 -1h-14q-6 0 -25 1.5t-36 6.5t-17 15
q0 5 6 5q4 0 10 -2t15 -2q24 0 62 12t82.5 32.5t88.5 46.5t81 55t59 58t22 55q0 24 -17 35.5t-40 15.5t-40 4q-63 0 -129.5 -19t-131 -51.5t-122 -72.5t-102.5 -82q-31 -29 -61.5 -66.5t-50.5 -80t-20 -87.5q0 -50 24 -84t62.5 -54.5t83.5 -29.5t86 -9q26 0 52 2.5t51 6.5
q67 12 122.5 29t106.5 44t104 70q4 2 5 2q5 0 5 -6q0 -3 -4 -9q-39 -42 -94.5 -76t-118.5 -58t-127 -37t-120 -13zM745 748q-17 0 -17 21q0 17 13.5 31t32.5 22.5t33 8.5q9 0 9 -10q0 -15 -15 -32q-7 -10 -22.5 -25.5t-33.5 -15.5z" />
    <glyph glyph-name="cdotaccent" unicode="&#x10b;" horiz-adv-x="339" 
d="M96 -10q-43 0 -72.5 21.5t-29.5 62.5q0 44 21.5 82t56.5 66.5t76.5 44.5t82.5 16t60.5 -15t19.5 -36q0 -14 -8 -27.5t-22 -13.5q-9 0 -9 7q0 5 3 9q12 21 12 37q0 20 -21 20q-17 0 -44 -13q-22 -10 -46.5 -30.5t-45.5 -47t-34.5 -54t-13.5 -51.5q0 -23 13 -38t39 -15
q17 0 40.5 8t52.5 26q24 15 50.5 36t51.5 43t43 38q6 6 10 6t4 -5q0 -7 -6 -12q-26 -24 -57 -51.5t-64.5 -51.5t-65.5 -39q-52 -23 -97 -23zM261 370q-7 0 -11.5 6t-4.5 14q0 16 13 29.5t31 21.5t31 8q9 0 9 -10q0 -12 -14 -30q-7 -9 -22 -24t-32 -15z" />
    <glyph glyph-name="Ccaron" unicode="&#x10c;" horiz-adv-x="719" 
d="M290 -39q-48 0 -95 11.5t-86 36.5t-62 64t-23 94q0 52 21 100t54.5 90t69.5 75q51 46 116 89t138.5 77t148.5 54t144 20q30 0 65.5 -9t61 -30t25.5 -59q0 -34 -23 -67t-61 -62t-84 -53.5t-93.5 -43t-89.5 -29.5t-71 -14q-7 -1 -14 -1h-14q-6 0 -25 1.5t-36 6.5t-17 15
q0 5 6 5q4 0 10 -2t15 -2q24 0 62 12t82.5 32.5t88.5 46.5t81 55t59 58t22 55q0 24 -17 35.5t-40 15.5t-40 4q-63 0 -129.5 -19t-131 -51.5t-122 -72.5t-102.5 -82q-31 -29 -61.5 -66.5t-50.5 -80t-20 -87.5q0 -50 24 -84t62.5 -54.5t83.5 -29.5t86 -9q26 0 52 2.5t51 6.5
q67 12 122.5 29t106.5 44t104 70q4 2 5 2q5 0 5 -6q0 -3 -4 -9q-39 -42 -94.5 -76t-118.5 -58t-127 -37t-120 -13zM770 726q-11 0 -18 10q-4 7 -12.5 23.5t-21 30.5t-28.5 14q-5 0 -5 4q0 6 23 6q39 0 63.5 -13.5t34.5 -27.5q43 14 94.5 28t88.5 14q18 0 15 -3q0 -4 -16 -8
q-19 -5 -55.5 -17.5t-74.5 -27t-64 -26.5q-14 -7 -24 -7z" />
    <glyph glyph-name="ccaron" unicode="&#x10d;" horiz-adv-x="339" 
d="M96 -10q-43 0 -72.5 21.5t-29.5 62.5q0 44 21.5 82t56.5 66.5t76.5 44.5t82.5 16t60.5 -15t19.5 -36q0 -14 -8 -27.5t-22 -13.5q-9 0 -9 7q0 5 3 9q12 21 12 37q0 20 -21 20q-17 0 -44 -13q-22 -10 -46.5 -30.5t-45.5 -47t-34.5 -54t-13.5 -51.5q0 -23 13 -38t39 -15
q17 0 40.5 8t52.5 26q24 15 50.5 36t51.5 43t43 38q6 6 10 6t4 -5q0 -7 -6 -12q-26 -24 -57 -51.5t-64.5 -51.5t-65.5 -39q-52 -23 -97 -23zM284 346q-6 0 -8 3q-7 12 -16.5 31.5t-21 35.5t-25.5 19q-6 2 -6 5q2 7 24 7q35 0 58.5 -16t35.5 -34q38 18 85.5 34t83.5 16
q14 0 14 -4q-2 -5 -16 -7t-38 -12.5t-52.5 -24t-55.5 -27.5t-47 -23q-4 -3 -15 -3z" />
    <glyph glyph-name="Dcaron" unicode="&#x10e;" horiz-adv-x="843" 
d="M250 -52q-89 0 -158 21.5t-93 68.5q-5 10 -5 13q0 2 2 2q4 0 14 -7q38 -26 97 -34t118 -8q57 0 123.5 10t134 29.5t131.5 49.5t117 70q83 63 121 122t38 111q0 57 -42 101t-116.5 68.5t-174.5 24.5q-36 0 -74 -3q-64 -6 -127.5 -21.5t-121 -38.5t-102.5 -50t-70.5 -55.5
t-25.5 -55.5q0 -17 12 -34q3 -3 3 -8q0 -4 -3 -5.5t-8 2.5q-9 10 -17 31.5t-8 48.5t12.5 56.5t44.5 54.5q38 30 94 56.5t122.5 46.5t137 31t139.5 11q119 0 195.5 -35.5t113.5 -94t37 -128.5q0 -64 -30.5 -131t-89 -127t-144.5 -104q-55 -27 -122 -47t-138 -31t-137 -11z
M149 83q-7 0 -7 14t15.5 46t41.5 74t57.5 88.5t63.5 91t60 81t47.5 58t24.5 21.5h9q11 0 11 -5t-8 -13q-34 -37 -71.5 -84t-74.5 -98.5t-69.5 -101.5t-56.5 -93t-35 -72q-3 -7 -8 -7zM636 726q-11 0 -18 10q-4 7 -12.5 23.5t-21 30.5t-28.5 14q-5 0 -5 4q0 6 23 6
q39 0 63.5 -13.5t34.5 -27.5q43 14 94.5 28t88.5 14q18 0 15 -3q0 -4 -16 -8q-19 -5 -55.5 -17.5t-74.5 -27t-64 -26.5q-14 -7 -24 -7z" />
    <glyph glyph-name="dcaron" unicode="&#x10f;" horiz-adv-x="406" 
d="M282 -88q-16 14 -23.5 35.5t-7.5 48.5q0 25 5.5 53t14.5 59q-19 -24 -42.5 -49t-44.5 -43q-42 -34 -91 -34q-37 0 -63 23.5t-26 73.5q0 13 2.5 25t6.5 24q-6 -5 -11.5 -10t-10.5 -9q-4 -3 -8 -3q-5 0 -5 5q0 6 10 14q13 11 29.5 30t36.5 41q35 39 85.5 63t99.5 24
q42 0 61.5 -15t19.5 -36q25 53 52.5 101.5t52 85.5t40.5 55q11 13 27.5 19t33.5 6t33 -5t28 -16q-10 -6 -31.5 -28.5t-49 -55.5t-57 -71t-55.5 -76q-31 -45 -58.5 -97t-44.5 -100.5t-17 -85.5q0 -30 13 -46q3 -4 0 -5.5t-5 -0.5zM124 16q18 0 48 18.5t74 63.5
q14 14 22.5 24.5t14.5 20.5q5 14 10 27t11 26q-6 -4 -9 -4q-8 0 -8 9q0 4 3 10q10 17 10 30q0 21 -24 21q-13 0 -35 -8q-25 -10 -51.5 -30.5t-49 -48t-36 -56.5t-13.5 -55q0 -19 7.5 -33.5t25.5 -14.5zM550 346q-6 0 -6 6t7 7q27 3 52 18.5t42.5 36t20.5 36.5
q-7 -8 -18.5 -14t-22.5 -6q-8 0 -14.5 4.5t-6.5 13.5q0 13 9 25.5t19 19.5q25 20 50 20q26 0 26 -25q0 -20 -14.5 -44.5t-38 -46.5t-51 -36.5t-54.5 -14.5z" />
    <glyph glyph-name="Dcroat" unicode="&#x110;" horiz-adv-x="843" 
d="M250 -52q-89 0 -158 21.5t-93 68.5q-5 10 -5 13q0 2 2 2q4 0 14 -7q38 -26 97 -34t118 -8q57 0 123.5 10t134 29.5t131.5 49.5t117 70q83 63 121 122t38 111q0 57 -42 101t-116.5 68.5t-174.5 24.5q-36 0 -74 -3q-64 -6 -127.5 -21.5t-121 -38.5t-102.5 -50t-70.5 -55.5
t-25.5 -55.5q0 -17 12 -34q3 -3 3 -8q0 -4 -3 -5.5t-8 2.5q-9 10 -17 31.5t-8 48.5t12.5 56.5t44.5 54.5q38 30 94 56.5t122.5 46.5t137 31t139.5 11q119 0 195.5 -35.5t113.5 -94t37 -128.5q0 -64 -30.5 -131t-89 -127t-144.5 -104q-55 -27 -122 -47t-138 -31t-137 -11z
M149 83q-7 0 -7 14v5t1 6q6 25 28 65.5t65 101.5q-16 -5 -42 -13t-52.5 -16t-46.5 -14h-1q-5 0 -5 8q0 11 6.5 28t13.5 19q26 7 57 14t59.5 13t44.5 9q47 65 86 118t64.5 84.5t31.5 31.5h9q11 0 11 -5t-8 -13q-38 -42 -78 -94t-88 -117q25 4 58.5 8t62 7t36.5 3h1q9 0 9 -7
q0 -8 -11 -11q-23 -4 -60.5 -12t-72.5 -16t-53 -14q-48 -67 -73 -114t-38 -82q-3 -7 -8 -7z" />
    <glyph glyph-name="dcroat" unicode="&#x111;" horiz-adv-x="406" 
d="M282 -88q-16 14 -23.5 35.5t-7.5 48.5q0 25 5.5 53t14.5 59q-19 -24 -42.5 -49t-44.5 -43q-42 -34 -91 -34q-37 0 -63 23.5t-26 73.5q0 13 2.5 25t6.5 24q-6 -5 -11.5 -10t-10.5 -9q-4 -3 -8 -3q-5 0 -5 5q0 6 10 14q13 11 29.5 30t36.5 41q35 39 85.5 63t99.5 24
q42 0 61.5 -15t19.5 -36q25 53 52.5 101.5t52 85.5t40.5 55q11 13 27.5 19t33.5 6t33 -5t28 -16q-10 -6 -31.5 -28.5t-49 -55.5t-57 -71t-55.5 -76q-31 -45 -58.5 -97t-44.5 -100.5t-17 -85.5q0 -30 13 -46q3 -4 0 -5.5t-5 -0.5zM124 16q18 0 48 18.5t74 63.5
q14 14 22.5 24.5t14.5 20.5q5 14 10 27t11 26q-6 -4 -9 -4q-8 0 -8 9q0 4 3 10q10 17 10 30q0 21 -24 21q-13 0 -35 -8q-25 -10 -51.5 -30.5t-49 -48t-36 -56.5t-13.5 -55q0 -19 7.5 -33.5t25.5 -14.5zM323 344q-14 0 -14 15q0 11 5 24t17 14q17 2 41 2.5t49 0.5
q54 0 102 -3.5t67 -10.5q6 -1 6 -6q0 -9 -15 -9q-66 0 -117 -6.5t-86.5 -13.5t-54.5 -7z" />
    <glyph glyph-name="Emacron" unicode="&#x112;" horiz-adv-x="719" 
d="M267 -46q-80 0 -136 25.5t-85.5 70.5t-29.5 103q0 56 29 119.5t90 129.5q45 49 101 91.5t114.5 77.5t115 59t103.5 35q26 6 52.5 9.5t51.5 3.5q43 0 79 -11t58 -35t22 -63q0 -22 -7.5 -43t-12.5 -32q-3 -6 -6 -6q-2 0 -3 3.5t1 7.5q9 20 9 35q0 25 -21.5 36.5t-58.5 11.5
q-42 0 -99 -13t-120.5 -36t-126.5 -53t-118.5 -65.5t-95.5 -72.5q-66 -61 -96.5 -114.5t-30.5 -95.5q0 -63 59 -99t158 -36q26 0 54 3t58 8q71 13 144.5 38.5t141 62t123 81t90.5 94.5q10 13 12 13q1 0 1 -3v-4.5t-2 -7.5q-10 -29 -43 -65t-83 -73.5t-111 -72.5t-128 -62.5
t-134 -41.5q-62 -13 -119 -13zM205 282q-11 0 -18 4q-4 2 -8 7.5t-4 13.5q0 12 17.5 26t71.5 24q18 3 40 5t46 2q42 0 85.5 -5.5t79 -17.5t52.5 -31q6 -7 6 -14q0 -8 -8 -8q-6 0 -14 5q-17 12 -46.5 18t-67.5 6q-67 0 -147 -17q-25 -5 -47 -11.5t-38 -6.5zM577 762
q-4 -1 -4 7q0 7 4 17.5t9.5 19.5t8.5 9q33 4 63 6t57 2q47 0 80 -4.5t49 -11.5q4 -1 4 -9q-1 -5 -6.5 -10.5t-10.5 -4.5q-17 2 -34 3t-32 1q-54 0 -99 -8.5t-89 -16.5z" />
    <glyph glyph-name="emacron" unicode="&#x113;" horiz-adv-x="340" 
d="M97 -10q-44 0 -73.5 21.5t-29.5 62.5q0 44 21 82t56 66.5t76.5 44.5t82.5 16t61 -14.5t20 -35.5q0 -20 -18.5 -42.5t-53.5 -39.5q-22 -10 -50.5 -17.5t-49.5 -7.5q-16 0 -16 5q0 4 14 4q13 0 40.5 7.5t53.5 20.5q29 16 41 32t12 29q0 12 -9.5 20t-26.5 8q-16 0 -36 -9
q-29 -13 -59.5 -42.5t-50.5 -64.5t-20 -67q0 -22 12.5 -37t37.5 -15q26 0 60 16.5t69 41t65 49.5t48 42q6 6 9 6t3 -5q0 -7 -6 -12q-38 -35 -82.5 -73t-95 -64.5t-105.5 -27.5zM177 382q-3 -1 -3 6t3.5 17.5t8.5 20t8 9.5q30 4 57.5 6t52.5 2q42 0 72.5 -4.5t45.5 -11.5
q3 -1 3 -9q-1 -5 -5.5 -10.5t-9.5 -4.5q-16 2 -31.5 3t-29.5 1q-49 0 -90 -8.5t-82 -16.5z" />
    <glyph glyph-name="Ebreve" unicode="&#x114;" horiz-adv-x="719" 
d="M267 -46q-80 0 -136 25.5t-85.5 70.5t-29.5 103q0 56 29 119.5t90 129.5q45 49 101 91.5t114.5 77.5t115 59t103.5 35q26 6 52.5 9.5t51.5 3.5q43 0 79 -11t58 -35t22 -63q0 -22 -7.5 -43t-12.5 -32q-3 -6 -6 -6q-2 0 -3 3.5t1 7.5q9 20 9 35q0 25 -21.5 36.5t-58.5 11.5
q-42 0 -99 -13t-120.5 -36t-126.5 -53t-118.5 -65.5t-95.5 -72.5q-66 -61 -96.5 -114.5t-30.5 -95.5q0 -63 59 -99t158 -36q26 0 54 3t58 8q71 13 144.5 38.5t141 62t123 81t90.5 94.5q10 13 12 13q1 0 1 -3v-4.5t-2 -7.5q-10 -29 -43 -65t-83 -73.5t-111 -72.5t-128 -62.5
t-134 -41.5q-62 -13 -119 -13zM205 282q-11 0 -18 4q-4 2 -8 7.5t-4 13.5q0 12 17.5 26t71.5 24q18 3 40 5t46 2q42 0 85.5 -5.5t79 -17.5t52.5 -31q6 -7 6 -14q0 -8 -8 -8q-6 0 -14 5q-17 12 -46.5 18t-67.5 6q-67 0 -147 -17q-25 -5 -47 -11.5t-38 -6.5zM698 747
q-26 0 -42 10t-16 35v7t1 8q1 5 13 11.5t27.5 11.5t24.5 5q7 0 6 -4t-1 -7v-6q0 -19 12 -27t34 -8q23 0 52 9t56 21.5t44 21.5q6 3 12 3q8 0 8 -5q-2 -3 -8 -7q-25 -17 -65.5 -35.5t-82.5 -31t-75 -12.5z" />
    <glyph glyph-name="ebreve" unicode="&#x115;" horiz-adv-x="340" 
d="M97 -10q-44 0 -73.5 21.5t-29.5 62.5q0 44 21 82t56 66.5t76.5 44.5t82.5 16t61 -14.5t20 -35.5q0 -20 -18.5 -42.5t-53.5 -39.5q-22 -10 -50.5 -17.5t-49.5 -7.5q-16 0 -16 5q0 4 14 4q13 0 40.5 7.5t53.5 20.5q29 16 41 32t12 29q0 12 -9.5 20t-26.5 8q-16 0 -36 -9
q-29 -13 -59.5 -42.5t-50.5 -64.5t-20 -67q0 -22 12.5 -37t37.5 -15q26 0 60 16.5t69 41t65 49.5t48 42q6 6 9 6t3 -5q0 -7 -6 -12q-38 -35 -82.5 -73t-95 -64.5t-105.5 -27.5zM294 367q-24 0 -38.5 10t-14.5 35v7.5t1 7.5q1 5 13 11.5t27 11.5t23 5q7 0 6 -4t-1 -7v-6
q0 -19 11 -27t27 -8q21 0 48 9t52 21.5t41 21.5q5 3 10 3q6 0 6 -5q-1 -3 -7 -7q-23 -17 -60 -35.5t-75.5 -31t-68.5 -12.5z" />
    <glyph glyph-name="Edotaccent" unicode="&#x116;" horiz-adv-x="719" 
d="M267 -46q-80 0 -136 25.5t-85.5 70.5t-29.5 103q0 56 29 119.5t90 129.5q45 49 101 91.5t114.5 77.5t115 59t103.5 35q26 6 52.5 9.5t51.5 3.5q43 0 79 -11t58 -35t22 -63q0 -22 -7.5 -43t-12.5 -32q-3 -6 -6 -6q-2 0 -3 3.5t1 7.5q9 20 9 35q0 25 -21.5 36.5t-58.5 11.5
q-42 0 -99 -13t-120.5 -36t-126.5 -53t-118.5 -65.5t-95.5 -72.5q-66 -61 -96.5 -114.5t-30.5 -95.5q0 -63 59 -99t158 -36q26 0 54 3t58 8q71 13 144.5 38.5t141 62t123 81t90.5 94.5q10 13 12 13q1 0 1 -3v-4.5t-2 -7.5q-10 -29 -43 -65t-83 -73.5t-111 -72.5t-128 -62.5
t-134 -41.5q-62 -13 -119 -13zM205 282q-11 0 -18 4q-4 2 -8 7.5t-4 13.5q0 12 17.5 26t71.5 24q18 3 40 5t46 2q42 0 85.5 -5.5t79 -17.5t52.5 -31q6 -7 6 -14q0 -8 -8 -8q-6 0 -14 5q-17 12 -46.5 18t-67.5 6q-67 0 -147 -17q-25 -5 -47 -11.5t-38 -6.5zM685 748
q-17 0 -17 21q0 17 13.5 31t32.5 22.5t33 8.5q9 0 9 -10q0 -15 -15 -32q-7 -10 -22.5 -25.5t-33.5 -15.5z" />
    <glyph glyph-name="edotaccent" unicode="&#x117;" horiz-adv-x="340" 
d="M97 -10q-44 0 -73.5 21.5t-29.5 62.5q0 44 21 82t56 66.5t76.5 44.5t82.5 16t61 -14.5t20 -35.5q0 -20 -18.5 -42.5t-53.5 -39.5q-22 -10 -50.5 -17.5t-49.5 -7.5q-16 0 -16 5q0 4 14 4q13 0 40.5 7.5t53.5 20.5q29 16 41 32t12 29q0 12 -9.5 20t-26.5 8q-16 0 -36 -9
q-29 -13 -59.5 -42.5t-50.5 -64.5t-20 -67q0 -22 12.5 -37t37.5 -15q26 0 60 16.5t69 41t65 49.5t48 42q6 6 9 6t3 -5q0 -7 -6 -12q-38 -35 -82.5 -73t-95 -64.5t-105.5 -27.5zM275 370q-7 0 -11.5 6t-4.5 14q0 16 13 29.5t31 21.5t31 8q9 0 9 -10q0 -12 -14 -30
q-7 -9 -22 -24t-32 -15z" />
    <glyph glyph-name="Eogonek" unicode="&#x118;" horiz-adv-x="719" 
d="M267 -46q-80 0 -136 25.5t-85.5 70.5t-29.5 103q0 56 29 119.5t90 129.5q45 49 101 91.5t114.5 77.5t115 59t103.5 35q26 6 52.5 9.5t51.5 3.5q43 0 79 -11t58 -35t22 -63q0 -22 -7.5 -43t-12.5 -32q-3 -6 -6 -6q-2 0 -3 3.5t1 7.5q9 20 9 35q0 25 -21.5 36.5t-58.5 11.5
q-42 0 -99 -13t-120.5 -36t-126.5 -53t-118.5 -65.5t-95.5 -72.5q-66 -61 -96.5 -114.5t-30.5 -95.5q0 -63 59 -99t158 -36q26 0 54 3t58 8q71 13 144.5 38.5t141 62t123 81t90.5 94.5q10 13 12 13q1 0 1 -3v-4.5t-2 -7.5q-10 -29 -43 -65t-83 -73.5t-111 -72.5t-128 -62.5
t-134 -41.5q-62 -13 -119 -13zM205 282q-11 0 -18 4q-4 2 -8 7.5t-4 13.5q0 12 17.5 26t71.5 24q18 3 40 5t46 2q42 0 85.5 -5.5t79 -17.5t52.5 -31q6 -7 6 -14q0 -8 -8 -8q-6 0 -14 5q-17 12 -46.5 18t-67.5 6q-67 0 -147 -17q-25 -5 -47 -11.5t-38 -6.5zM440 -224
q-39 0 -61.5 19.5t-22.5 50.5q0 36 34.5 79t100.5 83q7 4 14 4q6 0 6 -4t-8 -8q-52 -31 -75 -65t-23 -65q0 -22 15 -37.5t49 -15.5q30 0 52.5 14t37 28t18.5 14q7 0 7 -5q0 -3 -4 -8q-28 -43 -67 -63.5t-73 -20.5z" />
    <glyph glyph-name="eogonek" unicode="&#x119;" horiz-adv-x="340" 
d="M97 -10q-44 0 -73.5 21.5t-29.5 62.5q0 44 21 82t56 66.5t76.5 44.5t82.5 16t61 -14.5t20 -35.5q0 -20 -18.5 -42.5t-53.5 -39.5q-22 -10 -50.5 -17.5t-49.5 -7.5q-16 0 -16 5q0 4 14 4q13 0 40.5 7.5t53.5 20.5q29 16 41 32t12 29q0 12 -9.5 20t-26.5 8q-16 0 -36 -9
q-29 -13 -59.5 -42.5t-50.5 -64.5t-20 -67q0 -22 12.5 -37t37.5 -15q26 0 60 16.5t69 41t65 49.5t48 42q6 6 9 6t3 -5q0 -7 -6 -12q-38 -35 -82.5 -73t-95 -64.5t-105.5 -27.5zM123 -165q-29 0 -46 15t-17 38q0 27 26.5 59.5t80.5 62.5q3 2 9 2q5 0 6 -2t-6 -6
q-35 -24 -52 -49.5t-17 -48.5q0 -16 11 -26.5t32 -10.5t37.5 10t28 19.5t15.5 9.5q10 0 3 -10q-22 -32 -52.5 -47.5t-58.5 -15.5z" />
    <glyph glyph-name="Ecaron" unicode="&#x11a;" horiz-adv-x="719" 
d="M267 -46q-80 0 -136 25.5t-85.5 70.5t-29.5 103q0 56 29 119.5t90 129.5q45 49 101 91.5t114.5 77.5t115 59t103.5 35q26 6 52.5 9.5t51.5 3.5q43 0 79 -11t58 -35t22 -63q0 -22 -7.5 -43t-12.5 -32q-3 -6 -6 -6q-2 0 -3 3.5t1 7.5q9 20 9 35q0 25 -21.5 36.5t-58.5 11.5
q-42 0 -99 -13t-120.5 -36t-126.5 -53t-118.5 -65.5t-95.5 -72.5q-66 -61 -96.5 -114.5t-30.5 -95.5q0 -63 59 -99t158 -36q26 0 54 3t58 8q71 13 144.5 38.5t141 62t123 81t90.5 94.5q10 13 12 13q1 0 1 -3v-4.5t-2 -7.5q-10 -29 -43 -65t-83 -73.5t-111 -72.5t-128 -62.5
t-134 -41.5q-62 -13 -119 -13zM205 282q-11 0 -18 4q-4 2 -8 7.5t-4 13.5q0 12 17.5 26t71.5 24q18 3 40 5t46 2q42 0 85.5 -5.5t79 -17.5t52.5 -31q6 -7 6 -14q0 -8 -8 -8q-6 0 -14 5q-17 12 -46.5 18t-67.5 6q-67 0 -147 -17q-25 -5 -47 -11.5t-38 -6.5zM710 726
q-11 0 -18 10q-4 7 -12.5 23.5t-21 30.5t-28.5 14q-5 0 -5 4q0 6 23 6q39 0 63.5 -13.5t34.5 -27.5q43 14 94.5 28t88.5 14q18 0 15 -3q0 -4 -16 -8q-19 -5 -55.5 -17.5t-74.5 -27t-64 -26.5q-14 -7 -24 -7z" />
    <glyph glyph-name="ecaron" unicode="&#x11b;" horiz-adv-x="340" 
d="M97 -10q-44 0 -73.5 21.5t-29.5 62.5q0 44 21 82t56 66.5t76.5 44.5t82.5 16t61 -14.5t20 -35.5q0 -20 -18.5 -42.5t-53.5 -39.5q-22 -10 -50.5 -17.5t-49.5 -7.5q-16 0 -16 5q0 4 14 4q13 0 40.5 7.5t53.5 20.5q29 16 41 32t12 29q0 12 -9.5 20t-26.5 8q-16 0 -36 -9
q-29 -13 -59.5 -42.5t-50.5 -64.5t-20 -67q0 -22 12.5 -37t37.5 -15q26 0 60 16.5t69 41t65 49.5t48 42q6 6 9 6t3 -5q0 -7 -6 -12q-38 -35 -82.5 -73t-95 -64.5t-105.5 -27.5zM298 346q-6 0 -8 3q-7 12 -16.5 31.5t-21 35.5t-25.5 19q-6 2 -6 5q2 7 24 7q35 0 58.5 -16
t35.5 -34q38 18 85.5 34t83.5 16q14 0 14 -4q-2 -5 -16 -7t-38 -12.5t-52.5 -24t-55.5 -27.5t-47 -23q-4 -3 -15 -3z" />
    <glyph glyph-name="Gcircumflex" unicode="&#x11c;" horiz-adv-x="912" 
d="M416 -241q-49 0 -90.5 14.5t-69 46.5t-35.5 84v3q0 5 3 5q5 0 7 -7q11 -57 55 -93t101 -36q40 0 77 16.5t70 42.5t61.5 55.5t52.5 54.5q56 62 101.5 129t71.5 123q-34 -35 -83.5 -71t-108.5 -69t-123.5 -58.5t-128.5 -39.5q-32 -7 -62 -10.5t-57 -3.5q-80 0 -136 26
t-85.5 71t-29.5 102q0 56 29 120t90 130q45 49 101 91.5t114.5 77t115 58.5t103.5 35q26 6 53 9.5t52 3.5q43 0 78.5 -11t57.5 -35t22 -63q0 -22 -7.5 -43t-12.5 -32q-3 -6 -6 -6q-2 0 -3 4t1 8q9 20 9 34q0 25 -21.5 36.5t-58.5 11.5q-42 0 -99 -13t-120.5 -36t-126.5 -53
t-118.5 -65.5t-95.5 -72.5q-66 -61 -96.5 -114.5t-30.5 -95.5q0 -63 59 -98.5t159 -35.5q26 0 53.5 2.5t57.5 7.5q87 16 177 50.5t168 84.5t129 109q4 11 7 21.5t3 20.5q0 13 -12 13q-16 0 -35 -16q-8 -7 -15 -7q-5 0 -5 5q0 8 10 17q33 24 64 24q26 0 42 -18q10 -11 10 -34
q0 -29 -16.5 -70t-42 -86.5t-55 -88t-55.5 -76.5t-42 -51q-55 -58 -128.5 -98t-153.5 -40zM540 741q-18 0 -15 3q0 4 16 8q20 5 56 17.5t74.5 27.5t63.5 26q14 7 24 7q11 0 18 -10q4 -7 12.5 -23.5t21 -30.5t28.5 -14q5 0 5 -4q0 -6 -23 -6q-39 0 -63 13.5t-35 27.5
q-43 -14 -94 -28t-89 -14z" />
    <glyph glyph-name="gcircumflex" unicode="&#x11d;" horiz-adv-x="408" 
d="M-89 -267q-61 0 -101 14t-64 38q-16 17 -30 44.5t-14 46.5q0 7 3 7q7 0 9 -8q0 -3 6.5 -23t23.5 -44t50 -42t86 -18q63 0 113 29.5t89.5 77t72.5 103.5t63 110t61 95q-13 -14 -32.5 -34.5t-41.5 -41.5t-42 -38t-33 -25q-22 -13 -41.5 -19t-35.5 -6q-31 0 -48 19.5
t-17 50.5q0 29 15.5 64t49.5 71q35 38 87 61.5t99 23.5q17 0 33 -3.5t29 -11.5q18 -11 26.5 -20.5t12.5 -22.5q6 0 19 -5.5t24 -13t11 -15.5q0 -4 -8 -9q-20 -10 -45 -47.5t-55.5 -89t-68 -107t-83.5 -103.5t-101.5 -78t-121.5 -30zM81 25q20 0 49 20q22 15 48 37.5t51 47.5
t43 46q33 38 33 62q0 20 -24 20t-66 -23q-24 -13 -51 -37t-50.5 -52t-37.5 -52q-16 -29 -16 -47q0 -22 21 -22zM158 361q-16 0 -14 4q0 5 15 7q14 3 38 13t53 24t56 27.5l47 23.5q5 3 14 3q7 0 8 -3q8 -12 17 -31.5t20.5 -35.5t25.5 -20q5 -2 5 -4q0 -7 -22 -7q-36 0 -59 16
t-35 34q-38 -18 -86 -34.5t-83 -16.5z" />
    <glyph glyph-name="Gbreve" unicode="&#x11e;" horiz-adv-x="912" 
d="M416 -241q-49 0 -90.5 14.5t-69 46.5t-35.5 84v3q0 5 3 5q5 0 7 -7q11 -57 55 -93t101 -36q40 0 77 16.5t70 42.5t61.5 55.5t52.5 54.5q56 62 101.5 129t71.5 123q-34 -35 -83.5 -71t-108.5 -69t-123.5 -58.5t-128.5 -39.5q-32 -7 -62 -10.5t-57 -3.5q-80 0 -136 26
t-85.5 71t-29.5 102q0 56 29 120t90 130q45 49 101 91.5t114.5 77t115 58.5t103.5 35q26 6 53 9.5t52 3.5q43 0 78.5 -11t57.5 -35t22 -63q0 -22 -7.5 -43t-12.5 -32q-3 -6 -6 -6q-2 0 -3 4t1 8q9 20 9 34q0 25 -21.5 36.5t-58.5 11.5q-42 0 -99 -13t-120.5 -36t-126.5 -53
t-118.5 -65.5t-95.5 -72.5q-66 -61 -96.5 -114.5t-30.5 -95.5q0 -63 59 -98.5t159 -35.5q26 0 53.5 2.5t57.5 7.5q87 16 177 50.5t168 84.5t129 109q4 11 7 21.5t3 20.5q0 13 -12 13q-16 0 -35 -16q-8 -7 -15 -7q-5 0 -5 5q0 8 10 17q33 24 64 24q26 0 42 -18q10 -11 10 -34
q0 -29 -16.5 -70t-42 -86.5t-55 -88t-55.5 -76.5t-42 -51q-55 -58 -128.5 -98t-153.5 -40zM688 747q-26 0 -42 10t-16 35v7t1 8q1 5 13 11.5t27.5 11.5t24.5 5q7 0 6 -4t-1 -7v-6q0 -19 12 -27t34 -8q23 0 52 9t56 21.5t44 21.5q6 3 12 3q8 0 8 -5q-2 -3 -8 -7
q-25 -17 -65.5 -35.5t-82.5 -31t-75 -12.5z" />
    <glyph glyph-name="gbreve" unicode="&#x11f;" horiz-adv-x="408" 
d="M-89 -267q-61 0 -101 14t-64 38q-16 17 -30 44.5t-14 46.5q0 7 3 7q7 0 9 -8q0 -3 6.5 -23t23.5 -44t50 -42t86 -18q63 0 113 29.5t89.5 77t72.5 103.5t63 110t61 95q-13 -14 -32.5 -34.5t-41.5 -41.5t-42 -38t-33 -25q-22 -13 -41.5 -19t-35.5 -6q-31 0 -48 19.5
t-17 50.5q0 29 15.5 64t49.5 71q35 38 87 61.5t99 23.5q17 0 33 -3.5t29 -11.5q18 -11 26.5 -20.5t12.5 -22.5q6 0 19 -5.5t24 -13t11 -15.5q0 -4 -8 -9q-20 -10 -45 -47.5t-55.5 -89t-68 -107t-83.5 -103.5t-101.5 -78t-121.5 -30zM81 25q20 0 49 20q22 15 48 37.5t51 47.5
t43 46q33 38 33 62q0 20 -24 20t-66 -23q-24 -13 -51 -37t-50.5 -52t-37.5 -52q-16 -29 -16 -47q0 -22 21 -22zM304 367q-24 0 -38.5 10t-14.5 35v7.5t1 7.5q1 5 13 11.5t27 11.5t23 5q7 0 6 -4t-1 -7v-6q0 -19 11 -27t27 -8q21 0 48 9t52 21.5t41 21.5q5 3 10 3q6 0 6 -5
q-1 -3 -7 -7q-23 -17 -60 -35.5t-75.5 -31t-68.5 -12.5z" />
    <glyph glyph-name="Gdotaccent" unicode="&#x120;" horiz-adv-x="912" 
d="M416 -241q-49 0 -90.5 14.5t-69 46.5t-35.5 84v3q0 5 3 5q5 0 7 -7q11 -57 55 -93t101 -36q40 0 77 16.5t70 42.5t61.5 55.5t52.5 54.5q56 62 101.5 129t71.5 123q-34 -35 -83.5 -71t-108.5 -69t-123.5 -58.5t-128.5 -39.5q-32 -7 -62 -10.5t-57 -3.5q-80 0 -136 26
t-85.5 71t-29.5 102q0 56 29 120t90 130q45 49 101 91.5t114.5 77t115 58.5t103.5 35q26 6 53 9.5t52 3.5q43 0 78.5 -11t57.5 -35t22 -63q0 -22 -7.5 -43t-12.5 -32q-3 -6 -6 -6q-2 0 -3 4t1 8q9 20 9 34q0 25 -21.5 36.5t-58.5 11.5q-42 0 -99 -13t-120.5 -36t-126.5 -53
t-118.5 -65.5t-95.5 -72.5q-66 -61 -96.5 -114.5t-30.5 -95.5q0 -63 59 -98.5t159 -35.5q26 0 53.5 2.5t57.5 7.5q87 16 177 50.5t168 84.5t129 109q4 11 7 21.5t3 20.5q0 13 -12 13q-16 0 -35 -16q-8 -7 -15 -7q-5 0 -5 5q0 8 10 17q33 24 64 24q26 0 42 -18q10 -11 10 -34
q0 -29 -16.5 -70t-42 -86.5t-55 -88t-55.5 -76.5t-42 -51q-55 -58 -128.5 -98t-153.5 -40zM675 748q-17 0 -17 21q0 17 13.5 31t32.5 22.5t33 8.5q9 0 9 -10q0 -15 -15 -32q-7 -10 -22.5 -25.5t-33.5 -15.5z" />
    <glyph glyph-name="gdotaccent" unicode="&#x121;" horiz-adv-x="408" 
d="M-89 -267q-61 0 -101 14t-64 38q-16 17 -30 44.5t-14 46.5q0 7 3 7q7 0 9 -8q0 -3 6.5 -23t23.5 -44t50 -42t86 -18q63 0 113 29.5t89.5 77t72.5 103.5t63 110t61 95q-13 -14 -32.5 -34.5t-41.5 -41.5t-42 -38t-33 -25q-22 -13 -41.5 -19t-35.5 -6q-31 0 -48 19.5
t-17 50.5q0 29 15.5 64t49.5 71q35 38 87 61.5t99 23.5q17 0 33 -3.5t29 -11.5q18 -11 26.5 -20.5t12.5 -22.5q6 0 19 -5.5t24 -13t11 -15.5q0 -4 -8 -9q-20 -10 -45 -47.5t-55.5 -89t-68 -107t-83.5 -103.5t-101.5 -78t-121.5 -30zM81 25q20 0 49 20q22 15 48 37.5t51 47.5
t43 46q33 38 33 62q0 20 -24 20t-66 -23q-24 -13 -51 -37t-50.5 -52t-37.5 -52q-16 -29 -16 -47q0 -22 21 -22zM285 370q-7 0 -11.5 6t-4.5 14q0 16 13 29.5t31 21.5t31 8q9 0 9 -10q0 -12 -14 -30q-7 -9 -22 -24t-32 -15z" />
    <glyph glyph-name="uni0122" unicode="&#x122;" horiz-adv-x="912" 
d="M416 -241q-49 0 -90.5 14.5t-69 46.5t-35.5 84v3q0 5 3 5q5 0 7 -7q11 -57 55 -93t101 -36q40 0 77 16.5t70 42.5t61.5 55.5t52.5 54.5q56 62 101.5 129t71.5 123q-34 -35 -83.5 -71t-108.5 -69t-123.5 -58.5t-128.5 -39.5q-32 -7 -62 -10.5t-57 -3.5q-80 0 -136 26
t-85.5 71t-29.5 102q0 56 29 120t90 130q45 49 101 91.5t114.5 77t115 58.5t103.5 35q26 6 53 9.5t52 3.5q43 0 78.5 -11t57.5 -35t22 -63q0 -22 -7.5 -43t-12.5 -32q-3 -6 -6 -6q-2 0 -3 4t1 8q9 20 9 34q0 25 -21.5 36.5t-58.5 11.5q-42 0 -99 -13t-120.5 -36t-126.5 -53
t-118.5 -65.5t-95.5 -72.5q-66 -61 -96.5 -114.5t-30.5 -95.5q0 -63 59 -98.5t159 -35.5q26 0 53.5 2.5t57.5 7.5q87 16 177 50.5t168 84.5t129 109q4 11 7 21.5t3 20.5q0 13 -12 13q-16 0 -35 -16q-8 -7 -15 -7q-5 0 -5 5q0 8 10 17q33 24 64 24q26 0 42 -18q10 -11 10 -34
q0 -29 -16.5 -70t-42 -86.5t-55 -88t-55.5 -76.5t-42 -51q-55 -58 -128.5 -98t-153.5 -40zM29 -233q-9 0 -9 6t7 7q27 3 52 18.5t42.5 36t20.5 36.5q-7 -8 -18.5 -15t-22.5 -7q-10 0 -16.5 5.5t-6.5 14.5q0 13 9 26.5t19 20.5q25 20 50 20q30 0 30 -25q0 -20 -14.5 -44.5
t-38 -47.5t-51 -37.5t-53.5 -14.5z" />
    <glyph glyph-name="uni0123" unicode="&#x123;" horiz-adv-x="408" 
d="M-89 -267q-61 0 -101 14t-64 38q-16 17 -30 44.5t-14 46.5q0 7 3 7q7 0 9 -8q0 -3 6.5 -23t23.5 -44t50 -42t86 -18q63 0 113 29.5t89.5 77t72.5 103.5t63 110t61 95q-13 -14 -32.5 -34.5t-41.5 -41.5t-42 -38t-33 -25q-22 -13 -41.5 -19t-35.5 -6q-31 0 -48 19.5
t-17 50.5q0 29 15.5 64t49.5 71q35 38 87 61.5t99 23.5q17 0 33 -3.5t29 -11.5q18 -11 26.5 -20.5t12.5 -22.5q6 0 19 -5.5t24 -13t11 -15.5q0 -4 -8 -9q-20 -10 -45 -47.5t-55.5 -89t-68 -107t-83.5 -103.5t-101.5 -78t-121.5 -30zM81 25q20 0 49 20q22 15 48 37.5t51 47.5
t43 46q33 38 33 62q0 20 -24 20t-66 -23q-24 -13 -51 -37t-50.5 -52t-37.5 -52q-16 -29 -16 -47q0 -22 21 -22zM287 346q-26 0 -26 25q0 20 14.5 44.5t38 46.5t51 36.5t54.5 14.5q6 0 6 -6t-7 -7q-27 -2 -52 -18t-42 -36.5t-21 -36.5q7 8 19 14t22 6q8 0 14.5 -4.5
t6.5 -13.5q0 -13 -9 -25t-19 -20q-25 -20 -50 -20z" />
    <glyph glyph-name="Hcircumflex" unicode="&#x124;" horiz-adv-x="812" 
d="M638 -23q-5 0 -5 11q0 10 6 28q10 29 35.5 78t60 109t74 124t78 123.5t71 107.5t54 76t26.5 28h9q9 0 9 -6t-11 -20q-42 -55 -89 -123.5t-93.5 -141.5t-88.5 -144t-75 -133t-52 -106q-5 -11 -9 -11zM216 -144q-5 0 -5 11q0 10 6 28q10 29 36.5 79.5t63.5 113t77 128.5
q-22 -3 -43.5 -6t-41.5 -7q-129 -22 -188.5 -61.5t-59.5 -72.5q0 -20 19 -35q2 -2 2 -3t-4 -1q-6 0 -9 3q-43 32 -43 78q0 33 25.5 66t80 60.5t140.5 42.5q42 8 85.5 12t86.5 3q35 55 68 104t59.5 87.5t44 60.5t21.5 22h9q9 0 9 -6t-11 -20q-38 -51 -83 -115.5t-90 -133.5
q47 -3 93 -12q18 -4 42 -11t47.5 -17.5t40.5 -26.5t20 -38q1 -7 -1.5 -6.5t-4.5 4.5q-4 12 -26.5 19t-47 10.5t-36.5 4.5q-31 3 -65 3q-55 0 -111 -6q-43 -68 -82 -133.5t-68.5 -121.5t-46.5 -96q-5 -11 -9 -11zM758 741q-18 0 -15 3q0 4 16 8q20 5 56 17.5t74.5 27.5
t63.5 26q14 7 24 7q11 0 18 -10q4 -7 12.5 -23.5t21 -30.5t28.5 -14q5 0 5 -4q0 -6 -23 -6q-39 0 -63 13.5t-35 27.5q-43 -14 -94 -28t-89 -14z" />
    <glyph glyph-name="hcircumflex" unicode="&#x125;" horiz-adv-x="403" 
d="M216 -1q-25 0 -39.5 14t-14.5 38q0 15 7 34t22 39q23 31 44 54.5t31 42.5q10 18 10 28q0 15 -18 15q-16 0 -45.5 -17.5t-61.5 -56.5q-18 -22 -41 -51.5t-37 -54.5q-6 -11 -11.5 -22.5t-16.5 -38.5q-3 -7 -16.5 -15t-21.5 -8q-6 0 -6 5q0 4 3 10q5 9 22.5 57t44.5 113
q-15 -16 -33 -34.5t-40 -35.5q-4 -4 -9 -4q-6 0 -6 5q0 4 9 11q23 20 46 42.5t50 56.5q9 22 32 63.5t55 92.5t71 102t80 91q37 36 77.5 55t73.5 19q29 0 47 -14t18 -45t-17 -66t-36 -56q-43 -48 -101.5 -88t-122.5 -68q-2 -1 -4 -1.5t-4 -0.5q-7 0 -7 5q0 6 11 10
q38 17 77.5 42t73.5 54t57 58q27 34 35 55.5t8 36.5q0 20 -22 20q-10 0 -29 -9.5t-45 -30.5q-40 -32 -82.5 -78t-83 -100t-76.5 -110t-65 -109q12 17 25 34.5t26 31.5q30 33 59 48t52 15q26 0 42 -15.5t16 -41.5q0 -14 -4.5 -27.5t-10.5 -24.5q-8 -17 -21 -40t-25 -43
q-23 -37 -23 -53q0 -9 8 -9q10 0 33 14q18 11 40.5 28.5t45 36.5t39 33.5t21.5 19.5q6 6 9 6t3 -3q0 -5 -7 -14q-26 -27 -65 -61t-88 -66q-19 -13 -36.5 -18.5t-31.5 -5.5zM368 721q-16 0 -14 4q0 5 15 7q14 3 38 13t53 24t56 27.5l47 23.5q5 3 14 3q7 0 8 -3
q8 -12 17 -31.5t20.5 -35.5t25.5 -20q5 -2 5 -4q0 -7 -22 -7q-36 0 -59 16t-35 34q-38 -18 -86 -34.5t-83 -16.5z" />
    <glyph glyph-name="Hbar" unicode="&#x126;" horiz-adv-x="812" 
d="M638 -23q-5 0 -5 11q0 10 6 28q10 29 35.5 78t60 109t74 124t78 123.5t71 107.5t54 76t26.5 28h9q9 0 9 -6t-11 -20q-42 -55 -89 -123.5t-93.5 -141.5t-88.5 -144t-75 -133t-52 -106q-5 -11 -9 -11zM216 -144q-5 0 -5 11q0 10 6 28q10 29 36.5 79.5t63.5 113t77 128.5
q-22 -3 -43.5 -6t-41.5 -7q-129 -22 -188.5 -61.5t-59.5 -72.5q0 -20 19 -35q2 -2 2 -3t-4 -1q-6 0 -9 3q-43 32 -43 78q0 33 25.5 66t80 60.5t140.5 42.5q42 8 85.5 12t86.5 3q35 55 68 104t59.5 87.5t44 60.5t21.5 22h9q9 0 9 -6t-11 -20q-38 -51 -83 -115.5t-90 -133.5
q47 -3 93 -12q18 -4 42 -11t47.5 -17.5t40.5 -26.5t20 -38q1 -7 -1.5 -6.5t-4.5 4.5q-4 12 -26.5 19t-47 10.5t-36.5 4.5q-31 3 -65 3q-55 0 -111 -6q-43 -68 -82 -133.5t-68.5 -121.5t-46.5 -96q-5 -11 -9 -11zM445 385q-6 0 -6 15q0 12 4 25t11 14q41 4 99 6t122 2
q58 0 115 -1.5t106.5 -3.5t83.5 -5t46 -6q7 -1 7 -9q0 -5 -4.5 -10.5t-11.5 -4.5q-46 3 -115 3q-60 0 -128 -2t-132.5 -6t-116 -8t-79.5 -9h-1z" />
    <glyph glyph-name="hbar" unicode="&#x127;" horiz-adv-x="403" 
d="M216 -1q-25 0 -39.5 14t-14.5 38q0 15 7 34t22 39q23 31 44 54.5t31 42.5q10 18 10 28q0 15 -18 15q-16 0 -45.5 -17.5t-61.5 -56.5q-18 -22 -41 -51.5t-37 -54.5q-6 -11 -11.5 -22.5t-16.5 -38.5q-3 -7 -16.5 -15t-21.5 -8q-6 0 -6 5q0 4 3 10q5 9 22.5 57t44.5 113
q-15 -16 -33 -34.5t-40 -35.5q-4 -4 -9 -4q-6 0 -6 5q0 4 9 11q23 20 46 42.5t50 56.5q9 22 32 63.5t55 92.5t71 102t80 91q37 36 77.5 55t73.5 19q29 0 47 -14t18 -45t-17 -66t-36 -56q-43 -48 -101.5 -88t-122.5 -68q-2 -1 -4 -1.5t-4 -0.5q-7 0 -7 5q0 6 11 10
q38 17 77.5 42t73.5 54t57 58q27 34 35 55.5t8 36.5q0 20 -22 20q-10 0 -29 -9.5t-45 -30.5q-40 -32 -82.5 -78t-83 -100t-76.5 -110t-65 -109q12 17 25 34.5t26 31.5q30 33 59 48t52 15q26 0 42 -15.5t16 -41.5q0 -14 -4.5 -27.5t-10.5 -24.5q-8 -17 -21 -40t-25 -43
q-23 -37 -23 -53q0 -9 8 -9q10 0 33 14q18 11 40.5 28.5t45 36.5t39 33.5t21.5 19.5q6 6 9 6t3 -3q0 -5 -7 -14q-26 -27 -65 -61t-88 -66q-19 -13 -36.5 -18.5t-31.5 -5.5zM135 414q-14 0 -14 15q0 11 5 24t17 14q17 2 41 2.5t49 0.5q54 0 102 -3.5t67 -10.5q6 -1 6 -6
q0 -9 -15 -9q-66 0 -117 -6.5t-86.5 -13.5t-54.5 -7z" />
    <glyph glyph-name="Itilde" unicode="&#x128;" horiz-adv-x="595" 
d="M133 374q-6 0 -10 4q-18 12 -29.5 33.5t-11.5 46.5t14 50t47 44q53 31 123.5 52.5t145 33.5t140.5 12q26 0 61.5 -5t69 -18t55.5 -35.5t22 -57.5v-7.5t-1 -7.5q0 -9 -5 -9q-3 0 -3 5q0 3 0.5 6t0.5 6q0 29 -43.5 42t-109.5 13q-57 0 -124 -8.5t-132.5 -23.5t-119.5 -34.5
t-86.5 -43t-32.5 -48.5q0 -23 32 -45q2 -1 2 -3t-5 -2zM216 -144q-5 0 -5 11q0 10 6 28q7 19 20.5 47t32.5 63q-25 -2 -48 -6.5t-44 -10.5q-24 -6 -50.5 -17.5t-51 -21t-42.5 -9.5q-13 0 -19 5q-7 5 -7 22q0 15 11.5 35.5t42 40.5t88.5 34q22 6 53.5 9t68.5 3h22.5t22.5 -1
q36 62 77.5 128.5t82.5 129.5t75.5 113.5t57 80t27.5 29.5h9q9 0 9 -6t-11 -20q-45 -59 -98 -136t-106 -160t-99 -161q57 -5 108 -21.5t83.5 -46.5t32.5 -77q0 -27 -8 -27q-5 0 -3 10q6 26 -25 44.5t-84 28.5t-114 10h-18t-18 -1q-22 -40 -40.5 -75.5t-29.5 -63.5
q-5 -11 -9 -11zM757 754q-24 0 -37.5 11t-25.5 21.5t-33 10.5q-19 0 -37 -10t-31 -19.5t-19 -9.5t-6 4q0 3 4 7q27 26 60 43.5t64 17.5q23 0 35.5 -5.5t21.5 -12t19 -12t28 -5.5q20 0 34.5 8.5t22.5 20.5q8 -2 6 -10q-2 -13 -19.5 -27t-41 -23.5t-45.5 -9.5z" />
    <glyph glyph-name="itilde" unicode="&#x129;" horiz-adv-x="275" 
d="M70 -1q-41 0 -55.5 17.5t-14.5 39.5q0 18 6 34.5t10 23.5q6 10 16.5 23t23.5 28q-20 -17 -37.5 -33t-28.5 -24q-3 -3 -6 -3q-4 0 -4 5q0 9 11 17q25 20 52.5 47.5l52 52t40.5 32.5q11 6 21 8.5t17 2.5q11 0 16 -3.5t2 -7.5q-17 -17 -33.5 -43.5t-30.5 -55.5t-22.5 -55
t-8.5 -44q0 -25 20 -25q19 0 49.5 17.5t64 44.5t62.5 53q4 4 7 4q5 0 6 -4.5t-2 -6.5q-35 -31 -76.5 -65t-82.5 -57t-75 -23zM282 374q-21 0 -35.5 11t-25.5 21.5t-25 10.5q-17 0 -33.5 -10t-28 -19.5t-16.5 -9.5q-6 0 -6 4q0 3 4 7q27 26 56.5 43.5t54.5 17.5q28 0 42 -8.5
t24.5 -17.5t26.5 -9q17 0 30.5 8.5t20.5 20.5q8 -2 6 -10q-3 -13 -19.5 -27t-37.5 -23.5t-38 -9.5z" />
    <glyph glyph-name="Imacron" unicode="&#x12a;" horiz-adv-x="595" 
d="M133 374q-6 0 -10 4q-18 12 -29.5 33.5t-11.5 46.5t14 50t47 44q53 31 123.5 52.5t145 33.5t140.5 12q26 0 61.5 -5t69 -18t55.5 -35.5t22 -57.5v-7.5t-1 -7.5q0 -9 -5 -9q-3 0 -3 5q0 3 0.5 6t0.5 6q0 29 -43.5 42t-109.5 13q-57 0 -124 -8.5t-132.5 -23.5t-119.5 -34.5
t-86.5 -43t-32.5 -48.5q0 -23 32 -45q2 -1 2 -3t-5 -2zM216 -144q-5 0 -5 11q0 10 6 28q7 19 20.5 47t32.5 63q-25 -2 -48 -6.5t-44 -10.5q-24 -6 -50.5 -17.5t-51 -21t-42.5 -9.5q-13 0 -19 5q-7 5 -7 22q0 15 11.5 35.5t42 40.5t88.5 34q22 6 53.5 9t68.5 3h22.5t22.5 -1
q36 62 77.5 128.5t82.5 129.5t75.5 113.5t57 80t27.5 29.5h9q9 0 9 -6t-11 -20q-45 -59 -98 -136t-106 -160t-99 -161q57 -5 108 -21.5t83.5 -46.5t32.5 -77q0 -27 -8 -27q-5 0 -3 10q6 26 -25 44.5t-84 28.5t-114 10h-18t-18 -1q-22 -40 -40.5 -75.5t-29.5 -63.5
q-5 -11 -9 -11zM586 762q-4 -1 -4 7q0 7 4 17.5t9.5 19.5t8.5 9q33 4 63 6t57 2q47 0 80 -4.5t49 -11.5q4 -1 4 -9q-1 -5 -6.5 -10.5t-10.5 -4.5q-17 2 -34 3t-32 1q-54 0 -99 -8.5t-89 -16.5z" />
    <glyph glyph-name="imacron" unicode="&#x12b;" horiz-adv-x="275" 
d="M70 -1q-41 0 -55.5 17.5t-14.5 39.5q0 18 6 34.5t10 23.5q6 10 16.5 23t23.5 28q-20 -17 -37.5 -33t-28.5 -24q-3 -3 -6 -3q-4 0 -4 5q0 9 11 17q25 20 52.5 47.5l52 52t40.5 32.5q11 6 21 8.5t17 2.5q11 0 16 -3.5t2 -7.5q-17 -17 -33.5 -43.5t-30.5 -55.5t-22.5 -55
t-8.5 -44q0 -25 20 -25q19 0 49.5 17.5t64 44.5t62.5 53q4 4 7 4q5 0 6 -4.5t-2 -6.5q-35 -31 -76.5 -65t-82.5 -57t-75 -23zM126 382q-3 -1 -3 6t3.5 17.5t8.5 20t8 9.5q30 4 57.5 6t52.5 2q42 0 72.5 -4.5t45.5 -11.5q3 -1 3 -9q-1 -5 -5.5 -10.5t-9.5 -4.5q-16 2 -31.5 3
t-29.5 1q-49 0 -90 -8.5t-82 -16.5z" />
    <glyph glyph-name="Ibreve" unicode="&#x12c;" horiz-adv-x="595" 
d="M133 374q-6 0 -10 4q-18 12 -29.5 33.5t-11.5 46.5t14 50t47 44q53 31 123.5 52.5t145 33.5t140.5 12q26 0 61.5 -5t69 -18t55.5 -35.5t22 -57.5v-7.5t-1 -7.5q0 -9 -5 -9q-3 0 -3 5q0 3 0.5 6t0.5 6q0 29 -43.5 42t-109.5 13q-57 0 -124 -8.5t-132.5 -23.5t-119.5 -34.5
t-86.5 -43t-32.5 -48.5q0 -23 32 -45q2 -1 2 -3t-5 -2zM216 -144q-5 0 -5 11q0 10 6 28q7 19 20.5 47t32.5 63q-25 -2 -48 -6.5t-44 -10.5q-24 -6 -50.5 -17.5t-51 -21t-42.5 -9.5q-13 0 -19 5q-7 5 -7 22q0 15 11.5 35.5t42 40.5t88.5 34q22 6 53.5 9t68.5 3h22.5t22.5 -1
q36 62 77.5 128.5t82.5 129.5t75.5 113.5t57 80t27.5 29.5h9q9 0 9 -6t-11 -20q-45 -59 -98 -136t-106 -160t-99 -161q57 -5 108 -21.5t83.5 -46.5t32.5 -77q0 -27 -8 -27q-5 0 -3 10q6 26 -25 44.5t-84 28.5t-114 10h-18t-18 -1q-22 -40 -40.5 -75.5t-29.5 -63.5
q-5 -11 -9 -11zM707 747q-26 0 -42 10t-16 35v7t1 8q1 5 13 11.5t27.5 11.5t24.5 5q7 0 6 -4t-1 -7v-6q0 -19 12 -27t34 -8q23 0 52 9t56 21.5t44 21.5q6 3 12 3q8 0 8 -5q-2 -3 -8 -7q-25 -17 -65.5 -35.5t-82.5 -31t-75 -12.5z" />
    <glyph glyph-name="ibreve" unicode="&#x12d;" horiz-adv-x="275" 
d="M70 -1q-41 0 -55.5 17.5t-14.5 39.5q0 18 6 34.5t10 23.5q6 10 16.5 23t23.5 28q-20 -17 -37.5 -33t-28.5 -24q-3 -3 -6 -3q-4 0 -4 5q0 9 11 17q25 20 52.5 47.5l52 52t40.5 32.5q11 6 21 8.5t17 2.5q11 0 16 -3.5t2 -7.5q-17 -17 -33.5 -43.5t-30.5 -55.5t-22.5 -55
t-8.5 -44q0 -25 20 -25q19 0 49.5 17.5t64 44.5t62.5 53q4 4 7 4q5 0 6 -4.5t-2 -6.5q-35 -31 -76.5 -65t-82.5 -57t-75 -23zM243 367q-24 0 -38.5 10t-14.5 35v7.5t1 7.5q1 5 13 11.5t27 11.5t23 5q7 0 6 -4t-1 -7v-6q0 -19 11 -27t27 -8q21 0 48 9t52 21.5t41 21.5
q5 3 10 3q6 0 6 -5q-1 -3 -7 -7q-23 -17 -60 -35.5t-75.5 -31t-68.5 -12.5z" />
    <glyph glyph-name="Iogonek" unicode="&#x12e;" horiz-adv-x="595" 
d="M133 374q-6 0 -10 4q-18 12 -29.5 33.5t-11.5 46.5t14 50t47 44q53 31 123.5 52.5t145 33.5t140.5 12q26 0 61.5 -5t69 -18t55.5 -35.5t22 -57.5v-7.5t-1 -7.5q0 -9 -5 -9q-3 0 -3 5q0 3 0.5 6t0.5 6q0 29 -43.5 42t-109.5 13q-57 0 -124 -8.5t-132.5 -23.5t-119.5 -34.5
t-86.5 -43t-32.5 -48.5q0 -23 32 -45q2 -1 2 -3t-5 -2zM216 -144q-5 0 -5 11q0 10 6 28q7 19 20.5 47t32.5 63q-25 -2 -48 -6.5t-44 -10.5q-24 -6 -50.5 -17.5t-51 -21t-42.5 -9.5q-13 0 -19 5q-7 5 -7 22q0 15 11.5 35.5t42 40.5t88.5 34q22 6 53.5 9t68.5 3h22.5t22.5 -1
q36 62 77.5 128.5t82.5 129.5t75.5 113.5t57 80t27.5 29.5h9q9 0 9 -6t-11 -20q-45 -59 -98 -136t-106 -160t-99 -161q57 -5 108 -21.5t83.5 -46.5t32.5 -77q0 -27 -8 -27q-5 0 -3 10q6 26 -25 44.5t-84 28.5t-114 10h-18t-18 -1q-22 -40 -40.5 -75.5t-29.5 -63.5
q-5 -11 -9 -11zM484 -254q-39 0 -61.5 19.5t-22.5 50.5q0 36 34.5 79t100.5 83q7 4 14 4q6 0 6 -4t-8 -8q-52 -31 -75 -65t-23 -65q0 -22 15 -37.5t49 -15.5q30 0 52.5 14t37 28t18.5 14q7 0 7 -5q0 -3 -4 -8q-28 -43 -67 -63.5t-73 -20.5z" />
    <glyph glyph-name="iogonek" unicode="&#x12f;" horiz-adv-x="275" 
d="M70 -1q-41 0 -55.5 17.5t-14.5 39.5q0 18 6 34.5t10 23.5q6 10 16.5 23t23.5 28q-20 -17 -37.5 -33t-28.5 -24q-3 -3 -6 -3q-4 0 -4 5q0 9 11 17q25 20 52.5 47.5l52 52t40.5 32.5q11 6 21 8.5t17 2.5q11 0 16 -3.5t2 -7.5q-17 -17 -33.5 -43.5t-30.5 -55.5t-22.5 -55
t-8.5 -44q0 -25 20 -25q19 0 49.5 17.5t64 44.5t62.5 53q4 4 7 4q5 0 6 -4.5t-2 -6.5q-35 -31 -76.5 -65t-82.5 -57t-75 -23zM224 370q-7 0 -11.5 6t-4.5 14q0 16 13 29.5t31 21.5t31 8q9 0 9 -10q0 -12 -14 -30q-7 -9 -22 -24t-32 -15zM55 -165q-29 0 -46 15t-17 38
q0 27 26.5 59.5t80.5 62.5q3 2 9 2q5 0 6 -2t-6 -6q-35 -24 -52 -49.5t-17 -48.5q0 -16 11 -26.5t32 -10.5t37.5 10t28 19.5t15.5 9.5q10 0 3 -10q-22 -32 -52.5 -47.5t-58.5 -15.5z" />
    <glyph glyph-name="Idotaccent" unicode="&#x130;" horiz-adv-x="595" 
d="M133 374q-6 0 -10 4q-18 12 -29.5 33.5t-11.5 46.5t14 50t47 44q53 31 123.5 52.5t145 33.5t140.5 12q26 0 61.5 -5t69 -18t55.5 -35.5t22 -57.5v-7.5t-1 -7.5q0 -9 -5 -9q-3 0 -3 5q0 3 0.5 6t0.5 6q0 29 -43.5 42t-109.5 13q-57 0 -124 -8.5t-132.5 -23.5t-119.5 -34.5
t-86.5 -43t-32.5 -48.5q0 -23 32 -45q2 -1 2 -3t-5 -2zM216 -144q-5 0 -5 11q0 10 6 28q7 19 20.5 47t32.5 63q-25 -2 -48 -6.5t-44 -10.5q-24 -6 -50.5 -17.5t-51 -21t-42.5 -9.5q-13 0 -19 5q-7 5 -7 22q0 15 11.5 35.5t42 40.5t88.5 34q22 6 53.5 9t68.5 3h22.5t22.5 -1
q36 62 77.5 128.5t82.5 129.5t75.5 113.5t57 80t27.5 29.5h9q9 0 9 -6t-11 -20q-45 -59 -98 -136t-106 -160t-99 -161q57 -5 108 -21.5t83.5 -46.5t32.5 -77q0 -27 -8 -27q-5 0 -3 10q6 26 -25 44.5t-84 28.5t-114 10h-18t-18 -1q-22 -40 -40.5 -75.5t-29.5 -63.5
q-5 -11 -9 -11zM694 748q-17 0 -17 21q0 17 13.5 31t32.5 22.5t33 8.5q9 0 9 -10q0 -15 -15 -32q-7 -10 -22.5 -25.5t-33.5 -15.5z" />
    <glyph glyph-name="dotlessi" unicode="&#x131;" horiz-adv-x="275" 
d="M70 -1q-41 0 -55.5 17.5t-14.5 39.5q0 18 6 34.5t10 23.5q6 10 16.5 23t23.5 28q-20 -17 -37.5 -33t-28.5 -24q-3 -3 -6 -3q-4 0 -4 5q0 9 11 17q25 20 52.5 47.5l52 52t40.5 32.5q11 6 21 8.5t17 2.5q11 0 16 -3.5t2 -7.5q-17 -17 -33.5 -43.5t-30.5 -55.5t-22.5 -55
t-8.5 -44q0 -25 20 -25q19 0 49.5 17.5t64 44.5t62.5 53q4 4 7 4q5 0 6 -4.5t-2 -6.5q-35 -31 -76.5 -65t-82.5 -57t-75 -23z" />
    <glyph glyph-name="IJ" unicode="&#x132;" horiz-adv-x="1217" 
d="M133 374q-6 0 -10 4q-18 12 -29.5 33.5t-11.5 46.5t14 50t47 44q53 31 123.5 52.5t145 33.5t140.5 12q26 0 61.5 -5t69 -18t55.5 -35.5t22 -57.5v-7.5t-1 -7.5q0 -9 -5 -9q-3 0 -3 5q0 3 0.5 6t0.5 6q0 29 -43.5 42t-109.5 13q-57 0 -124 -8.5t-132.5 -23.5t-119.5 -34.5
t-86.5 -43t-32.5 -48.5q0 -23 32 -45q2 -1 2 -3t-5 -2zM216 -144q-5 0 -5 11q0 10 6 28q7 19 20.5 47t32.5 63q-25 -2 -48 -6.5t-44 -10.5q-24 -6 -50.5 -17.5t-51 -21t-42.5 -9.5q-13 0 -19 5q-7 5 -7 22q0 15 11.5 35.5t42 40.5t88.5 34q22 6 53.5 9t68.5 3h22.5t22.5 -1
q36 62 77.5 128.5t82.5 129.5t75.5 113.5t57 80t27.5 29.5h9q9 0 9 -6t-11 -20q-45 -59 -98 -136t-106 -160t-99 -161q57 -5 108 -21.5t83.5 -46.5t32.5 -77q0 -27 -8 -27q-5 0 -3 10q6 26 -25 44.5t-84 28.5t-114 10h-18t-18 -1q-22 -40 -40.5 -75.5t-29.5 -63.5
q-5 -11 -9 -11zM542 -313q-57 0 -89 30t-32 81q0 32 13.5 70.5t41.5 81.5q31 48 75 92t94.5 82t99.5 66q9 67 41 135t80.5 130.5t107 112.5t119.5 81q55 28 111 28q53 0 93 -28t50 -85q1 -5 1.5 -11t0.5 -12q0 -52 -28 -121.5t-77 -148.5t-113.5 -159.5t-137.5 -154
t-148.5 -132.5t-147.5 -95q-45 -22 -84 -32.5t-71 -10.5zM573 -276q21 0 45.5 5.5t49.5 15.5q64 27 134 79.5t139.5 122t131 147t109.5 155.5t75.5 148t27.5 123q0 49 -24 79.5t-74 30.5q-33 0 -78 -15q-91 -31 -159.5 -91.5t-110.5 -141t-54 -171.5q47 23 95.5 36.5
t95.5 13.5h12.5t12.5 -1q27 -2 46 -13.5t24 -31.5q2 -4 2 -6.5v-4.5q0 -3 -2 -3q-1 0 -3.5 1t-6.5 2t-9 1.5t-10 0.5q-47 0 -115.5 -30.5t-138.5 -75.5q7 -16 16 -23t19 -8q7 0 7 -6q0 -5 -11 -5q-4 0 -10.5 1t-15.5 3q-18 5 -31 21q-61 -41 -120 -88t-104 -105
q-25 -33 -36.5 -59t-11.5 -46q0 -31 23.5 -46t59.5 -15z" />
    <glyph glyph-name="ij" unicode="&#x133;" horiz-adv-x="434" 
d="M223 306q-14 0 -21 9t-7 19q0 20 19 39.5t40 19.5q14 0 21 -9t7 -19q0 -21 -18.5 -40t-40.5 -19zM70 -1q-41 0 -55.5 17.5t-14.5 39.5q0 18 6 34.5t10 23.5q6 10 16.5 23t23.5 28q-20 -17 -37.5 -33t-28.5 -24q-3 -3 -6 -3q-4 0 -4 5q0 8 11 16q26 22 50.5 48t46.5 48.5
t39 31.5q18 10 29 13t18 3q11 0 16 -3.5t2 -7.5q-17 -17 -33.5 -43.5t-30.5 -55.5t-22.5 -55t-8.5 -44q0 -25 20 -25q19 0 49.5 17.5t64 44.5t62.5 53q4 4 7 4q5 0 5.5 -5t-2.5 -7q-33 -31 -74.5 -64.5t-83 -56.5t-75.5 -23zM412 306q-14 0 -21 9t-7 19q0 20 19 39.5
t40 19.5q14 0 21 -9t7 -19q0 -21 -18.5 -40t-40.5 -19zM-67 -269q-48 0 -92 14t-72 45.5t-28 83.5v2q0 6 4 6t6 -7q11 -56 54 -91t99 -35q35 0 77 19.5t85 53.5t84 77t75 90q12 16 33 47.5t43.5 69.5t37.5 72q-5 -5 -16 -15.5t-21 -20.5t-16 -15q-1 -1 -1.5 -1h-0.5
q-5 0 -5 7q0 5 5 9q8 7 25.5 24.5t32.5 39.5t15 40q0 12 -12 17q-2 1 -2 3q0 7 8 7q20 0 31 -14.5t11 -39.5q0 -28 -12 -66.5t-32 -80.5t-43 -82t-44.5 -71.5t-37.5 -48.5q-35 -37 -83 -69t-101.5 -51t-106.5 -19z" />
    <glyph glyph-name="Jcircumflex" unicode="&#x134;" horiz-adv-x="622" 
d="M-53 -313q-57 0 -89 30t-32 81q0 32 13.5 70.5t41.5 81.5q31 48 75 92t94.5 82t99.5 66q9 67 41 135t80.5 130.5t107 112.5t119.5 81q55 28 111 28q53 0 93 -28t50 -85q1 -5 1.5 -11t0.5 -12q0 -52 -28 -121.5t-77 -148.5t-113.5 -159.5t-137.5 -154t-148.5 -132.5
t-147.5 -95q-45 -22 -84 -32.5t-71 -10.5zM-22 -276q21 0 45.5 5.5t49.5 15.5q64 27 134 79.5t139.5 122t131 147t109.5 155.5t75.5 148t27.5 123q0 49 -24 79.5t-74 30.5q-33 0 -78 -15q-91 -31 -159.5 -91.5t-110.5 -141t-54 -171.5q47 23 95.5 36.5t95.5 13.5h12.5
t12.5 -1q27 -2 46 -13.5t24 -31.5q2 -4 2 -6.5v-4.5q0 -3 -2 -3q-1 0 -3.5 1t-6.5 2t-9 1.5t-10 0.5q-47 0 -115.5 -30.5t-138.5 -75.5q7 -16 16 -23t19 -8q7 0 7 -6q0 -5 -11 -5q-4 0 -10.5 1t-15.5 3q-18 5 -31 21q-61 -41 -120 -88t-104 -105q-25 -33 -36.5 -59
t-11.5 -46q0 -31 23.5 -46t59.5 -15zM502 741q-18 0 -15 3q0 4 16 8q20 5 56 17.5t74.5 27.5t63.5 26q14 7 24 7q11 0 18 -10q4 -7 12.5 -23.5t21 -30.5t28.5 -14q5 0 5 -4q0 -6 -23 -6q-39 0 -63 13.5t-35 27.5q-43 -14 -94 -28t-89 -14z" />
    <glyph glyph-name="jcircumflex" unicode="&#x135;" horiz-adv-x="159" 
d="M-342 -269q-48 0 -92 14t-72 45.5t-28 83.5v2q0 6 4 6t6 -7q11 -56 54 -91t99 -35q35 0 77 19.5t85 53.5t84 77t75 90q12 16 33 47.5t43.5 69.5t37.5 72q-5 -5 -16 -15.5t-21 -20.5t-16 -15q-1 -1 -1.5 -1h-0.5q-5 0 -5 7q0 5 5 9q8 7 24 23t31 37t18 41q0 16 -12 20
q-2 1 -2 3q0 7 7 7q9 1 22 -5.5t19 -29.5q1 -4 1.5 -9t0.5 -10q0 -28 -12 -66.5t-32 -80.5t-43 -82t-44.5 -71.5t-37.5 -48.5q-35 -37 -83 -69t-101.5 -51t-106.5 -19zM41 361q-16 0 -14 4q0 5 15 7q14 3 38 13t53 24t56 27.5l47 23.5q5 3 14 3q7 0 8 -3q8 -12 17 -31.5
t20.5 -35.5t25.5 -20q5 -2 5 -4q0 -7 -22 -7q-36 0 -59 16t-35 34q-38 -18 -86 -34.5t-83 -16.5z" />
    <glyph glyph-name="uni0136" unicode="&#x136;" horiz-adv-x="667" 
d="M427 -88q-5 0 1.5 9t32.5 32q47 42 69.5 88t22.5 88q0 63 -47.5 107.5t-136.5 44.5q-55 0 -124 -21q-40 -12 -54 -12q-8 0 -8 4q0 3 11 14q25 23 73 60.5t110.5 81.5t131 88.5t134.5 82.5t121.5 62.5t91.5 28.5h5q11 0 11 -7q0 -11 -16 -18q-88 -31 -177 -78t-171 -100.5
t-150 -104t-116 -86.5q96 31 176 31q73 0 125 -22t80 -58.5t28 -81.5q0 -55 -46.5 -114t-148.5 -108q-9 -4 -17 -7.5t-12 -3.5zM-25 -85q-4 0 -4 10q0 5 1 11.5t5 16.5q8 23 28 66t47.5 99t60 117t66.5 121t65.5 111.5t57 87.5t41.5 49q10 8 29 8q11 0 20 -4t9 -14
q0 -9 -10 -22q-24 -31 -54.5 -74.5t-63 -91.5t-64 -96t-57.5 -89q-32 -50 -65.5 -106.5t-61 -106.5t-41.5 -82q-4 -11 -9 -11zM113 -233q-9 0 -9 6t7 7q27 3 52 18.5t42.5 36t20.5 36.5q-7 -8 -18.5 -15t-22.5 -7q-10 0 -16.5 5.5t-6.5 14.5q0 13 9 26.5t19 20.5
q25 20 50 20q30 0 30 -25q0 -20 -14.5 -44.5t-38 -47.5t-51 -37.5t-53.5 -14.5z" />
    <glyph glyph-name="uni0137" unicode="&#x137;" horiz-adv-x="340" 
d="M37 -79q-22 20 -29.5 36.5t-7.5 45.5q0 30 8.5 67t24.5 77q-10 -10 -21 -20t-22 -18q-3 -3 -6 -3t-3 3q0 7 12 19q16 14 30 31t31 38q50 111 112 200t150 171q45 41 84.5 59t69.5 18t47 -16t17 -42q0 -25 -16.5 -57t-53.5 -67q-26 -25 -62 -51.5t-74 -49.5t-71 -38
q-2 -1 -4 -1.5t-4 -0.5q-7 0 -7 5q0 6 11 10q31 14 68.5 38t72.5 52t59 53q30 32 43.5 54.5t13.5 34.5q0 15 -17 15q-18 0 -51.5 -18.5t-76.5 -56.5q-53 -47 -104.5 -108t-94 -120.5t-70.5 -105.5q39 52 76 81t68 42q26 10 49 10q26 0 42 -13t16 -33t-13.5 -45t-45.5 -49
q-25 -18 -66.5 -31.5t-77.5 -13.5q-21 0 -36 6q20 -25 50 -48.5t61.5 -38t55.5 -14.5q17 0 31 9t14 22q0 2 2.5 2t2.5 -2q0 -19 -15.5 -31t-37.5 -17q-10 -2 -20.5 -3.5t-21.5 -1.5q-41 0 -76.5 14.5t-61 36t-36.5 41.5q-13 -32 -19.5 -63.5t-6.5 -57.5q0 -35 12 -50
q3 -4 0 -5.5t-5 -0.5zM125 134q25 0 59.5 12t56.5 29q18 14 26.5 30t8.5 29q0 14 -8.5 23.5t-24.5 9.5t-38 -10.5t-51 -36.5q-16 -15 -32.5 -31t-30.5 -33q2 -5 5 -10.5t7 -7.5t10 -3t12 -1zM16 -233q-6 0 -6 6t7 7q27 3 52 18.5t42.5 36t20.5 36.5q-7 -8 -18.5 -14
t-22.5 -6q-8 0 -14.5 4.5t-6.5 13.5q0 13 9 25.5t19 19.5q25 20 50 20q26 0 26 -25q0 -20 -14.5 -44.5t-38 -46.5t-51 -36.5t-54.5 -14.5z" />
    <glyph glyph-name="kgreenlandic" unicode="&#x138;" horiz-adv-x="372" 
d="M-5 -5q-10 0 -24 4.5t-28 16.5q11 15 31.5 40.5t43.5 56.5t43 62q-16 -16 -35 -34t-38 -33q-4 -4 -9 -4q-4 0 -4 4q0 5 8 12q28 25 62.5 57.5t50.5 66.5q5 12 5 22q0 13 -5 16q-4 3 -4 8q0 9 9 9q5 0 8 -2q11 -5 21 -19t10 -42q0 -24 -9 -57q38 50 74 78t67 41
q26 10 49 10q26 0 42 -13t16 -33t-13.5 -45t-45.5 -49q-25 -18 -66.5 -31.5t-77.5 -13.5q-21 0 -36 6q20 -25 50 -48.5t62 -38t55 -14.5q17 0 31 9t14 22q0 2 2.5 2t2.5 -2q0 -19 -15.5 -31t-37.5 -17q-10 -2 -20.5 -3.5t-21.5 -1.5q-39 0 -73.5 13t-59.5 33t-38 40
q-10 -16 -23 -34.5t-30 -37.5q-22 -25 -43 -25zM157 134q25 0 59.5 12t56.5 29q18 14 26.5 30t8.5 29q0 14 -8.5 23.5t-24.5 9.5t-38 -10.5t-51 -36.5q-16 -15 -32.5 -31t-30.5 -33q2 -5 5 -10.5t7 -7.5t10 -3t12 -1z" />
    <glyph glyph-name="Lacute" unicode="&#x139;" horiz-adv-x="706" 
d="M84 83q-21 0 -35.5 6t-16.5 10q-1 2 0 3.5t3 -0.5q6 -4 23 -4q19 0 48 10.5t62 42.5q27 27 55 66.5t60 85.5q-33 7 -61.5 21.5t-37.5 42.5q-2 8 1 8t5 -5q7 -11 30 -14.5t47 -3.5q15 0 28.5 1t20.5 1h3q51 71 116 141.5t151 118.5q57 32 113.5 44.5t108.5 12.5
q53 0 90.5 -26.5t37.5 -70.5q0 -52 -62 -113t-193 -109q-73 -27 -154.5 -43.5t-161.5 -13.5q-13 0 -28 1t-32 4q-36 -55 -67 -101.5t-59 -73.5q-25 -24 -51 -33t-44 -9zM344 357q68 8 142.5 28t139.5 44q126 46 181.5 93.5t55.5 82.5q0 26 -23 38t-53 12q-39 0 -90.5 -11.5
t-104.5 -39.5q-76 -40 -137 -107.5t-111 -139.5zM693 -68q-7 0 -4 10q1 3 1 8q0 20 -36 37.5t-101 28t-154 10.5q-55 0 -107 -4.5t-96 -14.5q-31 -7 -66.5 -18t-67.5 -20.5t-55 -9.5q-15 0 -24.5 5.5t-9.5 21.5q0 23 29.5 50.5t101.5 46.5q59 17 108 21t98 4
q199 0 295.5 -42t96.5 -107v-7.5t-1 -8.5q-1 -11 -8 -11zM838 726q-22 0 -20 6q0 6 14 8q25 4 59 17.5t67.5 31t54.5 33.5q10 8 24 8q17 0 26 -7t9 -15q0 -6 -6 -11q-18 -14 -55.5 -31t-83 -28.5t-89.5 -11.5z" />
    <glyph glyph-name="lacute" unicode="&#x13a;" horiz-adv-x="294" 
d="M92 -5q-40 0 -56 19.5t-16 45.5q0 25 9.5 53t21.5 53q-13 -14 -25 -25.5t-20 -18.5q-4 -3 -8 -3q-5 0 -5 5t6 9q21 18 49 49t52 63q20 26 48 65t57 82.5t50 79.5q3 6 6.5 15t3.5 16q0 10 -8 10q-2 0 -11.5 -4t-18.5 -8t-11 -4q-8 0 1 9q16 12 40.5 23.5t50.5 19.5t44 8
q42 0 42 -27q0 -14 -13 -37q-11 -18 -32 -42.5t-46.5 -52t-49.5 -54t-40 -46.5q-4 -5 -19.5 -26t-35 -50.5t-39 -62t-32 -62t-12.5 -49.5q0 -27 26 -27q17 0 43 10q25 9 52.5 27.5t54 39.5t47 40t30.5 29q6 6 10 6t4 -5t-5 -10q-16 -17 -43.5 -44t-61 -54.5t-69.5 -46
t-71 -18.5zM369 615q-22 0 -20 6q0 6 14 8q20 4 51.5 22.5t64.5 42.5t54 42q5 3 11 3q10 0 20 -6t15 -14t-2 -13q-18 -14 -52.5 -36t-75.5 -38.5t-80 -16.5z" />
    <glyph glyph-name="uni013B" unicode="&#x13b;" horiz-adv-x="706" 
d="M84 83q-21 0 -35.5 6t-16.5 10q-1 2 0 3.5t3 -0.5q6 -4 23 -4q19 0 48 10.5t62 42.5q27 27 55 66.5t60 85.5q-33 7 -61.5 21.5t-37.5 42.5q-2 8 1 8t5 -5q7 -11 30 -14.5t47 -3.5q15 0 28.5 1t20.5 1h3q51 71 116 141.5t151 118.5q57 32 113.5 44.5t108.5 12.5
q53 0 90.5 -26.5t37.5 -70.5q0 -52 -62 -113t-193 -109q-73 -27 -154.5 -43.5t-161.5 -13.5q-13 0 -28 1t-32 4q-36 -55 -67 -101.5t-59 -73.5q-25 -24 -51 -33t-44 -9zM344 357q68 8 142.5 28t139.5 44q126 46 181.5 93.5t55.5 82.5q0 26 -23 38t-53 12q-39 0 -90.5 -11.5
t-104.5 -39.5q-76 -40 -137 -107.5t-111 -139.5zM693 -68q-7 0 -4 10q1 3 1 8q0 20 -36 37.5t-101 28t-154 10.5q-55 0 -107 -4.5t-96 -14.5q-31 -7 -66.5 -18t-67.5 -20.5t-55 -9.5q-15 0 -24.5 5.5t-9.5 21.5q0 23 29.5 50.5t101.5 46.5q59 17 108 21t98 4
q199 0 295.5 -42t96.5 -107v-7.5t-1 -8.5q-1 -11 -8 -11zM177 -233q-9 0 -9 6t7 7q27 3 52 18.5t42.5 36t20.5 36.5q-7 -8 -18.5 -15t-22.5 -7q-10 0 -16.5 5.5t-6.5 14.5q0 13 9 26.5t19 20.5q25 20 50 20q30 0 30 -25q0 -20 -14.5 -44.5t-38 -47.5t-51 -37.5t-53.5 -14.5z
" />
    <glyph glyph-name="uni013C" unicode="&#x13c;" horiz-adv-x="294" 
d="M92 -5q-40 0 -56 19.5t-16 45.5q0 25 9.5 53t21.5 53q-13 -14 -25 -25.5t-20 -18.5q-4 -3 -8 -3q-5 0 -5 5t6 9q21 18 49 49t52 63q20 26 48 65t57 82.5t50 79.5q3 6 6.5 15t3.5 16q0 10 -8 10q-2 0 -11.5 -4t-18.5 -8t-11 -4q-8 0 1 9q16 12 40.5 23.5t50.5 19.5t44 8
q42 0 42 -27q0 -14 -13 -37q-11 -18 -32 -42.5t-46.5 -52t-49.5 -54t-40 -46.5q-4 -5 -19.5 -26t-35 -50.5t-39 -62t-32 -62t-12.5 -49.5q0 -27 26 -27q17 0 43 10q25 9 52.5 27.5t54 39.5t47 40t30.5 29q6 6 10 6t4 -5t-5 -10q-16 -17 -43.5 -44t-61 -54.5t-69.5 -46
t-71 -18.5zM-37 -233q-6 0 -6 6t7 7q27 3 52 18.5t42.5 36t20.5 36.5q-7 -8 -18.5 -14t-22.5 -6q-8 0 -14.5 4.5t-6.5 13.5q0 13 9 25.5t19 19.5q25 20 50 20q26 0 26 -25q0 -20 -14.5 -44.5t-38 -46.5t-51 -36.5t-54.5 -14.5z" />
    <glyph glyph-name="Lcaron" unicode="&#x13d;" horiz-adv-x="706" 
d="M84 83q-21 0 -35.5 6t-16.5 10q-1 2 0 3.5t3 -0.5q6 -4 23 -4q19 0 48 10.5t62 42.5q27 27 55 66.5t60 85.5q-33 7 -61.5 21.5t-37.5 42.5q-2 8 1 8t5 -5q7 -11 30 -14.5t47 -3.5q15 0 28.5 1t20.5 1h3q51 71 116 141.5t151 118.5q57 32 113.5 44.5t108.5 12.5
q53 0 90.5 -26.5t37.5 -70.5q0 -52 -62 -113t-193 -109q-73 -27 -154.5 -43.5t-161.5 -13.5q-13 0 -28 1t-32 4q-36 -55 -67 -101.5t-59 -73.5q-25 -24 -51 -33t-44 -9zM344 357q68 8 142.5 28t139.5 44q126 46 181.5 93.5t55.5 82.5q0 26 -23 38t-53 12q-39 0 -90.5 -11.5
t-104.5 -39.5q-76 -40 -137 -107.5t-111 -139.5zM693 -68q-7 0 -4 10q1 3 1 8q0 20 -36 37.5t-101 28t-154 10.5q-55 0 -107 -4.5t-96 -14.5q-31 -7 -66.5 -18t-67.5 -20.5t-55 -9.5q-15 0 -24.5 5.5t-9.5 21.5q0 23 29.5 50.5t101.5 46.5q59 17 108 21t98 4
q199 0 295.5 -42t96.5 -107v-7.5t-1 -8.5q-1 -11 -8 -11zM947 497q-9 0 -9 6t7 7q27 3 52 18.5t42.5 36t20.5 36.5q-7 -8 -18.5 -15t-22.5 -7q-10 0 -16.5 5.5t-6.5 14.5q0 13 9 26.5t19 20.5q25 20 50 20q30 0 30 -25q0 -20 -14.5 -44.5t-38 -47.5t-51 -37.5t-53.5 -14.5z
" />
    </font>
</defs>
</svg>
